<svg preserveAspectRatio="xMidYMid meet" width="24" height="24" overflow="visible" style="display: block;" viewBox="0 0 12.8171 16" fill="none" xmlns="http://www.w3.org/2000/svg">
<path id="vector" d="M5.51135 8.88652L4.16555 7.51936C4.03738 7.39119 3.88443 7.3271 3.7067 7.3271C3.5284 7.3271 3.37517 7.39119 3.247 7.51936C3.11883 7.64753 3.05474 7.80048 3.05474 7.97821C3.05474 8.15651 3.11883 8.30975 3.247 8.43792L4.9773 10.1682C5.13396 10.3249 5.31197 10.4032 5.51135 10.4032C5.71072 10.4032 5.88874 10.3249 6.04539 10.1682L9.59146 6.62216C9.71963 6.49399 9.78371 6.34446 9.78371 6.17356C9.78371 6.00267 9.71963 5.84602 9.59146 5.70361C9.46328 5.57543 9.31033 5.51135 9.1326 5.51135C8.9543 5.51135 8.80107 5.57543 8.6729 5.70361L5.51135 8.88652ZM6.40854 16H6.20518C6.14138 16 6.08812 15.9858 6.04539 15.9573C4.29372 15.3876 2.84824 14.2839 1.70895 12.6462C0.569648 11.0085 0 9.1927 0 7.19893V3.35381C0 3.02626 0.0925677 2.73431 0.277703 2.47797C0.462839 2.22163 0.70494 2.02937 1.00401 1.9012L5.8745 0.0854474C6.05963 0.0284825 6.23765 0 6.40854 0C6.57944 0 6.75745 0.0284825 6.94259 0.0854474L11.8131 1.9012C12.1121 2.02937 12.3542 2.22163 12.5394 2.47797C12.7245 2.73431 12.8171 3.02626 12.8171 3.35381V7.19893C12.8171 9.1927 12.2474 11.0085 11.1081 12.6462C9.96885 14.2839 8.52336 15.3876 6.7717 15.9573C6.71473 15.9858 6.59368 16 6.40854 16ZM6.40854 14.7183C7.88963 14.2483 9.11437 13.3084 10.0828 11.8985C11.0512 10.4887 11.5354 8.92212 11.5354 7.19893V3.28972C11.5354 3.247 11.5246 3.20769 11.5029 3.1718C11.4818 3.13648 11.4499 3.11883 11.4072 3.11883L6.53671 1.30307C6.49399 1.28883 6.45127 1.28171 6.40854 1.28171C6.36582 1.28171 6.3231 1.28883 6.28037 1.30307L1.40988 3.11883C1.36716 3.11883 1.33497 3.13648 1.31332 3.1718C1.29225 3.20769 1.28171 3.247 1.28171 3.28972V7.19893C1.28171 8.92212 1.76591 10.4887 2.73431 11.8985C3.70271 13.3084 4.92746 14.2483 6.40854 14.7183Z" fill="var(--fill-0, #292B2E)"/>
</svg>
