<svg preserveAspectRatio="xMidYMid meet" width="24" height="24" overflow="visible" style="display: block;" viewBox="0 0 16 16" fill="none" xmlns="http://www.w3.org/2000/svg">
<path id="vector" d="M5.47368 9.89474C5.17895 9.89474 4.92996 9.79284 4.72674 9.58905C4.52295 9.38582 4.42105 9.13684 4.42105 8.84211C4.42105 8.54737 4.52295 8.29839 4.72674 8.09516C4.92996 7.89137 5.17895 7.78947 5.47368 7.78947C5.76842 7.78947 6.0174 7.89137 6.22063 8.09516C6.42442 8.29839 6.52632 8.54737 6.52632 8.84211C6.52632 9.13684 6.42442 9.38582 6.22063 9.58905C6.0174 9.79284 5.76842 9.89474 5.47368 9.89474ZM10.5263 9.89474C10.2316 9.89474 9.9826 9.79284 9.77937 9.58905C9.57558 9.38582 9.47368 9.13684 9.47368 8.84211C9.47368 8.54737 9.57558 8.29839 9.77937 8.09516C9.9826 7.89137 10.2316 7.78947 10.5263 7.78947C10.8211 7.78947 11.07 7.89137 11.2733 8.09516C11.4771 8.29839 11.5789 8.54737 11.5789 8.84211C11.5789 9.13684 11.4771 9.38582 11.2733 9.58905C11.07 9.79284 10.8211 9.89474 10.5263 9.89474ZM8 14.7368C9.8807 14.7368 11.4737 14.0842 12.7789 12.7789C14.0842 11.4737 14.7368 9.8807 14.7368 8C14.7368 7.66316 14.7158 7.3367 14.6737 7.02063C14.6316 6.70512 14.5544 6.4 14.4421 6.10526C14.1474 6.17544 13.8526 6.22821 13.5579 6.26358C13.2632 6.29839 12.9544 6.31579 12.6316 6.31579C11.3544 6.31579 10.1474 6.0421 9.01053 5.49474C7.87368 4.94737 6.90526 4.18246 6.10526 3.2C5.65614 4.29474 5.01418 5.24575 4.17937 6.05305C3.344 6.85979 2.37193 7.46667 1.26316 7.87368V8C1.26316 9.8807 1.91579 11.4737 3.22105 12.7789C4.52632 14.0842 6.1193 14.7368 8 14.7368ZM8 16C6.89123 16 5.84926 15.7895 4.87411 15.3684C3.89839 14.9474 3.05263 14.3789 2.33684 13.6632C1.62105 12.9474 1.05263 12.1016 0.631579 11.1259C0.210526 10.1507 0 9.10877 0 8C0 6.89123 0.210526 5.84898 0.631579 4.87326C1.05263 3.89811 1.62105 3.05263 2.33684 2.33684C3.05263 1.62105 3.89839 1.05263 4.87411 0.631579C5.84926 0.210526 6.89123 0 8 0C9.10877 0 10.151 0.210526 11.1267 0.631579C12.1019 1.05263 12.9474 1.62105 13.6632 2.33684C14.3789 3.05263 14.9474 3.89811 15.3684 4.87326C15.7895 5.84898 16 6.89123 16 8C16 9.10877 15.7895 10.1507 15.3684 11.1259C14.9474 12.1016 14.3789 12.9474 13.6632 13.6632C12.9474 14.3789 12.1019 14.9474 11.1267 15.3684C10.151 15.7895 9.10877 16 8 16ZM6.46316 1.45263C7.10877 2.63158 7.99663 3.52618 9.12674 4.13642C10.2563 4.74723 11.4246 5.05263 12.6316 5.05263C12.8561 5.05263 13.0773 5.04196 13.2952 5.02063C13.5124 4.99986 13.7333 4.9614 13.9579 4.90526C13.3965 3.79649 12.5825 2.91228 11.5158 2.25263C10.4491 1.59298 9.27719 1.26316 8 1.26316C7.7193 1.26316 7.456 1.28056 7.21011 1.31537C6.96477 1.35074 6.71579 1.39649 6.46316 1.45263ZM1.49474 6.4C2.29474 5.99298 3.04926 5.41053 3.75832 4.65263C4.46681 3.89474 4.92632 2.98246 5.13684 1.91579C4.21053 2.33684 3.43158 2.9367 2.8 3.71537C2.16842 4.4946 1.73333 5.38947 1.49474 6.4Z" fill="var(--fill-0, #292B2E)"/>
</svg>
