<svg preserveAspectRatio="xMidYMid meet" width="24" height="24" overflow="visible" style="display: block;" viewBox="0 0 15.84 16" fill="none" xmlns="http://www.w3.org/2000/svg">
<path id="gavel" d="M0.664251 16C0.48101 16 0.324643 15.9353 0.195152 15.8058C0.0650507 15.6757 0 15.5114 0 15.3128C0 15.1143 0.0687156 14.95 0.206147 14.8199C0.343578 14.6904 0.503915 14.6257 0.687157 14.6257H9.87215C10.0707 14.6257 10.231 14.6904 10.3532 14.8199C10.4753 14.95 10.5364 15.1143 10.5364 15.3128C10.5364 15.5114 10.4717 15.6757 10.3422 15.8058C10.2121 15.9353 10.0478 16 9.84924 16H0.664251ZM4.14584 10.0905L1.62627 7.57088C1.3056 7.25021 1.1416 6.86082 1.13427 6.40271C1.12633 5.94461 1.28269 5.55522 1.60337 5.23455L2.15309 4.68482L7.05481 9.54073L6.50508 10.0905C6.18441 10.4111 5.79136 10.5715 5.32592 10.5715C4.85988 10.5715 4.46652 10.4111 4.14584 10.0905ZM10.6738 5.9217L5.81793 1.01999L6.36765 0.470261C6.68832 0.149588 7.07771 -0.00708398 7.53582 0.000245687C7.99392 0.00818616 8.38331 0.172493 8.70398 0.493166L11.2236 3.01274C11.5442 3.33341 11.7046 3.72647 11.7046 4.1919C11.7046 4.65795 11.5442 5.0513 11.2236 5.37198L10.6738 5.9217ZM14.6822 14.5112L3.5274 3.35632L4.48942 2.3943L15.6672 13.572C15.7893 13.6942 15.8467 13.8509 15.8394 14.0421C15.8315 14.2326 15.7664 14.389 15.6443 14.5112C15.5068 14.6486 15.3465 14.7173 15.1633 14.7173C14.98 14.7173 14.8197 14.6486 14.6822 14.5112Z" fill="var(--fill-0, #292B2E)"/>
</svg>
