<svg preserveAspectRatio="none" width="100%" height="100%" overflow="visible" style="display: block;" viewBox="0 0 92 92" fill="none" xmlns="http://www.w3.org/2000/svg">
<g id="Frame 338">
<path d="M0 38.4C0 24.9587 0 18.2381 2.61584 13.1042C4.9168 8.58834 8.58834 4.9168 13.1042 2.61584C18.2381 0 24.9587 0 38.4 0H53.6C67.0413 0 73.7619 0 78.8958 2.61584C83.4117 4.9168 87.0832 8.58834 89.3842 13.1042C92 18.2381 92 24.9587 92 38.4V53.6C92 67.0413 92 73.7619 89.3842 78.8958C87.0832 83.4117 83.4117 87.0832 78.8958 89.3842C73.7619 92 67.0413 92 53.6 92H38.4C24.9587 92 18.2381 92 13.1042 89.3842C8.58834 87.0832 4.9168 83.4117 2.61584 78.8958C0 73.7619 0 67.0413 0 53.6V38.4Z" fill="var(--fill-0, #E6485C)"/>
<path id="Vector" fill-rule="evenodd" clip-rule="evenodd" d="M41.0769 43.0442C49.9338 44.812 56.3051 43.9775 60.4036 40.5389V23.3333H68.0355V68.4626H60.4036V49.1227V48.5429C57.2534 50.0273 53.5557 50.774 49.2765 50.774C46.7478 50.774 44.0147 50.5119 41.0769 49.9945V68.4626H33.4478V48.2076C32.4451 47.9203 31.4248 47.6123 30.3821 47.2766C24.9104 45.5168 17.89 46.377 14.8639 47.6737L13.3334 40.954C17.7155 39.4391 25.521 38.5293 32.364 40.731C32.7291 40.8484 33.0891 40.9605 33.4478 41.0716V23.3333H41.0769V41.8373V43.0442Z" fill="var(--fill-0, white)"/>
</g>
</svg>
