<svg preserveAspectRatio="xMidYMid meet" width="67" height="21" overflow="visible" style="display: block;" viewBox="0 0 67 21" fill="none" xmlns="http://www.w3.org/2000/svg">
<g id="Text">
<path id="Vector" fill-rule="evenodd" clip-rule="evenodd" d="M50.8777 4.32907C50.6548 4.16876 50.4007 4.08773 50.1146 4.08773C49.5432 4.08773 49.2576 4.43153 49.2576 5.11882V6.16931H51.4838V8.21191H49.2576V15.8767H47.0213V8.21191H45.5092V6.16931H47.0213V4.84649C47.0213 3.9516 47.273 3.24815 47.776 2.7357C48.2792 2.22356 48.9035 1.96729 49.6489 1.96729C50.2574 1.96729 50.7452 2.0549 51.1117 2.2299C51.405 2.37024 51.6439 2.52106 51.8299 2.68206L50.8777 4.32907ZM31.1822 15.8761H33.7105V2.37575H31.1822V15.8761ZM26.3789 13.2873C25.8591 13.8501 25.2097 14.1316 24.4303 14.1316C23.6377 14.1316 22.9883 13.8534 22.4816 13.297C21.975 12.7409 21.7217 12.0292 21.7217 11.1622C21.7217 10.3083 21.975 9.60327 22.4816 9.04684C22.9883 8.49066 23.6377 8.21235 24.4303 8.21235C25.2097 8.21235 25.8591 8.49066 26.3789 9.04684C26.8983 9.60327 27.1582 10.3083 27.1582 11.1622C27.1582 12.0162 26.8983 12.7245 26.3789 13.2873ZM27.0225 6.73701C26.2558 6.28436 25.392 6.05787 24.4309 6.05787C23.4824 6.05787 22.6217 6.28436 21.849 6.73701C21.0759 7.19004 20.4718 7.8045 20.0368 8.58077C19.6014 9.35704 19.384 10.2175 19.384 11.1618C19.384 12.1064 19.6014 12.9701 20.0368 13.7527C20.4718 14.5357 21.0726 15.1534 21.8392 15.6061C22.6055 16.0589 23.4693 16.2854 24.4309 16.2854C25.392 16.2854 26.2558 16.0589 27.0225 15.6061C27.7888 15.1534 28.3928 14.5357 28.8346 13.7527C29.2761 12.9701 29.4971 12.1064 29.4971 11.1618C29.4971 10.2175 29.2761 9.35704 28.8346 8.58077C28.3928 7.8045 27.7888 7.19004 27.0225 6.73701ZM55.6225 15.8761H53.0942V2.37575H55.6225V15.8761ZM64.6609 6.05787V11.0324C64.6609 11.8259 64.4562 12.437 64.047 12.8663C63.6376 13.2954 63.1017 13.51 62.439 13.51C61.8153 13.51 61.3343 13.3344 60.9967 12.9833C60.6586 12.6322 60.4898 12.0405 60.4898 11.208V6.05787H58.1509V11.5981C58.1509 12.9769 58.4657 14.0045 59.0961 14.6805C59.7263 15.3569 60.5936 15.6949 61.6983 15.6949C62.3868 15.6949 62.9585 15.5812 63.4135 15.3535C63.8682 15.1261 64.2774 14.7911 64.6414 14.3489L64.6609 14.4074V15.4413C64.6609 16.2475 64.4562 16.8685 64.047 17.3043C63.6376 17.7399 63.0755 17.9579 62.3609 17.9579C61.3814 17.9579 60.7404 17.5958 60.4356 16.8752L58.5028 17.8696C58.7634 18.3553 59.1104 18.7719 59.5445 19.1186C60.2525 19.6844 61.1914 19.9673 62.3609 19.9673C63.816 19.9673 64.9533 19.5542 65.772 18.7284C66.5907 17.9024 67 16.8002 67 15.4218V6.05787H64.6609ZM41.4383 12.6167C41.4383 13.1732 41.2461 13.6098 40.8619 13.9267C40.4774 14.2439 40.0004 14.4022 39.4307 14.4022C38.8873 14.4022 38.4599 14.2891 38.1488 14.0625C37.8372 13.8364 37.6817 13.5356 37.6817 13.1601C37.6817 12.7592 37.824 12.4518 38.109 12.2383C38.3938 12.0248 38.8476 11.8729 39.4706 11.7822L41.4383 11.4911V12.6167ZM42.6508 6.96027C41.8688 6.35859 40.8818 6.05787 39.6892 6.05787C38.523 6.05787 37.6089 6.30043 36.9462 6.78561C36.289 7.26667 35.8213 7.9934 35.5422 8.96432L37.6704 9.34135C37.7629 8.89901 37.9481 8.55736 38.2283 8.31866C38.5395 8.0537 39.0001 7.921 39.6098 7.921C40.8288 7.921 41.4384 8.50977 41.4384 9.68693V9.80343L39.3116 10.0945C37.8537 10.2885 36.8369 10.667 36.2605 11.2298C35.6841 11.7925 35.3959 12.4816 35.3959 13.2966C35.3959 13.8919 35.5481 14.4159 35.8531 14.8686C36.1578 15.3216 36.5686 15.6709 37.0853 15.9166C37.6023 16.1622 38.1718 16.2854 38.7948 16.2854C40.0799 16.2854 41.001 15.9039 41.5576 15.1403L41.816 16.0136H43.8235V9.6482C43.8235 8.45801 43.4326 7.56188 42.6508 6.96027ZM8.54853 8.27221C11.2776 8.80105 13.2408 8.55141 14.5036 7.52277V2.37575H16.8552V15.8761H14.5036V10.0906V9.91715C13.533 10.3612 12.3936 10.5846 11.0751 10.5846C10.2959 10.5846 9.45376 10.5062 8.54853 10.3514V15.8761H6.19782V9.81684C5.88884 9.73091 5.57446 9.63877 5.25318 9.53834C3.56721 9.01191 1.40401 9.26921 0.471599 9.65712L0 7.64693C1.35027 7.19377 3.75533 6.9216 5.86386 7.58023C5.97637 7.61535 6.08729 7.64889 6.19782 7.68211V2.37575H8.54853V7.91119V8.27221Z" fill="var(--fill-0, #E6485C)"/>
</g>
</svg>
