<svg preserveAspectRatio="none" width="100%" height="100%" overflow="visible" style="display: block;" viewBox="0 0 16 16" fill="none" xmlns="http://www.w3.org/2000/svg">
<g id="Frame">
<path id="Vector" d="M13.8567 14.4864L10.8953 11.5253C8.53156 13.5507 4.98956 13.3458 2.87511 11.0613C0.760446 8.77689 0.829334 5.23 3.03067 3.02933C5.23222 0.828666 8.77933 0.76111 11.0629 2.87644C13.3464 4.992 13.55 8.53378 11.524 10.8969L14.4851 13.8578C14.5276 13.8988 14.5614 13.9478 14.5847 14.002C14.608 14.0563 14.6203 14.1146 14.6208 14.1736C14.6213 14.2326 14.61 14.2911 14.5877 14.3458C14.5654 14.4004 14.5324 14.45 14.4906 14.4917C14.4489 14.5335 14.3993 14.5665 14.3446 14.5888C14.29 14.6112 14.2315 14.6224 14.1725 14.6219C14.1135 14.6214 14.0552 14.6091 14.0009 14.5858C13.9467 14.5625 13.8977 14.5287 13.8567 14.4862V14.4864ZM2.24711 7.13733C2.24711 9.83733 4.436 12.0262 7.136 12.0262C9.836 12.0262 12.0249 9.83733 12.0249 7.13733C12.0249 4.43733 9.836 2.24844 7.136 2.24844C4.43711 2.25155 2.25022 4.43844 2.24711 7.13733Z" fill="var(--fill-0, #292B2E)"/>
</g>
</svg>
