<svg width="24" height="24" viewBox="0 0 24 24" fill="none" xmlns="http://www.w3.org/2000/svg">
<path d="M20.8761 7.34531C21.4266 6.80853 21.7161 6.16848 21.7361 5.44286C21.7528 4.89 21.5961 4.39488 21.2706 3.97166C21.1969 3.87724 21.1169 3.79487 21.0138 3.69161C20.9355 3.61407 20.857 3.53719 20.7666 3.46755C20.345 3.14304 19.841 2.98542 19.2962 3.00215C18.5713 3.02291 17.9313 3.3126 17.3937 3.86211L13.4841 7.86223L10.7241 7.40862L10.733 7.39496C10.9025 7.11894 10.9546 6.79657 10.8801 6.48694C10.809 6.1927 10.6306 5.94625 10.377 5.79265C10.201 5.68712 9.99057 5.63355 9.77148 5.64707C9.37383 5.66703 9.0042 5.8935 8.80747 6.235L8.34259 7.01741L5.62023 6.57022C5.32907 6.52535 5.06027 6.61026 4.86903 6.81745L4.773 6.92071C4.42747 7.29504 4.08341 7.66868 3.75139 8.05025C3.58344 8.24391 3.51059 8.49823 3.55224 8.74868C3.59389 8.99739 3.74268 9.21261 3.96099 9.33905L9.23448 11.9591C8.59282 12.6135 7.95854 13.264 7.33042 13.9095L5.03996 13.7454C4.75041 13.7247 4.52393 13.8222 4.3272 14.031C3.99278 14.3845 3.65996 14.735 3.32636 15.0798C3.1927 15.2165 3.05033 15.3894 3.0048 15.6381C3.00078 15.6581 2.99998 15.7469 2.99998 15.767C3.00078 15.7925 3.0048 15.8854 3.01123 15.9101C3.11127 16.311 3.41528 16.4765 3.63519 16.5669C4.32399 16.8478 5.0152 17.1325 5.70801 17.4182L6.84976 17.8895L7.32815 19.0486C7.61141 19.7358 7.89372 20.4198 8.17298 21.1037C8.26178 21.323 8.42664 21.627 8.90344 21.7373L9.10179 21.7333C9.34822 21.6878 9.521 21.5461 9.65852 21.4126C10.0041 21.0773 10.3537 20.7445 10.7065 20.4117C10.9177 20.2142 11.0137 19.9742 10.9928 19.6982L10.8296 17.4069C11.4745 16.7805 12.124 16.1461 12.78 15.5029L15.3528 20.6876L15.4007 20.7764C15.5271 20.9948 15.7432 21.1436 15.9927 21.1851C16.2407 21.2243 16.4959 21.1539 16.6895 20.9852C17.0751 20.6491 17.4536 20.3004 17.8343 19.95L17.9223 19.8685C18.1287 19.678 18.2167 19.4108 18.1688 19.1173L17.7224 16.3949L18.5016 15.9325C18.8479 15.7333 19.0744 15.3637 19.0927 14.966C19.104 14.7452 19.0535 14.5348 18.9464 14.3588C18.7935 14.1067 18.5463 13.9283 18.2528 13.8572C17.9431 13.7828 17.6216 13.8349 17.3463 14.0036L17.3312 14.0124L16.8784 11.2524L20.8761 7.34531ZM9.36024 6.55742C9.45144 6.39898 9.621 6.29505 9.80341 6.28621C9.86984 6.283 9.96346 6.28943 10.0466 6.33978C10.153 6.4046 10.2282 6.50934 10.2594 6.63657C10.2931 6.77974 10.2675 6.92934 10.1875 7.06058L10.0435 7.29656L9.02032 7.12862L9.36024 6.55742ZM17.4884 19.4005L17.4012 19.4821C17.0244 19.8284 16.6508 20.1733 16.27 20.5053C16.2036 20.5637 16.1317 20.5613 16.0981 20.5557C16.0372 20.5452 15.9845 20.5093 15.9541 20.4564L15.9164 20.3836L13.2013 14.9116C13.1741 14.8564 13.1005 14.71 12.9197 14.6796C12.8133 14.6612 12.6501 14.734 12.5772 14.8052C11.8236 15.5452 11.0756 16.2748 10.3332 16.9956C10.2221 17.1044 10.1732 17.2364 10.1853 17.3868L10.3532 19.7444C10.3588 19.8132 10.346 19.8708 10.2668 19.9452C9.91083 20.2812 9.55888 20.6164 9.21239 20.9523C9.11074 21.0507 9.04913 21.0914 9.04753 21.0987L8.98351 21.1067C8.89712 21.0852 8.83632 21.0403 8.76427 20.8619C8.48503 20.1771 8.2027 19.4915 7.91864 18.8036L7.39071 17.522C7.3579 17.4428 7.29549 17.3796 7.21634 17.3476L5.95232 16.8268C5.25872 16.5404 4.5667 16.2548 3.87629 15.9739C3.69789 15.9019 3.65303 15.8411 3.63388 15.7539C3.64593 15.6874 3.68584 15.6266 3.78428 15.5259C4.12031 15.1788 4.45635 14.8267 4.79221 14.4707C4.85784 14.4011 4.9098 14.3835 4.96819 14.3835C4.97623 14.3835 4.98413 14.3835 4.99217 14.3843L7.35319 14.5533C7.49957 14.5654 7.63645 14.5141 7.7436 14.4037C8.4636 13.663 9.19406 12.915 9.93401 12.1606C10.0373 12.055 10.0796 11.9397 10.0588 11.8189C10.0421 11.7181 9.91807 11.5837 9.82687 11.5381L4.35658 8.82295C4.35658 8.82295 4.28292 8.78531 4.28211 8.78531C4.23015 8.75491 4.19412 8.70295 4.18448 8.64295C4.17805 8.60692 4.17644 8.53661 4.23403 8.47018C4.56122 8.09423 4.90205 7.72539 5.24357 7.35414L5.33879 7.25088C5.3708 7.21566 5.41634 7.18445 5.51719 7.20133L8.42359 7.67893C8.44623 7.68456 8.46698 7.68938 8.49015 7.69018L13.451 8.5046C13.6237 8.5334 13.7741 8.48063 13.9022 8.35018L17.8526 4.30927C18.2758 3.87562 18.7542 3.65811 19.3157 3.64203C19.7341 3.62529 20.075 3.74208 20.3766 3.97565C20.4446 4.02842 20.5038 4.08842 20.5822 4.16529C20.6454 4.22851 20.7086 4.29092 20.7646 4.36364C20.9973 4.66605 21.1101 5.02285 21.0982 5.42447C21.0814 5.98683 20.863 6.46522 20.4302 6.88765L16.391 10.8363C16.2581 10.9644 16.2061 11.1172 16.2357 11.2892L16.7741 14.57C16.7749 14.5796 16.7765 14.5883 16.7789 14.5972L17.0502 16.25C17.051 16.2732 17.055 16.2949 17.0614 16.318L17.5382 19.2236C17.5541 19.3235 17.5237 19.3676 17.4885 19.4004L17.4884 19.4005ZM17.6796 14.5508C17.8084 14.4708 17.9572 14.4453 18.102 14.4812C18.2284 14.5124 18.3348 14.5867 18.3988 14.6932C18.4483 14.7763 18.4556 14.8716 18.4524 14.9372C18.4435 15.1188 18.3396 15.2883 18.1771 15.382L17.61 15.7188L17.442 14.6956L17.6796 14.5508Z" fill="#B1BBBF" stroke="#B1BBBF" stroke-width="0.5"/>
</svg>
