<svg width="15" height="19" viewBox="0 0 14.7368 18.6667" fill="none" xmlns="http://www.w3.org/2000/svg">
<path d="M1.76842 18.6667C1.27719 18.6667 0.859649 18.4947 0.51579 18.1509C0.17193 17.807 0 17.3895 0 16.8982V5.69825C0 5.20702 0.17193 4.78947 0.51579 4.44561C0.859649 4.10175 1.27719 3.92982 1.76842 3.92982H3.68421V3.68421C3.68421 2.66901 4.04445 1.80117 4.76491 1.0807C5.48538 0.360234 6.35322 0 7.36842 0C8.38363 0 9.25146 0.360234 9.97193 1.0807C10.6924 1.80117 11.0526 2.66901 11.0526 3.68421V3.92982H12.9684C13.4597 3.92982 13.8772 4.10175 14.2211 4.44561C14.5649 4.78947 14.7368 5.20702 14.7368 5.69825V16.8982C14.7368 17.3895 14.5649 17.807 14.2211 18.1509C13.8772 18.4947 13.4597 18.6667 12.9684 18.6667H1.76842ZM1.76842 17.193H12.9684C13.0339 17.193 13.0994 17.1602 13.1649 17.0947C13.2304 17.0292 13.2632 16.9637 13.2632 16.8982V5.69825C13.2632 5.63275 13.2304 5.56725 13.1649 5.50175C13.0994 5.43626 13.0339 5.40351 12.9684 5.40351H11.0526V7.61403C11.0526 7.8269 10.9832 8.00276 10.8444 8.14161C10.7048 8.28112 10.5287 8.35088 10.3158 8.35088C10.1029 8.35088 9.92707 8.28112 9.78821 8.14161C9.6487 8.00276 9.57895 7.8269 9.57895 7.61403V5.40351H5.1579V7.61403C5.1579 7.8269 5.08847 8.00276 4.94961 8.14161C4.81011 8.28112 4.63392 8.35088 4.42105 8.35088C4.20819 8.35088 4.03233 8.28112 3.89347 8.14161C3.75397 8.00276 3.68421 7.8269 3.68421 7.61403V5.40351H1.76842C1.70292 5.40351 1.63743 5.43626 1.57193 5.50175C1.50643 5.56725 1.47368 5.63275 1.47368 5.69825V16.8982C1.47368 16.9637 1.50643 17.0292 1.57193 17.0947C1.63743 17.1602 1.70292 17.193 1.76842 17.193ZM5.1579 3.92982H9.57895V3.68421C9.57895 3.06199 9.36608 2.53801 8.94035 2.11228C8.51462 1.68655 7.99064 1.47368 7.36842 1.47368C6.7462 1.47368 6.22222 1.68655 5.79649 2.11228C5.37076 2.53801 5.1579 3.06199 5.1579 3.68421V3.92982Z" fill="#56575A"/>
</svg>
