<svg preserveAspectRatio="none" width="100%" height="100%" overflow="visible" style="display: block;" viewBox="0 0 13 13" fill="none" xmlns="http://www.w3.org/2000/svg">
<g id="SVG">
<path id="Vector" d="M9.20833 5.95833H3.79167C3.19336 5.95833 2.70833 6.44336 2.70833 7.04167V9.75C2.70833 10.3483 3.19336 10.8333 3.79167 10.8333H9.20833C9.80664 10.8333 10.2917 10.3483 10.2917 9.75V7.04167C10.2917 6.44336 9.80664 5.95833 9.20833 5.95833Z" stroke="var(--stroke-0, #23C967)" stroke-width="1.08333" stroke-linecap="round" stroke-linejoin="round"/>
<path id="Vector_2" d="M4.33333 5.95833V4.33333C4.33333 3.7587 4.56161 3.2076 4.96793 2.80127C5.37426 2.39494 5.92536 2.16667 6.5 2.16667C7.07464 2.16667 7.62574 2.39494 8.03206 2.80127C8.43839 3.2076 8.66667 3.7587 8.66667 4.33333V5.95833" stroke="var(--stroke-0, #23C967)" stroke-width="1.08333" stroke-linecap="round" stroke-linejoin="round"/>
</g>
</svg>
