<svg width="24" height="24" viewBox="0 0 24 24" fill="none" xmlns="http://www.w3.org/2000/svg">
<path d="M20.5359 8.84067C19.5023 4.96177 15.9891 2.25708 11.9789 2.25708C7.96875 2.25708 4.45547 4.96177 3.42188 8.84067C2.31562 9.18521 1.51172 10.2188 1.51172 11.4352V14.4235C1.51172 15.9211 2.73047 17.1375 4.22578 17.1375H4.3875C5.88516 17.1375 7.10156 15.9188 7.10156 14.4235V11.4352C7.10156 10.1672 6.22969 9.10083 5.05313 8.80317C6.04688 5.83833 8.82656 3.80864 11.9813 3.80864C15.1383 3.80864 17.918 5.83833 18.9094 8.80317C17.7328 9.10083 16.8609 10.1672 16.8609 11.4352V14.4235C16.8609 15.4571 17.4422 16.3571 18.293 16.8165C17.6203 17.754 16.3055 19.0829 14.6063 19.5375C14.2805 18.8719 13.5961 18.4149 12.8039 18.4149H11.1562C10.05 18.4149 9.15 19.3149 9.15 20.4211V20.5243C9.15 21.6305 10.05 22.5305 11.1562 22.5305H12.8016C13.7063 22.5305 14.4727 21.9305 14.7234 21.1079C17.3391 20.5313 19.2117 18.3821 19.9219 17.1586C19.9266 17.1493 19.9312 17.1399 19.9359 17.1329C21.3398 17.0297 22.4531 15.8555 22.4531 14.4258V11.4352C22.4531 10.2165 21.6445 9.18286 20.5359 8.84067ZM5.55234 11.4352V14.4235C5.55234 15.0657 5.02969 15.5883 4.3875 15.5883H4.22578C3.58359 15.5883 3.06094 15.0657 3.06094 14.4235V11.4352C3.06094 10.793 3.58359 10.2704 4.22578 10.2704H4.3875C5.02969 10.2727 5.55234 10.793 5.55234 11.4352ZM13.2633 20.5266C13.2633 20.775 13.0547 20.9813 12.8086 20.9813H11.1609C10.9125 20.9813 10.7062 20.7727 10.7062 20.5266V20.4235C10.7062 20.175 10.9148 19.9688 11.1609 19.9688H12.8086C13.057 19.9688 13.2633 20.1774 13.2633 20.4235V20.5266ZM20.9016 14.4235C20.9016 15.0657 20.3789 15.5883 19.7367 15.5883H19.575C18.9328 15.5883 18.4102 15.0657 18.4102 14.4235V11.4352C18.4102 10.793 18.9328 10.2704 19.575 10.2704H19.7367C20.3789 10.2704 20.9016 10.793 20.9016 11.4352V14.4235Z" fill="#292B2E"/>
<path d="M9.48031 14.3999L8.64001 15.7279C9.64671 16.352 10.8115 16.6822 12 16.6799C13.1883 16.6817 14.353 16.3518 15.36 15.7279L14.5197 14.3999C13.765 14.8665 12.8914 15.1145 12 15.1133C11.1086 15.1133 10.235 14.8665 9.48031 14.3999Z" fill="#292B2E"/>
</svg>
