<svg width="16" height="16" viewBox="0 0 16 16" fill="none" xmlns="http://www.w3.org/2000/svg">
<g id="Frame">
<path id="Union" d="M7.99837 11.0172C8.46341 11.0172 8.84114 11.3949 8.84114 11.86C8.84083 12.3248 8.4632 12.7017 7.99837 12.7018C7.53354 12.7017 7.1559 12.3247 7.15559 11.86C7.15559 11.3949 7.53333 11.0173 7.99837 11.0172ZM4.08138 8.78867C6.29159 6.76166 9.70726 6.76236 11.9173 8.78964C11.9766 8.84372 11.9792 8.94355 11.9183 9.00449L10.9388 9.98398C10.8838 10.0388 10.7942 10.0412 10.7308 9.98496C9.15041 8.58071 6.74715 8.60421 5.19368 10.0543C5.19594 10.0522 5.18641 10.0599 5.16829 10.0602C5.15456 10.0604 5.13211 10.0557 5.10579 10.0299L4.07942 9.00449C4.02021 8.94499 4.02144 8.84422 4.08138 8.78867ZM1.25911 5.96347C5.02826 2.38499 10.9711 2.38592 14.7386 5.96445C14.7976 6.0208 14.8008 6.12162 14.7396 6.18515L13.7611 7.16367C13.7201 7.20463 13.6587 7.21604 13.6048 7.19492L13.554 7.16269C10.4264 4.21586 5.53181 4.22522 2.41536 7.18808C2.40293 7.19863 2.31669 7.24273 2.20931 7.13535L1.25813 6.18418C1.19759 6.12335 1.19975 6.022 1.26009 5.96445L1.25911 5.96347Z" fill="var(--fill-0, #292B2E)" stroke="var(--stroke-0, #F8F8FB)" stroke-width="0.2"/>
</g>
</svg>
