<svg width="16" height="16" viewBox="0 0 16 16" fill="none" xmlns="http://www.w3.org/2000/svg">
<g id="Frame">
<path id="Vector" d="M8.49667 2.348C9.21067 1.54467 10.522 2.246 10.2507 3.286L9.36733 6.67L10.8293 7.25467C10.9819 7.31553 11.1175 7.41223 11.2248 7.5366C11.332 7.66096 11.4078 7.80934 11.4456 7.96916C11.4834 8.12899 11.4821 8.29556 11.4419 8.4548C11.4017 8.61404 11.3238 8.76126 11.2147 8.884L6.976 13.652C6.26266 14.4553 4.95133 13.754 5.22267 12.714L6.10533 9.33L4.64333 8.74534C4.49084 8.6844 4.35527 8.58765 4.24808 8.46325C4.14088 8.33885 4.06522 8.19047 4.02749 8.03065C3.98976 7.87084 3.99107 7.70428 4.03131 7.54508C4.07154 7.38587 4.14953 7.2387 4.25866 7.116L8.49667 2.348ZM9.26067 3.028L5.02266 7.79534L7.32267 8.71534L6.212 12.972L10.45 8.20467L8.15066 7.28467L9.26067 3.028Z" fill="var(--fill-0, #292B2E)"/>
</g>
</svg>
