<svg preserveAspectRatio="none" width="100%" height="100%" overflow="visible" style="display: block;" viewBox="0 0 32 32" fill="none" xmlns="http://www.w3.org/2000/svg">
<g id="Frame">
<path id="Vector" d="M15.2047 3.34408C15.7249 3.19789 16.2752 3.19785 16.7955 3.34408L24.9781 5.64388C25.595 5.81733 26.1389 6.18786 26.526 6.69857C26.913 7.20939 27.1225 7.83309 27.1226 8.47396V17.3001C27.1227 18.3459 26.91 19.3811 26.4976 20.3421C26.0853 21.3031 25.4821 22.1705 24.7242 22.891L24.5006 23.1019L24.0621 23.512L23.6334 23.9056L23.2135 24.2835L22.8014 24.6458L22.401 24.9915L22.0084 25.3216C21.5282 25.7219 21.0356 26.1077 20.5318 26.4779L20.1842 26.7269C18.4661 27.9335 17.0891 28.5238 15.9996 28.5238C14.9783 28.5236 13.7049 28.0054 12.1344 26.9466L11.816 26.7269L11.4674 26.4779C10.9637 26.1078 10.4709 25.7218 9.99081 25.3216L9.59921 24.9915H9.59823L9.19686 24.6458H9.19784L8.78671 24.2835L8.36678 23.9056L7.9371 23.512H7.93807L7.71932 23.3089L7.27499 22.89C6.51741 22.1696 5.91378 21.3029 5.50155 20.3421C5.08921 19.3811 4.87652 18.3459 4.87655 17.3001V8.47396C4.87668 7.83309 5.0862 7.20939 5.47323 6.69857C5.86031 6.18773 6.40408 5.81739 7.02108 5.64388L15.2047 3.34408ZM16.3121 5.06576C16.1082 5.0084 15.892 5.0084 15.6881 5.06576L7.50546 7.36654C7.26406 7.43458 7.05143 7.57969 6.89999 7.77963C6.74865 7.97954 6.66667 8.22322 6.66659 8.47396V17.3001C6.66654 18.1034 6.82933 18.8988 7.14608 19.637C7.46284 20.3752 7.9272 21.0407 8.50936 21.5941V21.5951L8.71542 21.7894L9.12069 22.1683H9.12167L9.5162 22.5326H9.51717L9.90389 22.8802L9.90487 22.8812L10.2808 23.2142L10.2818 23.2152L10.649 23.5335H10.65L10.8297 23.6869H10.8307L11.1832 23.9828L11.1842 23.9837L11.5279 24.263L11.5289 24.264L11.8619 24.5287L11.8629 24.5296L12.1881 24.7796L12.5006 25.014L12.5015 25.015L12.6558 25.1263L12.6568 25.1273L12.9547 25.3392L12.9566 25.3402L13.2437 25.5365H13.2447C13.2925 25.5687 13.3398 25.6004 13.3853 25.6302L13.3863 25.6312L13.6598 25.805H13.6607C14.6422 26.4159 15.4322 26.7357 16.0006 26.7357C16.5689 26.7357 17.3584 26.4158 18.3404 25.805H18.3414L18.6139 25.6312L18.6148 25.6302C18.6605 25.6003 18.7086 25.5688 18.7564 25.5365H18.7574L19.0445 25.3402L19.0455 25.3392C19.0937 25.3056 19.1446 25.2711 19.1949 25.2347L19.4986 25.015L19.4996 25.014L19.6549 24.8988L19.6558 24.8978L19.9742 24.6556H19.9752L20.1383 24.5296L20.1392 24.5287L20.4723 24.264L20.4732 24.263L20.817 23.9828V23.9818L20.9928 23.8372V23.8363L21.3512 23.5335C21.4119 23.482 21.4731 23.4281 21.5338 23.3753L21.9068 23.0501L21.9078 23.0492L22.2887 22.7083H22.2896L22.6803 22.3529L22.6812 22.3519L23.0816 21.9808L23.0826 21.9798L23.4918 21.5941C24.074 21.0406 24.5373 20.3743 24.8541 19.6361C25.1708 18.898 25.3345 18.1033 25.3346 17.3001V8.47396C25.3343 8.22329 25.2525 7.97942 25.1012 7.77963C24.9495 7.5797 24.7363 7.43439 24.4947 7.36654L16.3121 5.06576ZM15.2144 14.9232L15.1578 14.8968C14.7596 14.7065 14.438 14.3859 14.2457 13.9886C14.0534 13.5912 14.0013 13.1398 14.0992 12.7093C14.1972 12.2788 14.4394 11.8946 14.7848 11.6195C15.13 11.3444 15.5582 11.195 15.9996 11.1956C16.4365 11.1952 16.8612 11.3415 17.2047 11.6117C17.548 11.8817 17.7906 12.2593 17.8932 12.6839C17.9957 13.1085 17.9523 13.5555 17.7701 13.9525C17.5878 14.3495 17.2772 14.6744 16.8883 14.8734L16.8336 14.9007V18.6683C16.8346 18.8772 16.7548 19.0784 16.6109 19.2298C16.467 19.3812 16.2698 19.4713 16.0611 19.4808C15.8525 19.4903 15.6479 19.4182 15.4908 19.2806C15.3732 19.1775 15.2891 19.0432 15.2467 18.8949L15.2183 18.7425L15.2144 18.6634V14.9232Z" fill="var(--fill-0, black)" stroke="var(--stroke-0, white)" stroke-width="0.2"/>
</g>
</svg>
