<svg width="32" height="32" viewBox="0 0 32 32" fill="none" xmlns="http://www.w3.org/2000/svg">
<g id="Frame">
<g id="Union">
<mask id="path-1-inside-1_0_89" fill="white">
<path d="M24 2.66699C25.0609 2.66699 26.078 3.05698 26.8281 3.75098C27.5782 4.44496 28 5.38577 28 6.36719V22.4033C27.9999 23.7118 27.4376 24.9663 26.4375 25.8916C25.4374 26.8169 24.0814 27.3368 22.667 27.3369H9.33301C7.91864 27.3368 6.56262 26.8169 5.5625 25.8916C4.56237 24.9663 4.00006 23.7118 4 22.4033V19.9365H6.66699V6.36719C6.667 5.38593 7.08802 4.44493 7.83789 3.75098C8.58804 3.05698 9.60613 2.66699 10.667 2.66699H24ZM6.66699 22.4033C6.66705 23.0841 6.92741 23.6656 7.44824 24.1475C7.96902 24.6292 8.59724 24.87 9.33301 24.8701H18.667V22.4033H6.66699ZM10.667 5.13379C9.77811 5.13379 9.33302 5.54485 9.33301 6.36719V19.9365H21.333V24.8701H22.667C24.4445 24.87 25.3329 24.0478 25.333 22.4033V6.36719C25.333 5.54485 24.8889 5.13379 24 5.13379H10.667ZM21.333 15.002C22.2218 15.002 22.6669 15.4131 22.667 16.2354C22.667 17.0577 22.2219 17.4688 21.333 17.4688H13.333C12.4443 17.4686 12 17.0576 12 16.2354C12 15.4132 12.4444 15.0021 13.333 15.002H21.333ZM21.333 11.3018C22.2219 11.3018 22.667 11.7128 22.667 12.5352C22.6669 13.3574 22.2218 13.7686 21.333 13.7686H13.333C12.4444 13.7685 12.0001 13.3573 12 12.5352C12 11.7129 12.4443 11.3019 13.333 11.3018H21.333ZM21.333 7.60059C22.2217 7.60059 22.6668 8.01191 22.667 8.83398C22.667 9.65634 22.2219 10.0684 21.333 10.0684H13.333C12.4443 10.0683 12 9.65624 12 8.83398C12.0002 8.01201 12.4445 7.60069 13.333 7.60059H21.333Z"/>
</mask>
<path d="M24 2.66699C25.0609 2.66699 26.078 3.05698 26.8281 3.75098C27.5782 4.44496 28 5.38577 28 6.36719V22.4033C27.9999 23.7118 27.4376 24.9663 26.4375 25.8916C25.4374 26.8169 24.0814 27.3368 22.667 27.3369H9.33301C7.91864 27.3368 6.56262 26.8169 5.5625 25.8916C4.56237 24.9663 4.00006 23.7118 4 22.4033V19.9365H6.66699V6.36719C6.667 5.38593 7.08802 4.44493 7.83789 3.75098C8.58804 3.05698 9.60613 2.66699 10.667 2.66699H24ZM6.66699 22.4033C6.66705 23.0841 6.92741 23.6656 7.44824 24.1475C7.96902 24.6292 8.59724 24.87 9.33301 24.8701H18.667V22.4033H6.66699ZM10.667 5.13379C9.77811 5.13379 9.33302 5.54485 9.33301 6.36719V19.9365H21.333V24.8701H22.667C24.4445 24.87 25.3329 24.0478 25.333 22.4033V6.36719C25.333 5.54485 24.8889 5.13379 24 5.13379H10.667ZM21.333 15.002C22.2218 15.002 22.6669 15.4131 22.667 16.2354C22.667 17.0577 22.2219 17.4688 21.333 17.4688H13.333C12.4443 17.4686 12 17.0576 12 16.2354C12 15.4132 12.4444 15.0021 13.333 15.002H21.333ZM21.333 11.3018C22.2219 11.3018 22.667 11.7128 22.667 12.5352C22.6669 13.3574 22.2218 13.7686 21.333 13.7686H13.333C12.4444 13.7685 12.0001 13.3573 12 12.5352C12 11.7129 12.4443 11.3019 13.333 11.3018H21.333ZM21.333 7.60059C22.2217 7.60059 22.6668 8.01191 22.667 8.83398C22.667 9.65634 22.2219 10.0684 21.333 10.0684H13.333C12.4443 10.0683 12 9.65624 12 8.83398C12.0002 8.01201 12.4445 7.60069 13.333 7.60059H21.333Z" fill="var(--fill-0, black)"/>
<path d="M26.8281 3.75098L27.1677 3.38396L27.1677 3.38395L26.8281 3.75098ZM28 6.36719H28.5V6.36718L28 6.36719ZM28 22.4033L28.5 22.4033V22.4033H28ZM26.4375 25.8916L26.7771 26.2586L26.7771 26.2586L26.4375 25.8916ZM22.667 27.3369V27.8369H22.667L22.667 27.3369ZM9.33301 27.3369L9.33298 27.8369H9.33301V27.3369ZM5.5625 25.8916L5.22295 26.2586L5.22295 26.2586L5.5625 25.8916ZM4 22.4033H3.5V22.4033L4 22.4033ZM4 19.9365V19.4365H3.5V19.9365H4ZM6.66699 19.9365V20.4365H7.16699V19.9365H6.66699ZM6.66699 6.36719L6.16699 6.36718V6.36719H6.66699ZM7.83789 3.75098L7.49834 3.38395L7.49829 3.384L7.83789 3.75098ZM10.667 2.66699V2.16699V2.66699ZM6.66699 22.4033V21.9033H6.16695L6.16699 22.4034L6.66699 22.4033ZM7.44824 24.1475L7.10869 24.5145L7.10873 24.5145L7.44824 24.1475ZM9.33301 24.8701L9.33296 25.3701H9.33301V24.8701ZM18.667 24.8701V25.3701H19.167V24.8701H18.667ZM18.667 22.4033H19.167V21.9033H18.667V22.4033ZM10.667 5.13379V5.63379V5.13379ZM9.33301 6.36719L8.83301 6.36718V6.36719H9.33301ZM9.33301 19.9365H8.83301V20.4365H9.33301V19.9365ZM21.333 19.9365H21.833V19.4365H21.333V19.9365ZM21.333 24.8701H20.833V25.3701H21.333V24.8701ZM22.667 24.8701V25.3701H22.667L22.667 24.8701ZM25.333 22.4033L25.833 22.4033V22.4033H25.333ZM25.333 6.36719H25.833V6.36718L25.333 6.36719ZM24 5.13379V5.63379V5.63379V5.13379ZM22.667 16.2354H23.167V16.2353L22.667 16.2354ZM21.333 17.4688V16.9688V16.9688V17.4688ZM13.333 17.4688L13.333 17.9688H13.333V17.4688ZM12 16.2354L11.5 16.2353V16.2354H12ZM13.333 15.002V14.502H13.333L13.333 15.002ZM22.667 12.5352L23.167 12.5352V12.5352H22.667ZM21.333 13.7686V13.2686V13.2686V13.7686ZM13.333 13.7686L13.333 14.2686H13.333V13.7686ZM12 12.5352H11.5V12.5352L12 12.5352ZM13.333 11.3018V10.8018H13.333L13.333 11.3018ZM22.667 8.83398H23.167V8.83389L22.667 8.83398ZM21.333 10.0684V9.56836V9.56836V10.0684ZM13.333 10.0684L13.333 10.5684H13.333V10.0684ZM12 8.83398L11.5 8.83389V8.83398H12ZM13.333 7.60059V7.10059H13.333L13.333 7.60059ZM24 2.66699V3.16699C24.9402 3.16699 25.8346 3.51297 26.4886 4.118L26.8281 3.75098L27.1677 3.38395C26.3214 2.60099 25.1815 2.16699 24 2.16699V2.66699ZM26.8281 3.75098L26.4886 4.11799C27.1413 4.72188 27.5 5.53167 27.5 6.36719L28 6.36719L28.5 6.36718C28.5 5.23987 28.0152 4.16804 27.1677 3.38396L26.8281 3.75098ZM28 6.36719H27.5V22.4033H28H28.5V6.36719H28ZM28 22.4033L27.5 22.4033C27.4999 23.566 27.0007 24.6894 26.0979 25.5246L26.4375 25.8916L26.7771 26.2586C27.8746 25.2432 28.4999 23.8577 28.5 22.4033L28 22.4033ZM26.4375 25.8916L26.0979 25.5246C25.194 26.3609 23.9607 26.8368 22.667 26.8369L22.667 27.3369L22.667 27.8369C24.2021 27.8368 25.6808 27.2728 26.7771 26.2586L26.4375 25.8916ZM22.667 27.3369V26.8369H9.33301V27.3369V27.8369H22.667V27.3369ZM9.33301 27.3369L9.33304 26.8369C8.03933 26.8368 6.80601 26.3609 5.90205 25.5246L5.5625 25.8916L5.22295 26.2586C6.31923 27.2728 7.79795 27.8368 9.33298 27.8369L9.33301 27.3369ZM5.5625 25.8916L5.90205 25.5246C4.99932 24.6894 4.50005 23.566 4.5 22.4033L4 22.4033L3.5 22.4033C3.50007 23.8577 4.12541 25.2432 5.22295 26.2586L5.5625 25.8916ZM4 22.4033H4.5V19.9365H4H3.5V22.4033H4ZM4 19.9365V20.4365H6.66699V19.9365V19.4365H4V19.9365ZM6.66699 19.9365H7.16699V6.36719H6.66699H6.16699V19.9365H6.66699ZM6.66699 6.36719L7.16699 6.36719C7.167 5.53154 7.52517 4.72162 8.1775 4.11795L7.83789 3.75098L7.49829 3.384C6.65086 4.16823 6.167 5.24031 6.16699 6.36718L6.66699 6.36719ZM7.83789 3.75098L8.17744 4.118C8.83133 3.51305 9.72667 3.16699 10.667 3.16699V2.66699V2.16699C9.48558 2.16699 8.34474 2.60091 7.49834 3.38395L7.83789 3.75098ZM10.667 2.66699V3.16699H24V2.66699V2.16699H10.667V2.66699ZM6.66699 22.4033L6.16699 22.4034C6.16706 23.2299 6.49039 23.9425 7.10869 24.5145L7.44824 24.1475L7.78779 23.7804C7.36443 23.3888 7.16703 22.9383 7.16699 22.4033L6.66699 22.4033ZM7.44824 24.1475L7.10873 24.5145C7.72561 25.0851 8.4765 25.37 9.33296 25.3701L9.33301 24.8701L9.33306 24.3701C8.71799 24.3701 8.21242 24.1732 7.78776 23.7804L7.44824 24.1475ZM9.33301 24.8701V25.3701H18.667V24.8701V24.3701H9.33301V24.8701ZM18.667 24.8701H19.167V22.4033H18.667H18.167V24.8701H18.667ZM18.667 22.4033V21.9033H6.66699V22.4033V22.9033H18.667V22.4033ZM10.667 5.13379V4.63379C10.1547 4.63379 9.67729 4.75142 9.32729 5.07494C8.96986 5.40532 8.83301 5.86832 8.83301 6.36718L9.33301 6.36719L9.83301 6.36719C9.83301 6.04372 9.91872 5.89002 10.0061 5.80928C10.1008 5.72169 10.2904 5.63379 10.667 5.63379V5.13379ZM9.33301 6.36719H8.83301V19.9365H9.33301H9.83301V6.36719H9.33301ZM9.33301 19.9365V20.4365H21.333V19.9365V19.4365H9.33301V19.9365ZM21.333 19.9365H20.833V24.8701H21.333H21.833V19.9365H21.333ZM21.333 24.8701V25.3701H22.667V24.8701V24.3701H21.333V24.8701ZM22.667 24.8701L22.667 25.3701C23.6236 25.3701 24.4342 25.1496 25.0061 24.6203C25.5854 24.0843 25.833 23.313 25.833 22.4033L25.333 22.4033L24.833 22.4033C24.833 23.1381 24.6363 23.6001 24.3269 23.8864C24.0103 24.1794 23.4879 24.3701 22.667 24.3701L22.667 24.8701ZM25.333 22.4033H25.833V6.36719H25.333H24.833V22.4033H25.333ZM25.333 6.36719L25.833 6.36718C25.833 5.86862 25.6966 5.40561 25.3394 5.07513C24.9896 4.75142 24.5122 4.63379 24 4.63379V5.13379V5.63379C24.3766 5.63379 24.5658 5.72169 24.6602 5.8091C24.7474 5.88973 24.833 6.04342 24.833 6.36719L25.333 6.36719ZM24 5.13379V4.63379H10.667V5.13379V5.63379H24V5.13379ZM21.333 15.002V15.502C21.7096 15.502 21.8991 15.5899 21.9939 15.6775C22.0813 15.7582 22.167 15.9119 22.167 16.2354L22.667 16.2354L23.167 16.2353C23.167 15.7365 23.0301 15.2735 22.6727 14.9431C22.3227 14.6196 21.8453 14.502 21.333 14.502V15.002ZM22.667 16.2354H22.167C22.167 16.5588 22.0813 16.7125 21.9939 16.7933C21.8992 16.8809 21.7097 16.9688 21.333 16.9688V17.4688V17.9688C21.8453 17.9688 22.3227 17.8511 22.6727 17.5276C23.0301 17.1972 23.167 16.7342 23.167 16.2354H22.667ZM21.333 17.4688V16.9688H13.333V17.4688V17.9688H21.333V17.4688ZM13.333 17.4688L13.3331 16.9688C12.9565 16.9687 12.7673 16.8808 12.6728 16.7933C12.5856 16.7127 12.5 16.559 12.5 16.2354H12H11.5C11.5 16.734 11.6365 17.1969 11.9937 17.5274C12.3435 17.851 12.8208 17.9687 13.333 17.9688L13.333 17.4688ZM12 16.2354L12.5 16.2354C12.5 15.9118 12.5857 15.7581 12.6729 15.6774C12.7674 15.5899 12.9566 15.502 13.3331 15.502L13.333 15.002L13.333 14.502C12.8208 14.502 12.3435 14.6197 11.9937 14.9434C11.6366 15.2738 11.5 15.7368 11.5 16.2353L12 16.2354ZM13.333 15.002V15.502H21.333V15.002V14.502H13.333V15.002ZM21.333 11.3018V11.8018C21.7097 11.8018 21.8992 11.8897 21.9939 11.9772C22.0813 12.058 22.167 12.2117 22.167 12.5352H22.667H23.167C23.167 12.0363 23.0301 11.5733 22.6727 11.2429C22.3227 10.9194 21.8453 10.8018 21.333 10.8018V11.3018ZM22.667 12.5352L22.167 12.5351C22.167 12.8585 22.0813 13.0122 21.9939 13.093C21.8991 13.1806 21.7096 13.2686 21.333 13.2686V13.7686V14.2686C21.8453 14.2686 22.3227 14.1509 22.6727 13.8273C23.0301 13.497 23.1669 13.034 23.167 12.5352L22.667 12.5352ZM21.333 13.7686V13.2686H13.333V13.7686V14.2686H21.333V13.7686ZM13.333 13.7686L13.3331 13.2686C12.9566 13.2685 12.7674 13.1806 12.6729 13.0931C12.5857 13.0124 12.5 12.8587 12.5 12.5351L12 12.5352L11.5 12.5352C11.5 13.0337 11.6366 13.4967 11.9937 13.8271C12.3435 14.1508 12.8208 14.2685 13.333 14.2686L13.333 13.7686ZM12 12.5352H12.5C12.5 12.2115 12.5856 12.0578 12.6728 11.9772C12.7673 11.8897 12.9565 11.8018 13.3331 11.8018L13.333 11.3018L13.333 10.8018C12.8208 10.8018 12.3435 10.9195 11.9937 11.2431C11.6365 11.5736 11.5 12.0366 11.5 12.5352H12ZM13.333 11.3018V11.8018H21.333V11.3018V10.8018H13.333V11.3018ZM21.333 7.60059V8.10059C21.7095 8.10059 21.899 8.1885 21.9938 8.27615C22.0812 8.35698 22.1669 8.51076 22.167 8.83408L22.667 8.83398L23.167 8.83389C23.1669 8.33514 23.03 7.87222 22.6726 7.54186C22.3227 7.21833 21.8453 7.10059 21.333 7.10059V7.60059ZM22.667 8.83398H22.167C22.167 9.15748 22.0813 9.31156 21.9937 9.39258C21.8989 9.48035 21.7094 9.56836 21.333 9.56836V10.0684V10.5684C21.8455 10.5684 22.323 10.4504 22.6729 10.1265C23.0302 9.79594 23.167 9.33284 23.167 8.83398H22.667ZM21.333 10.0684V9.56836H13.333V10.0684V10.5684H21.333V10.0684ZM13.333 10.0684L13.3331 9.56836C12.9568 9.56832 12.7676 9.48031 12.673 9.39267C12.5856 9.31172 12.5 9.15764 12.5 8.83398H12H11.5C11.5 9.33258 11.6365 9.79563 11.9935 10.1263C12.3432 10.4503 12.8205 10.5683 13.333 10.5684L13.333 10.0684ZM12 8.83398L12.5 8.83408C12.5001 8.51059 12.5857 8.35682 12.673 8.27606C12.7675 8.18854 12.9567 8.10063 13.3331 8.10059L13.333 7.60059L13.333 7.10059C12.8208 7.10064 12.3435 7.21844 11.9938 7.5421C11.6367 7.87253 11.5001 8.3354 11.5 8.83389L12 8.83398ZM13.333 7.60059V8.10059H21.333V7.60059V7.10059H13.333V7.60059Z" fill="var(--stroke-0, white)" mask="url(#path-1-inside-1_0_89)"/>
</g>
</g>
</svg>
