<svg width="12" height="12" viewBox="0 0 12 12" fill="none" xmlns="http://www.w3.org/2000/svg">
<g id="Frame">
<path id="Vector" d="M5.99711 9.91146C3.82568 9.91146 2.08854 8.17431 2.08854 6.00289C2.08854 5.08003 2.41426 4.21146 2.95711 3.50574L2.35997 2.96289C1.65426 3.77717 1.21997 4.86289 1.21997 6.00289C1.21997 8.6086 3.33711 10.78 5.99711 10.78C7.13711 10.78 8.22283 10.4 9.03711 9.64003L8.43997 9.04289C8.11215 9.34454 7.72683 9.57694 7.30708 9.72619C6.88733 9.87543 6.44179 9.93845 5.99711 9.91146ZM5.99711 2.09432C8.16854 2.09432 9.90568 3.83146 9.90568 6.00289C9.90568 6.76289 9.68854 7.52289 9.25426 8.17431L9.8514 8.77146C10.3943 7.95717 10.72 7.03431 10.72 6.05717C10.72 3.45146 8.60283 1.28003 5.94283 1.28003C4.96568 1.28003 3.98854 1.60574 3.22854 2.1486L3.82568 2.69146C4.47711 2.31146 5.23711 2.04003 5.99711 2.09432Z" fill="var(--fill-0, #E6485C)"/>
<path id="Vector_2" d="M8.05981 4.91718C8.05981 4.10289 7.40838 3.39718 6.53981 3.39718H6.43124V3.23432C6.37695 3.01718 6.2141 2.9086 6.05124 2.9086C5.77981 2.85432 5.56267 3.07146 5.56267 3.2886V3.39718H5.34553C5.12838 3.45146 4.91124 3.50575 4.74838 3.61432L5.39981 4.26575H6.5941C6.91981 4.32003 7.19124 4.59146 7.19124 4.91718V4.97146C7.24553 5.1886 7.40838 5.29718 7.57124 5.29718C7.84267 5.35146 8.05981 5.13432 8.05981 4.91718ZM5.4541 8.6086H5.56267V8.77146C5.61695 8.9886 5.77981 9.09718 5.94267 9.15146C6.15981 9.15146 6.37695 8.9886 6.37695 8.71718V8.6086H6.64838C7.02838 8.6086 7.3541 8.44575 7.57124 8.17432L6.9741 7.57717C6.86553 7.68575 6.70267 7.74003 6.48553 7.74003H5.39981C5.0741 7.68575 4.80267 7.41432 4.80267 7.0886V7.03432C4.74838 6.81718 4.58553 6.7086 4.42267 6.7086C4.20553 6.7086 3.98838 6.87146 3.98838 7.14289C3.9341 7.90289 4.63981 8.6086 5.4541 8.6086ZM5.4541 6.43718H5.8341L3.98838 4.59146C3.98838 4.70003 3.9341 4.8086 3.9341 4.91718C3.9341 5.73146 4.63981 6.43718 5.4541 6.43718ZM2.73981 1.66003C2.57695 1.49718 2.35981 1.49718 2.19695 1.66003C2.0341 1.82289 2.0341 2.04003 2.19695 2.20289L9.79695 9.80289C9.85124 9.85718 9.95981 9.91146 10.0684 9.91146C10.177 9.91146 10.2855 9.85718 10.3398 9.80289C10.5027 9.64003 10.5027 9.3686 10.3398 9.20575L2.73981 1.66003Z" fill="var(--fill-0, #E6485C)"/>
</g>
</svg>
