<svg preserveAspectRatio="none" width="100%" height="100%" overflow="visible" style="display: block;" viewBox="0 0 14 14" fill="none" xmlns="http://www.w3.org/2000/svg">
<g id="Frame">
<path id="Vector" d="M5.29857 4.73577H6.3285C6.38237 4.90935 6.44821 5.04103 6.6158 5.32235L7.50208 6.84352L8.38879 5.32834C8.55638 5.04702 8.62821 4.89738 8.67609 4.73577H9.71201C9.6342 4.83753 9.39478 5.1787 9.28704 5.35228L8.46061 6.66994H8.7958C9.06515 6.66994 9.22719 6.65797 9.42471 6.62206V7.30483C9.2212 7.26892 9.05916 7.25695 8.7958 7.25695H8.09507L7.89755 7.56819V7.74177H8.78383C9.05318 7.74177 9.20324 7.7298 9.41274 7.69389V8.37666C9.20923 8.34075 9.04719 8.32878 8.78383 8.32878H7.89755V8.73622C7.89755 9.07739 7.90952 9.26294 7.94543 9.50279H7.05915C7.08908 9.26893 7.10704 9.02951 7.10704 8.73622V8.32878H6.2028C5.93346 8.32878 5.7774 8.34075 5.5739 8.37666V7.69389C5.78339 7.7298 5.92747 7.74177 6.2028 7.74177H7.10704V7.56221L6.90952 7.25695H6.21477C5.93944 7.25695 5.78938 7.26892 5.58587 7.30483V6.62206C5.78339 6.65797 5.93944 6.66994 6.21477 6.66994H6.54996L5.71755 5.35228C5.54397 5.08293 5.38835 4.8495 5.29857 4.73577ZM7.42812 12.558C5.77997 12.558 4.30369 11.8363 3.28616 10.6969L3.96209 10.1706C4.82186 11.1103 6.05445 11.7029 7.42812 11.7029C10.0254 11.7029 12.131 9.59728 12.131 7C12.131 4.40272 10.0254 2.29711 7.42812 2.29711C5.30925 2.29711 3.52216 3.70028 2.93472 5.62719L3.64443 4.87814C3.79578 4.71867 4.03734 4.71483 4.18398 4.86959C4.3302 5.02436 4.32635 5.27917 4.175 5.43864L2.80518 6.88414C2.69958 6.99573 2.55037 7.02608 2.41997 6.98461C2.26349 7.01796 2.09847 6.94912 2.01424 6.79393L1.05742 5.03462C0.951816 4.84009 1.01424 4.5917 1.19765 4.47925C1.38063 4.36724 1.6145 4.43393 1.7201 4.62804L2.11856 5.36083C2.81843 3.0919 4.9296 1.44204 7.42812 1.44204C10.4978 1.44204 12.9861 3.9303 12.9861 7C12.9861 10.0697 10.4978 12.558 7.42812 12.558Z" fill="var(--fill-0, #E6485C)" stroke="var(--stroke-0, #E6485C)" stroke-width="0.2"/>
</g>
</svg>
