<svg width="12" height="12" viewBox="0 0 12 12" fill="none" xmlns="http://www.w3.org/2000/svg">
<g id="Frame">
<path id="Vector" d="M6.3725 1.761C6.908 1.1585 7.8915 1.6845 7.688 2.4645L7.0255 5.0025L8.122 5.441C8.2364 5.48664 8.33813 5.55917 8.41858 5.65245C8.49903 5.74572 8.55583 5.857 8.58418 5.97687C8.61253 6.09674 8.61159 6.22167 8.58144 6.3411C8.5513 6.46053 8.49283 6.57094 8.411 6.663L5.232 10.239C4.697 10.8415 3.7135 10.3155 3.917 9.5355L4.579 6.9975L3.4825 6.559C3.36813 6.5133 3.26645 6.44073 3.18605 6.34743C3.10566 6.25414 3.04891 6.14285 3.02061 6.02299C2.99231 5.90312 2.9933 5.77821 3.02348 5.65881C3.05365 5.5394 3.11214 5.42902 3.19399 5.337L6.3725 1.761ZM6.9455 2.271L3.76699 5.8465L5.492 6.5365L4.659 9.729L7.8375 6.1535L6.11299 5.4635L6.9455 2.271Z" fill="var(--fill-0, #E6485C)"/>
</g>
</svg>
