<svg width="24" height="24" viewBox="0 0 24 24" fill="none" xmlns="http://www.w3.org/2000/svg">
<path d="M3.61938 11.2505H20.4041V12.7666H3.61938V11.2505ZM5.10039 18.8692V15.3253H3.61938V19.8927C3.61938 20.1678 3.83736 20.3917 4.11304 20.3917H9.04971V18.8756H5.10039V18.8692ZM18.9231 18.8692V15.3253H20.4041V19.8927C20.4041 20.1678 20.1861 20.3917 19.9104 20.3917H14.9737V18.8756H18.923L18.9231 18.8692ZM5.10039 5.15419V8.69809H3.61938V4.13069C3.61938 3.85561 3.83736 3.63171 4.11304 3.63171H9.04971V5.14778H5.10039V5.15419ZM18.9231 5.15419V8.69809H20.4041V4.13069C20.4041 3.85561 20.1861 3.63171 19.9104 3.63171H14.9737V5.14778H18.923L18.9231 5.15419Z" fill="#E6485C"/>
</svg>
