<svg width="24" height="24" viewBox="0 0 24 24" fill="none" xmlns="http://www.w3.org/2000/svg">
<path d="M2.24495 8.29377C1.92304 8.60888 1.91624 9.13256 2.23135 9.45447L2.24495 9.46807C2.57367 9.78999 3.10641 9.78999 3.43513 9.46807C8.28197 4.71418 16.0464 4.71418 20.8933 9.46807C21.222 9.78999 21.7547 9.78999 22.0835 9.46807C22.4054 9.15296 22.4122 8.62928 22.0971 8.30737L22.0835 8.29377C16.5724 2.89378 7.75829 2.89378 2.24495 8.29377ZM18.4857 10.8963C14.9084 7.38924 9.1797 7.38924 5.60238 10.8963C5.28047 11.2114 5.27366 11.7351 5.58878 12.057L5.60238 12.0706C5.93109 12.3925 6.46384 12.3925 6.79255 12.0706C9.71018 9.20964 14.3847 9.20964 17.3046 12.0706C17.6333 12.3925 18.1661 12.3925 18.4948 12.0706C18.8167 11.7555 18.8235 11.2318 18.5084 10.9099C18.4925 10.9031 18.4925 10.8963 18.4857 10.8963ZM15.4956 13.4489C13.5391 11.5356 10.413 11.5356 8.46106 13.4489C8.13915 13.764 8.13235 14.2877 8.44746 14.6096L8.46106 14.6232C8.78978 14.9451 9.32252 14.9451 9.65124 14.6232C10.948 13.3537 13.0223 13.3537 14.319 14.6232C14.6477 14.9451 15.1804 14.9451 15.5092 14.6232C15.8311 14.3081 15.8379 13.7844 15.5228 13.4625C15.5092 13.4557 15.5024 13.4489 15.4956 13.4489ZM13.7454 17.8356C13.759 16.8472 12.9633 16.0288 11.9749 16.0152C10.9865 16.0016 10.1681 16.7973 10.1545 17.7857C10.1409 18.7741 10.9366 19.5925 11.925 19.6061H11.9454C12.9361 19.622 13.7454 18.8262 13.7454 17.8356Z" fill="#E6485C"/>
</svg>
