<svg preserveAspectRatio="none" width="100%" height="100%" overflow="visible" style="display: block;" viewBox="0 0 40 40" fill="none" xmlns="http://www.w3.org/2000/svg">
<g id="Frame">
<path id="Vector" d="M26.25 6H14.75C12.6789 6 11 7.34315 11 9V31C11 32.6569 12.6789 34 14.75 34H26.25C28.3211 34 30 32.6569 30 31V9C30 7.34315 28.3211 6 26.25 6Z" stroke="var(--stroke-0, #F2747C)" stroke-width="1.5"/>
<path id="Vector_2" d="M20.5 13.9639C23.8334 13.9639 26.5361 16.6666 26.5361 20C26.5361 23.3334 23.8334 26.0361 20.5 26.0361C17.1666 26.0361 14.4639 23.3334 14.4639 20C14.4639 16.6666 17.1666 13.9639 20.5 13.9639Z" fill="var(--fill-0, #FFE6D8)" stroke="var(--stroke-0, #F2747C)" stroke-width="0.928571"/>
<path id="Vector_3" d="M17.6 20L19.6 22L23.6 18" stroke="var(--stroke-0, #F2747C)" stroke-width="1.5" stroke-linecap="round" stroke-linejoin="round"/>
<path id="Rectangle 567" d="M17 6H24V8C24 8.55228 23.5523 9 23 9H18C17.4477 9 17 8.55228 17 8V6Z" fill="var(--fill-0, #F2747C)"/>
</g>
</svg>
