<svg width="24" height="24" viewBox="0 0 24 24" fill="none" xmlns="http://www.w3.org/2000/svg">
<path d="M11.9883 11.9654C13.7285 11.9654 15.1443 10.5496 15.1443 8.80942C15.1443 7.06922 13.7285 5.65348 11.9883 5.65348C10.2481 5.65348 8.83237 7.06922 8.83237 8.80942C8.83235 10.5496 10.2481 11.9654 11.9883 11.9654ZM11.9883 6.87674C13.054 6.87674 13.921 7.74373 13.921 8.8094C13.921 9.87508 13.054 10.7421 11.9883 10.7421C10.9226 10.7421 10.0557 9.87508 10.0557 8.8094C10.0556 7.74373 10.9226 6.87674 11.9883 6.87674ZM21.7341 17.3902C21.356 17.0385 20.8207 16.7152 20.1431 16.4293C19.1074 15.9924 17.7724 15.6514 16.2372 15.4284C17.0321 14.4626 17.6805 13.5205 18.1685 12.6211C18.911 11.2529 19.2875 9.97044 19.2875 8.80942C19.2875 7.74865 19.095 6.74674 18.7153 5.83153C18.3494 4.94974 17.8201 4.17062 17.142 3.5158C15.8026 2.2225 13.9724 1.51025 11.9883 1.51025C9.98898 1.51025 8.15988 2.20265 6.83798 3.45991C6.15654 4.10802 5.62586 4.88654 5.2607 5.77382C4.88144 6.69538 4.68912 7.71669 4.68912 8.8094C4.68912 9.24349 4.74194 9.69636 4.8467 10.1634C4.84811 10.1708 4.84967 10.1782 4.85135 10.1856C4.88952 10.3531 4.93469 10.5232 4.98672 10.6955C5.02842 10.8339 5.07448 10.9734 5.12485 11.1138C5.12636 11.118 5.12792 11.1222 5.1295 11.1263C5.20169 11.3268 5.28266 11.5294 5.37202 11.7334C5.50845 12.0449 5.8594 12.1865 6.1709 12.0556C6.47639 11.9272 6.62245 11.5812 6.50341 11.2678C6.50125 11.2621 6.49801 11.2538 6.49389 11.2432C6.48732 11.2265 6.47787 11.2026 6.46648 11.174C6.4445 11.1187 6.41505 11.0451 6.38556 10.9716C6.33756 10.8519 6.28942 10.7322 6.27347 10.6926C6.23055 10.5725 6.19142 10.4537 6.15608 10.3364C5.99424 9.79747 5.91238 9.28528 5.91238 8.80942C5.91238 5.23204 8.41089 2.73354 11.9883 2.73354C15.5089 2.73354 18.0642 5.28882 18.0642 8.80942C18.0642 12.4824 13.3761 16.8125 11.9879 18.0139C11.4598 17.5578 10.4556 16.6506 9.41805 15.5015C9.4163 15.4995 9.41445 15.4977 9.41265 15.4958C9.28668 15.3505 9.09446 15.2665 8.88869 15.2874C6.86809 15.4917 5.12005 15.8866 3.83354 16.4293C3.15592 16.7152 2.62062 17.0385 2.24248 17.3902C1.77638 17.8238 1.54004 18.3024 1.54004 18.8126C1.54004 19.5972 2.11442 20.7114 4.85077 21.5642C6.76602 22.161 9.30085 22.4898 11.9883 22.4898C14.6758 22.4898 17.2106 22.161 19.1258 21.5642C21.8622 20.7114 22.4366 19.5971 22.4366 18.8125C22.4365 18.3024 22.2002 17.8238 21.7341 17.3902ZM18.7618 20.3963C16.9613 20.9574 14.5557 21.2665 11.9883 21.2665C9.42093 21.2665 7.01538 20.9574 5.21481 20.3963C3.52142 19.8685 2.7634 19.2206 2.7634 18.8126C2.7634 18.1529 4.65486 16.9933 8.70717 16.5372C10.2036 18.1608 11.5467 19.2436 11.6056 19.2908C11.7174 19.3805 11.8528 19.4253 11.9883 19.4253C12.1238 19.4253 12.2593 19.3805 12.3711 19.2908C12.4338 19.2404 13.7764 18.1577 15.2695 16.5372C19.3218 16.9934 21.2133 18.1529 21.2133 18.8126C21.2133 19.2206 20.4553 19.8685 18.7618 20.3963ZM8.08421 13.67C8.08421 13.163 7.67171 12.7505 7.16468 12.7505C6.65767 12.7505 6.24518 13.1629 6.24518 13.67C6.24518 14.177 6.65767 14.5895 7.16468 14.5895C7.67174 14.5895 8.08421 14.177 8.08421 13.67Z" fill="#B1BBBF"/>
</svg>
