<svg width="110" height="34" viewBox="0 0 110 34" fill="none" xmlns="http://www.w3.org/2000/svg">
<g clip-path="url(#clip0_91_322)">
<path fill-rule="evenodd" clip-rule="evenodd" d="M82.5595 7.70832C82.1978 7.44038 81.7855 7.30494 81.3213 7.30494C80.394 7.30494 79.9305 7.87957 79.9305 9.02833V10.7841H83.543V14.1982H79.9305V27.0092H76.3017V14.1982H73.848V10.7841H76.3017V8.57315C76.3017 7.07741 76.7101 5.90166 77.5264 5.04514C78.3429 4.18914 79.3559 3.7608 80.5655 3.7608C81.5529 3.7608 82.3445 3.90725 82.9391 4.19975C83.4151 4.43431 83.8028 4.68639 84.1046 4.95549L82.5595 7.70832ZM50.5996 27.0082H54.7023V4.44352H50.5996V27.0082ZM42.8051 22.6813C41.9617 23.622 40.9079 24.0924 39.6432 24.0924C38.357 24.0924 37.3032 23.6275 36.4811 22.6975C35.6589 21.768 35.2479 20.5785 35.2479 19.1293C35.2479 17.7022 35.6589 16.5237 36.4811 15.5937C37.3032 14.6641 38.357 14.1989 39.6432 14.1989C40.9079 14.1989 41.9617 14.6641 42.8051 15.5937C43.648 16.5237 44.0698 17.7022 44.0698 19.1293C44.0698 20.5567 43.648 21.7406 42.8051 22.6813ZM43.8495 11.733C42.6054 10.9764 41.2037 10.5979 39.6441 10.5979C38.1051 10.5979 36.7084 10.9764 35.4545 11.733C34.2 12.4902 33.2197 13.5172 32.5138 14.8147C31.8072 16.1122 31.4545 17.5504 31.4545 19.1287C31.4545 20.7075 31.8072 22.151 32.5138 23.4592C33.2197 24.7678 34.1946 25.8003 35.4386 26.557C36.6821 27.3137 38.0838 27.6923 39.6441 27.6923C41.2037 27.6923 42.6054 27.3137 43.8495 26.557C45.093 25.8003 46.0732 24.7678 46.7901 23.4592C47.5065 22.151 47.8651 20.7075 47.8651 19.1287C47.8651 17.5504 47.5065 16.1122 46.7901 14.8147C46.0732 13.5172 45.093 12.4902 43.8495 11.733ZM90.2589 27.0082H86.1562V4.44352H90.2589V27.0082ZM104.926 10.5979V18.9124C104.926 20.2386 104.593 21.26 103.929 21.9776C103.265 22.6947 102.395 23.0535 101.32 23.0535C100.308 23.0535 99.5275 22.76 98.9796 22.1732C98.431 21.5862 98.1571 20.5973 98.1571 19.2058V10.5979H94.3617V19.858C94.3617 22.1624 94.8726 23.88 95.8956 25.0099C96.9181 26.1405 98.3256 26.7054 100.118 26.7054C101.235 26.7054 102.163 26.5153 102.901 26.1347C103.639 25.7547 104.303 25.1948 104.894 24.4555L104.926 24.5534V26.2814C104.926 27.629 104.593 28.6669 103.929 29.3954C103.265 30.1234 102.353 30.4877 101.193 30.4877C99.6039 30.4877 98.5637 29.8826 98.0691 28.6781L94.9327 30.3401C95.3557 31.152 95.9187 31.8483 96.6232 32.4278C97.7721 33.3734 99.2956 33.8463 101.193 33.8463C103.555 33.8463 105.4 33.1559 106.729 31.7756C108.057 30.3949 108.721 28.5527 108.721 26.2489V10.5979H104.926ZM67.2422 21.5603C67.2422 22.4905 66.9302 23.2203 66.3068 23.75C65.6829 24.2801 64.9088 24.5447 63.9845 24.5447C63.1027 24.5447 62.4091 24.3556 61.9042 23.9769C61.3986 23.599 61.1464 23.0962 61.1464 22.4687C61.1464 21.7986 61.3771 21.2848 61.8397 20.9279C62.3019 20.5711 63.0382 20.3171 64.0492 20.1655L67.2422 19.6791V21.5603ZM69.2097 12.1061C67.9408 11.1005 66.3391 10.5979 64.4038 10.5979C62.5115 10.5979 61.0281 11.0033 59.9529 11.8142C58.8863 12.6183 58.1275 13.8329 57.6746 15.4557L61.128 16.0859C61.278 15.3466 61.5786 14.7755 62.0332 14.3766C62.5383 13.9337 63.2856 13.7119 64.275 13.7119C66.2531 13.7119 67.2423 14.696 67.2423 16.6635V16.8582L63.7911 17.3447C61.4254 17.6691 59.7755 18.3016 58.8402 19.2423C57.9048 20.1829 57.4371 21.3345 57.4371 22.6968C57.4371 23.6918 57.6841 24.5677 58.179 25.3242C58.6735 26.0814 59.3401 26.6653 60.1786 27.0759C61.0174 27.4865 61.9416 27.6923 62.9525 27.6923C65.0379 27.6923 66.5325 27.0546 67.4357 25.7784L67.855 27.238H71.1127V16.5988C71.1127 14.6095 70.4784 13.1117 69.2097 12.1061ZM13.8717 14.299C18.3002 15.1829 21.4859 14.7656 23.5351 13.0463V4.44352H27.3511V27.0082H23.5351V17.3382V17.0483C21.96 17.7905 20.1112 18.1639 17.9716 18.1639C16.7072 18.1639 15.3407 18.0328 13.8717 17.7741V27.0082H10.0572V16.8807C9.55585 16.737 9.04571 16.583 8.52436 16.4152C5.78853 15.5353 2.2783 15.9653 0.765266 16.6137L0 13.2538C2.19108 12.4964 6.0938 12.0415 9.51532 13.1424C9.69789 13.2011 9.87787 13.2571 10.0572 13.3127V4.44352H13.8717V13.6955V14.299Z" fill="#E6485C"/>
</g>
<defs>
<clipPath id="clip0_91_322">
<rect width="110" height="33.8462" fill="white"/>
</clipPath>
</defs>
</svg>
