<svg preserveAspectRatio="none" width="100%" height="100%" overflow="visible" style="display: block;" viewBox="0 0 133.225 122.369" fill="none" xmlns="http://www.w3.org/2000/svg">
<path id="Vector" opacity="0.5" fill-rule="evenodd" clip-rule="evenodd" d="M20.7596 82.1281C16.2773 84.0445 11.2438 84.1123 6.5397 81.1776L6.53681 81.1758C0.345886 77.3091 -0.169457 69.9922 0.213402 65.0118C0.638254 59.4852 2.41272 53.1936 4.4679 47.3602C7.07622 39.9568 10.4685 32.4247 12.9861 27.0493C12.1185 27.5036 11.3816 27.9126 10.865 28.2061C10.6057 28.3534 10.4041 28.4704 10.2717 28.5479C10.2055 28.5866 10.1568 28.6154 10.127 28.6331L10.0967 28.6511L10.096 28.6515C10.0955 28.6518 10.0949 28.6521 10.0944 28.6524C10.094 28.6526 10.0937 28.6529 10.0933 28.6531L10.0926 28.6535C6.94506 30.5401 2.85596 29.5322 0.957713 26.4012C-0.941206 23.2691 0.0713796 19.1984 3.21939 17.3091L6.65768 22.9803C3.21939 17.3091 3.22037 17.3085 3.22144 17.3079L3.23057 17.3024L3.24959 17.291L3.3106 17.2547C3.36129 17.2247 3.43183 17.183 3.52073 17.131C3.69842 17.027 3.95009 16.8811 4.26366 16.7029C4.88925 16.3475 5.76956 15.8591 6.80654 15.3164C8.8265 14.2594 11.6579 12.8816 14.4319 11.9233C15.8079 11.4479 17.402 10.9932 19.0104 10.7904C20.428 10.6117 22.8962 10.4823 25.2909 11.7115C28.3627 13.2881 29.7781 16.2388 29.875 19.1194C29.9551 21.4997 29.1761 23.8082 28.3039 25.7477C27.8916 26.6646 27.3046 27.9003 26.5986 29.3867C24.0821 34.6843 20.0533 43.1657 17.0317 51.7421C15.0957 57.2373 13.7793 62.2332 13.488 66.022C13.2737 68.8092 13.6699 69.8153 13.7985 70.0651C14.22 70.295 14.6029 70.343 15.5035 69.9579C16.9275 69.3491 18.9677 67.8145 21.589 64.8764C26.7982 59.0373 32.3475 49.9517 38.2812 39.9555C38.7491 39.1672 39.2195 38.3732 39.6919 37.5756C45.0071 28.603 50.5893 19.1796 56.0507 12.2809C59.0153 8.5361 62.3173 5.04068 65.9382 2.76543C69.6789 0.414893 74.5229 -1.05579 79.6491 0.927907C82.5596 2.05421 85.0149 3.99075 86.5764 6.79374C88.0752 9.48423 88.435 12.4046 88.2922 15.0523C88.0175 20.1454 85.7852 25.8404 83.0082 31.3361C77.3503 42.533 67.6608 56.2119 58.4551 69.026C57.7363 70.0267 57.0206 71.0218 56.3096 72.0103C47.693 83.991 39.7672 95.0111 35.2807 103.264C34.1648 105.316 33.3371 107.065 32.784 108.509C33.7577 108.066 34.9956 107.333 36.5193 106.153C39.562 103.796 43.0049 100.233 46.7789 95.6376C54.323 86.4504 62.3788 74.1519 70.3945 61.7466C70.9589 60.8732 71.5234 59.9987 72.0876 59.1246C79.4035 47.7912 86.6803 36.5182 93.1268 28.4343C96.5636 24.1244 100.133 20.2395 103.686 17.7432C107.006 15.4103 112.542 12.8361 118.069 16.1084C123.011 19.0339 125.819 23.4411 126.331 28.6839C126.795 33.4419 125.307 38.2396 123.347 42.4732C119.419 50.9545 112.076 60.2697 105.507 68.3038C104.408 69.6478 103.336 70.9513 102.298 72.2122C97.8231 77.6513 93.9997 82.2981 91.526 85.9875C92.8182 85.4434 94.3497 84.6015 96.1153 83.388C99.3605 81.1576 102.789 78.0974 106.148 74.7083C110.907 69.9062 114.871 65.1702 117.939 61.5045C119.358 59.8082 120.586 58.3411 121.612 57.2027C124.067 54.4795 128.275 54.2516 131.012 56.6937C133.749 59.1358 133.978 63.3231 131.524 66.0463C130.954 66.6789 130.05 67.7571 128.895 69.1339C125.762 72.8703 120.784 78.8066 115.628 84.0088C111.978 87.6915 107.89 91.3948 103.682 94.2867C99.5988 97.0932 94.7278 99.6121 89.6043 99.9972C87.3693 100.165 85.0245 100.11 82.8694 99.471C80.5716 98.7895 78.0823 97.2911 76.7107 94.4407C75.4426 91.8054 75.7041 89.1707 76.1465 87.3555C76.6009 85.4906 77.4377 83.6888 78.3265 82.0851C81.1883 76.9213 86.7383 70.191 92.2142 63.5506C93.2106 62.3424 94.2044 61.1372 95.1792 59.9449C101.922 51.698 108.146 43.644 111.255 36.9301C112.813 33.566 113.211 31.3095 113.08 29.9643C113.015 29.3052 112.842 28.7139 112.106 28.0833C111.91 28.1971 111.666 28.3525 111.366 28.563C109.417 29.9323 106.804 32.5946 103.556 36.6674C97.5451 44.2052 90.6201 54.9303 83.1478 66.5028C82.6322 67.3014 82.114 68.104 81.5933 68.9098C73.6608 81.1863 65.1975 94.1436 57.0887 104.018C53.0362 108.954 48.8692 113.374 44.6981 116.605C40.6581 119.734 35.774 122.409 30.4219 122.369L30.4186 122.369C27.8118 122.348 24.676 121.779 22.1569 119.557C19.4759 117.193 18.6996 114.046 18.6939 111.446C18.6884 108.964 19.3547 106.468 20.1776 104.233C21.027 101.926 22.2056 99.4724 23.5706 96.9615C28.4807 87.9301 36.9059 76.2208 45.3131 64.5369C46.0845 63.4648 46.8557 62.3929 47.6241 61.3234C56.9916 48.2839 66.011 35.4839 71.1134 25.3861C73.7166 20.2345 74.8773 16.5783 74.9979 14.3425C75.0265 13.8119 74.9879 13.4932 74.9546 13.328C74.9198 13.3122 74.8765 13.2938 74.8232 13.2732C74.8204 13.2721 74.8176 13.271 74.8148 13.27C74.7723 13.2531 74.7379 13.2396 74.5898 13.2656C74.3649 13.3051 73.8604 13.4541 73.0473 13.965C71.3337 15.0418 69.1448 17.1481 66.5093 20.4772C61.6356 26.6335 56.5091 35.2815 51.0314 44.5219C50.6046 45.2419 50.1757 45.9654 49.7446 46.6917C43.9815 56.4003 37.7746 66.6877 31.5457 73.6697C28.4479 77.1421 24.8485 80.38 20.7596 82.1281ZM112.736 27.7919C112.734 27.7972 112.69 27.8145 112.611 27.8275C112.699 27.793 112.738 27.7865 112.736 27.7919ZM89.0722 90.5381C89.0718 90.5384 89.0734 90.5275 89.0784 90.5048C89.0752 90.5265 89.0727 90.5379 89.0722 90.5381ZM30.0204 109.086C30.0208 109.086 30.0319 109.088 30.0525 109.093C30.0302 109.089 30.0199 109.087 30.0204 109.086ZM20.7486 23.9242C20.8154 23.9175 20.8459 23.9178 20.8444 23.9197C20.8429 23.9215 20.8095 23.9248 20.7486 23.9242Z" fill="var(--fill-0, #C4F8D9)"/>
</svg>
