<svg width="17" height="19" viewBox="0 0 17 19" fill="none" xmlns="http://www.w3.org/2000/svg">
<path d="M1.69697 16.9697H5.48687V10.2384H11.4828V16.9697H15.2727V6.78788L8.48485 1.66869L1.69697 6.78788V16.9697ZM1.69697 18.6667C1.22559 18.6667 0.825105 18.5015 0.495515 18.1712C0.165172 17.8416 0 17.4411 0 16.9697V6.78788C0 6.52391 0.0610911 6.26936 0.183273 6.02424C0.306209 5.77912 0.47138 5.58114 0.678788 5.4303L7.46667 0.311111C7.61751 0.19798 7.77778 0.117656 7.94747 0.0701412C8.11717 0.0233802 8.2963 0 8.48485 0C8.6734 0 8.85253 0.0233802 9.02222 0.0701412C9.19192 0.117656 9.35219 0.19798 9.50303 0.311111L16.2909 5.4303C16.4983 5.58114 16.6631 5.77912 16.7853 6.02424C16.9082 6.26936 16.9697 6.52391 16.9697 6.78788V16.9697C16.9697 17.4411 16.8045 17.8416 16.4742 18.1712C16.1446 18.5015 15.7441 18.6667 15.2727 18.6667H9.78586V11.9354H7.18384V18.6667H1.69697Z" fill="#56575A"/>
</svg>
