<svg preserveAspectRatio="none" width="100%" height="100%" overflow="visible" style="display: block;" viewBox="0 0 86.7299 24" fill="none" xmlns="http://www.w3.org/2000/svg">
<path id="Vector" fill-rule="evenodd" clip-rule="evenodd" d="M65.86 3.14904C65.5715 2.9353 65.2426 2.82725 64.8722 2.82725C64.1325 2.82725 63.7628 3.28566 63.7628 4.20205V5.6027H66.6445V8.32616L63.7628 8.32616V18.5459H60.868V8.32616H58.9106V5.6027H60.868V3.83895C60.868 2.64575 61.1937 1.70782 61.845 1.02455C62.4963 0.341693 63.3044 0 64.2693 0C65.057 0 65.6885 0.116826 66.1628 0.350156C66.5425 0.537275 66.8518 0.738366 67.0926 0.953033L65.86 3.14904ZM40.3647 18.5451H43.6375V0.544624H40.3647V18.5451ZM34.1468 15.0934C33.474 15.8438 32.6334 16.2191 31.6244 16.2191C30.5984 16.2191 29.7578 15.8482 29.102 15.1063C28.4461 14.3648 28.1182 13.4159 28.1182 12.2599C28.1182 11.1214 28.4461 10.1813 29.102 9.4394C29.7578 8.69783 30.5984 8.32675 31.6244 8.32675C32.6334 8.32675 33.474 8.69783 34.1468 9.4394C34.8192 10.1813 35.1557 11.1214 35.1557 12.2599C35.1557 13.3985 34.8192 14.3429 34.1468 15.0934ZM34.9799 6.35963C33.9875 5.7561 32.8693 5.45412 31.6252 5.45412C30.3975 5.45412 29.2833 5.7561 28.283 6.35963C27.2822 6.96367 26.5003 7.78295 25.9371 8.81798C25.3735 9.85301 25.0921 11.0003 25.0921 12.2594C25.0921 13.5189 25.3735 14.6704 25.9371 15.714C26.5003 16.7578 27.2779 17.5815 28.2704 18.1851C29.2624 18.7888 30.3805 19.0908 31.6252 19.0908C32.8693 19.0908 33.9875 18.7888 34.9799 18.1851C35.9719 17.5815 36.7538 16.7578 37.3257 15.714C37.8972 14.6704 38.1833 13.5189 38.1833 12.2594C38.1833 11.0003 37.8972 9.85301 37.3257 8.81798C36.7538 7.78295 35.9719 6.96367 34.9799 6.35963ZM72.002 18.5451H68.7292V0.544624H72.002V18.5451ZM83.7021 5.45412V12.0868C83.7021 13.1448 83.437 13.9596 82.9073 14.532C82.3774 15.1041 81.6836 15.3903 80.8258 15.3903C80.0184 15.3903 79.3958 15.1561 78.9587 14.688C78.5211 14.2198 78.3026 13.4309 78.3026 12.3209V5.45412H75.2749V12.8412C75.2749 14.6794 75.6825 16.0496 76.4985 16.951C77.3143 17.8529 78.4371 18.3035 79.867 18.3035C80.7583 18.3035 81.4983 18.1519 82.0873 17.8483C82.6759 17.5451 83.2056 17.0985 83.6768 16.5088L83.7021 16.5868V17.9653C83.7021 19.0404 83.437 19.8682 82.9073 20.4494C82.3774 21.0302 81.6497 21.3208 80.7247 21.3208C79.4568 21.3208 78.627 20.838 78.2324 19.8772L75.7305 21.2031C76.0679 21.8507 76.517 22.4062 77.079 22.8684C77.9955 23.6228 79.2109 24 80.7247 24C82.6084 24 84.0805 23.4493 85.1403 22.3482C86.2001 21.2468 86.7299 19.7772 86.7299 17.9393V5.45412H83.7021ZM53.6409 14.1992C53.6409 14.9412 53.3921 15.5233 52.8948 15.9459C52.3971 16.3688 51.7795 16.5799 51.0422 16.5799C50.3387 16.5799 49.7855 16.429 49.3827 16.127C48.9794 15.8255 48.7781 15.4244 48.7781 14.9238C48.7781 14.3893 48.9622 13.9794 49.3312 13.6947C49.6999 13.41 50.2873 13.2074 51.0938 13.0865L53.6409 12.6985V14.1992ZM55.2105 6.65731C54.1982 5.85507 52.9205 5.45412 51.3767 5.45412C49.8672 5.45412 48.6838 5.77753 47.826 6.42443C46.9752 7.06585 46.3699 8.03481 46.0086 9.32938L48.7635 9.83209C48.8832 9.2423 49.123 8.78676 49.4856 8.4685C49.8885 8.11522 50.4847 7.93829 51.2739 7.93829C52.8519 7.93829 53.641 8.72331 53.641 10.2929V10.4482L50.8879 10.8362C49.0007 11.095 47.6845 11.5996 46.9384 12.35C46.1923 13.1004 45.8192 14.019 45.8192 15.1058C45.8192 15.8995 46.0162 16.5982 46.411 17.2017C46.8054 17.8058 47.3373 18.2715 48.0061 18.5991C48.6753 18.9266 49.4125 19.0908 50.2189 19.0908C51.8825 19.0908 53.0748 18.5821 53.7953 17.564L54.1298 18.7284H56.7285V10.2412C56.7285 8.6543 56.2225 7.45946 55.2105 6.65731ZM11.0659 8.40657C14.5986 9.11169 17.1399 8.77883 18.7746 7.40732V0.544624L21.8187 0.544624V18.5451H18.7746V10.8311V10.5998C17.5181 11.1919 16.0432 11.4897 14.3364 11.4897C13.3278 11.4897 12.2377 11.3852 11.0659 11.1788V18.5451H8.02293V10.4661C7.62296 10.3515 7.21601 10.2286 6.80012 10.0947C4.61767 9.39283 1.81746 9.7359 0.610474 10.2531L0 7.57286C1.74789 6.96865 4.86119 6.60575 7.59063 7.48393C7.73627 7.53076 7.87985 7.57548 8.02293 7.61977V0.544624H11.0659V7.92521V8.40657Z" fill="var(--fill-0, #E6485C)"/>
</svg>
