<svg preserveAspectRatio="none" width="100%" height="100%" overflow="visible" style="display: block;" viewBox="0 0 32 32" fill="none" xmlns="http://www.w3.org/2000/svg">
<g id="Frame">
<path id="Vector" d="M25.8334 25.2714V6.72858C25.8334 5.33209 24.7013 4.20001 23.3048 4.20001H8.69532C7.29883 4.20001 6.16675 5.33209 6.16675 6.72858V25.2714C6.16675 26.6679 7.29883 27.8 8.69532 27.8H23.3048C24.7013 27.8 25.8334 26.6679 25.8334 25.2714Z" stroke="var(--stroke-0, #272729)" stroke-width="1.19844"/>
<path id="Vector_2" d="M21.9704 19.0203V9.46789C21.9704 8.80843 21.4358 8.27384 20.7763 8.27384H11.2239C10.5645 8.27384 10.0299 8.80843 10.0299 9.46789V19.0203C10.0299 19.6797 10.5645 20.2143 11.2239 20.2143H20.7763C21.4358 20.2143 21.9704 19.6797 21.9704 19.0203Z" stroke="var(--stroke-0, #272729)" stroke-width="1.19844"/>
<path id="Vector_3" d="M18.6864 11.8559V17.2291M15.9998 11.8559V15.438M13.3132 11.8559V17.2291" stroke="var(--stroke-0, #272729)" stroke-width="1.19844" stroke-linecap="round"/>
</g>
</svg>
