<svg preserveAspectRatio="none" width="100%" height="100%" overflow="visible" style="display: block;" viewBox="0 0 32 32" fill="none" xmlns="http://www.w3.org/2000/svg">
<g id="Frame">
<g id="Vector">
<mask id="path-1-inside-1_0_27" fill="white">
<path d="M13.7102 4.34348C14.349 3.79906 15.1608 3.50004 16.0001 3.50004C16.8394 3.50004 17.6512 3.79906 18.29 4.34348L19.8762 5.69551C20.0649 5.85646 20.2996 5.95365 20.5469 5.97322L22.6238 6.13796C23.4604 6.20468 24.2459 6.56728 24.8393 7.16073C25.4328 7.75418 25.7954 8.53965 25.8621 9.37625L26.0268 11.4543C26.0466 11.7012 26.1438 11.9355 26.3045 12.1239L27.6566 13.7101C28.201 14.3488 28.5 15.1606 28.5 15.9999C28.5 16.8392 28.201 17.6511 27.6566 18.2898L26.3045 19.876C26.1438 20.0644 26.0466 20.2987 26.0268 20.5456L25.8621 22.6224C25.7954 23.459 25.4328 24.2445 24.8393 24.838C24.2459 25.4314 23.4604 25.794 22.6238 25.8607L20.5457 26.0255C20.2987 26.0456 20.0644 26.1432 19.8762 26.3044L18.29 27.6552C17.6512 28.1996 16.8394 28.4987 16.0001 28.4987C15.1608 28.4987 14.349 28.1996 13.7102 27.6552L12.124 26.3044C11.9356 26.1436 11.7013 26.0465 11.4545 26.0267L9.3776 25.8607C8.54099 25.794 7.75552 25.4314 7.16207 24.838C6.56863 24.2445 6.20602 23.459 6.1393 22.6224L5.97456 20.5456C5.95466 20.2982 5.85705 20.0634 5.69568 19.8748L4.34482 18.2898C3.8004 17.6511 3.50138 16.8392 3.50138 15.9999C3.50138 15.1606 3.8004 14.3488 4.34482 13.7101L5.69568 12.1239C5.85662 11.9351 5.95382 11.7004 5.97338 11.4531L6.1393 9.37625C6.20629 8.53986 6.56901 7.75467 7.16243 7.16146C7.75586 6.56825 8.54118 6.20582 9.3776 6.13913L11.4545 5.97439C11.7017 5.95483 11.9365 5.85763 12.1252 5.69669L13.7102 4.34466V4.34348ZM16.7638 6.13443C16.5509 5.95306 16.2804 5.85345 16.0007 5.85345C15.721 5.85345 15.4505 5.95306 15.2376 6.13443L13.6514 7.48764C13.0856 7.96916 12.3822 8.25988 11.6416 8.31839L9.56469 8.48431C9.28596 8.50663 9.02428 8.62748 8.82655 8.82521C8.62882 9.02293 8.50797 9.28461 8.48565 9.56335L8.31974 11.6414C8.26064 12.3818 7.96952 13.0847 7.48781 13.6501L6.13459 15.2363C5.95322 15.4491 5.85361 15.7197 5.85361 15.9993C5.85361 16.279 5.95322 16.5496 6.13459 16.7624L7.48781 18.3486C7.96975 18.9143 8.26089 19.6177 8.31974 20.3585L8.48448 22.4353C8.50683 22.7143 8.62785 22.9761 8.82582 23.1738C9.02379 23.3716 9.28575 23.4923 9.56469 23.5144L11.6416 23.6803C12.3824 23.7392 13.0857 24.0303 13.6514 24.5122L15.2376 25.8654C15.4505 26.0468 15.721 26.1464 16.0007 26.1464C16.2804 26.1464 16.5509 26.0468 16.7638 25.8654L18.35 24.5122C18.9153 24.0305 19.6182 23.7394 20.3586 23.6803L22.4367 23.5156C22.7156 23.4932 22.9774 23.3722 23.1752 23.1742C23.3729 22.9763 23.4937 22.7143 23.5157 22.4353L23.6805 20.3585C23.7393 19.6171 24.0311 18.9146 24.5136 18.3486L25.8656 16.7624C26.047 16.5496 26.1466 16.279 26.1466 15.9993C26.1466 15.7197 26.047 15.4491 25.8656 15.2363L24.5124 13.6501C24.0311 13.0845 23.7404 12.3817 23.6816 11.6414L23.5157 9.56335C23.4934 9.28461 23.3726 9.02293 23.1748 8.82521C22.9771 8.62748 22.7154 8.50663 22.4367 8.48431L20.3586 8.31957C19.6181 8.26014 18.9152 7.9686 18.35 7.48646L16.7638 6.13443ZM19.329 11.0072L20.9929 12.671L12.6724 20.9927L11.0073 19.3277L19.3278 11.0083L19.329 11.0072ZM13.9197 13.9195C13.7569 14.0881 13.5621 14.2226 13.3468 14.3151C13.1314 14.4076 12.8998 14.4563 12.6654 14.4583C12.4311 14.4603 12.1986 14.4157 11.9817 14.3269C11.7648 14.2382 11.5677 14.1071 11.402 13.9414C11.2363 13.7757 11.1052 13.5786 11.0165 13.3617C10.9277 13.1448 10.8831 12.9123 10.8851 12.678C10.8871 12.4436 10.9358 12.212 11.0283 11.9967C11.1208 11.7813 11.2553 11.5865 11.4239 11.4237C11.7568 11.1022 12.2026 10.9243 12.6654 10.9283C13.1282 10.9323 13.5709 11.118 13.8982 11.4452C14.2254 11.7725 14.4111 12.2152 14.4151 12.678C14.4191 13.1408 14.2412 13.5866 13.9197 13.9195ZM18.0805 20.5761C18.2433 20.7447 18.4381 20.8792 18.6535 20.9717C18.8688 21.0642 19.1004 21.1129 19.3348 21.1149C19.5691 21.117 19.8016 21.0723 20.0185 20.9836C20.2354 20.8948 20.4325 20.7638 20.5982 20.598C20.7639 20.4323 20.895 20.2352 20.9837 20.0183C21.0725 19.8014 21.1171 19.569 21.1151 19.3346C21.1131 19.1002 21.0644 18.8686 20.9719 18.6533C20.8794 18.4379 20.7449 18.2432 20.5763 18.0804C20.2425 17.7644 19.7986 17.5912 19.339 17.5975C18.8794 17.6038 18.4404 17.7891 18.1153 18.114C17.7902 18.4389 17.6047 18.8778 17.5982 19.3374C17.5917 19.797 17.7648 20.241 18.0805 20.575V20.5761Z"/>
</mask>
<path d="M13.7102 4.34348C14.349 3.79906 15.1608 3.50004 16.0001 3.50004C16.8394 3.50004 17.6512 3.79906 18.29 4.34348L19.8762 5.69551C20.0649 5.85646 20.2996 5.95365 20.5469 5.97322L22.6238 6.13796C23.4604 6.20468 24.2459 6.56728 24.8393 7.16073C25.4328 7.75418 25.7954 8.53965 25.8621 9.37625L26.0268 11.4543C26.0466 11.7012 26.1438 11.9355 26.3045 12.1239L27.6566 13.7101C28.201 14.3488 28.5 15.1606 28.5 15.9999C28.5 16.8392 28.201 17.6511 27.6566 18.2898L26.3045 19.876C26.1438 20.0644 26.0466 20.2987 26.0268 20.5456L25.8621 22.6224C25.7954 23.459 25.4328 24.2445 24.8393 24.838C24.2459 25.4314 23.4604 25.794 22.6238 25.8607L20.5457 26.0255C20.2987 26.0456 20.0644 26.1432 19.8762 26.3044L18.29 27.6552C17.6512 28.1996 16.8394 28.4987 16.0001 28.4987C15.1608 28.4987 14.349 28.1996 13.7102 27.6552L12.124 26.3044C11.9356 26.1436 11.7013 26.0465 11.4545 26.0267L9.3776 25.8607C8.54099 25.794 7.75552 25.4314 7.16207 24.838C6.56863 24.2445 6.20602 23.459 6.1393 22.6224L5.97456 20.5456C5.95466 20.2982 5.85705 20.0634 5.69568 19.8748L4.34482 18.2898C3.8004 17.6511 3.50138 16.8392 3.50138 15.9999C3.50138 15.1606 3.8004 14.3488 4.34482 13.7101L5.69568 12.1239C5.85662 11.9351 5.95382 11.7004 5.97338 11.4531L6.1393 9.37625C6.20629 8.53986 6.56901 7.75467 7.16243 7.16146C7.75586 6.56825 8.54118 6.20582 9.3776 6.13913L11.4545 5.97439C11.7017 5.95483 11.9365 5.85763 12.1252 5.69669L13.7102 4.34466V4.34348ZM16.7638 6.13443C16.5509 5.95306 16.2804 5.85345 16.0007 5.85345C15.721 5.85345 15.4505 5.95306 15.2376 6.13443L13.6514 7.48764C13.0856 7.96916 12.3822 8.25988 11.6416 8.31839L9.56469 8.48431C9.28596 8.50663 9.02428 8.62748 8.82655 8.82521C8.62882 9.02293 8.50797 9.28461 8.48565 9.56335L8.31974 11.6414C8.26064 12.3818 7.96952 13.0847 7.48781 13.6501L6.13459 15.2363C5.95322 15.4491 5.85361 15.7197 5.85361 15.9993C5.85361 16.279 5.95322 16.5496 6.13459 16.7624L7.48781 18.3486C7.96975 18.9143 8.26089 19.6177 8.31974 20.3585L8.48448 22.4353C8.50683 22.7143 8.62785 22.9761 8.82582 23.1738C9.02379 23.3716 9.28575 23.4923 9.56469 23.5144L11.6416 23.6803C12.3824 23.7392 13.0857 24.0303 13.6514 24.5122L15.2376 25.8654C15.4505 26.0468 15.721 26.1464 16.0007 26.1464C16.2804 26.1464 16.5509 26.0468 16.7638 25.8654L18.35 24.5122C18.9153 24.0305 19.6182 23.7394 20.3586 23.6803L22.4367 23.5156C22.7156 23.4932 22.9774 23.3722 23.1752 23.1742C23.3729 22.9763 23.4937 22.7143 23.5157 22.4353L23.6805 20.3585C23.7393 19.6171 24.0311 18.9146 24.5136 18.3486L25.8656 16.7624C26.047 16.5496 26.1466 16.279 26.1466 15.9993C26.1466 15.7197 26.047 15.4491 25.8656 15.2363L24.5124 13.6501C24.0311 13.0845 23.7404 12.3817 23.6816 11.6414L23.5157 9.56335C23.4934 9.28461 23.3726 9.02293 23.1748 8.82521C22.9771 8.62748 22.7154 8.50663 22.4367 8.48431L20.3586 8.31957C19.6181 8.26014 18.9152 7.9686 18.35 7.48646L16.7638 6.13443ZM19.329 11.0072L20.9929 12.671L12.6724 20.9927L11.0073 19.3277L19.3278 11.0083L19.329 11.0072ZM13.9197 13.9195C13.7569 14.0881 13.5621 14.2226 13.3468 14.3151C13.1314 14.4076 12.8998 14.4563 12.6654 14.4583C12.4311 14.4603 12.1986 14.4157 11.9817 14.3269C11.7648 14.2382 11.5677 14.1071 11.402 13.9414C11.2363 13.7757 11.1052 13.5786 11.0165 13.3617C10.9277 13.1448 10.8831 12.9123 10.8851 12.678C10.8871 12.4436 10.9358 12.212 11.0283 11.9967C11.1208 11.7813 11.2553 11.5865 11.4239 11.4237C11.7568 11.1022 12.2026 10.9243 12.6654 10.9283C13.1282 10.9323 13.5709 11.118 13.8982 11.4452C14.2254 11.7725 14.4111 12.2152 14.4151 12.678C14.4191 13.1408 14.2412 13.5866 13.9197 13.9195ZM18.0805 20.5761C18.2433 20.7447 18.4381 20.8792 18.6535 20.9717C18.8688 21.0642 19.1004 21.1129 19.3348 21.1149C19.5691 21.117 19.8016 21.0723 20.0185 20.9836C20.2354 20.8948 20.4325 20.7638 20.5982 20.598C20.7639 20.4323 20.895 20.2352 20.9837 20.0183C21.0725 19.8014 21.1171 19.569 21.1151 19.3346C21.1131 19.1002 21.0644 18.8686 20.9719 18.6533C20.8794 18.4379 20.7449 18.2432 20.5763 18.0804C20.2425 17.7644 19.7986 17.5912 19.339 17.5975C18.8794 17.6038 18.4404 17.7891 18.1153 18.114C17.7902 18.4389 17.6047 18.8778 17.5982 19.3374C17.5917 19.797 17.7648 20.241 18.0805 20.575V20.5761Z" fill="var(--fill-0, #272729)" stroke="var(--stroke-0, #F8F8FB)" mask="url(#path-1-inside-1_0_27)"/>
</g>
</g>
</svg>
