<svg preserveAspectRatio="none" width="100%" height="100%" overflow="visible" style="display: block;" viewBox="0 0 25.8662 26.3001" fill="none" xmlns="http://www.w3.org/2000/svg">
<g id="Holapoint">
<ellipse id="Ellipse 15" cx="13.5112" cy="13.9449" rx="12.3549" ry="12.3552" fill="var(--fill-0, #292B2E)"/>
<path id="Ellipse 14" d="M12.3545 0.129883C19.106 0.129883 24.5791 5.60384 24.5791 12.3555C24.5789 19.107 19.1059 24.5801 12.3545 24.5801C5.60331 24.5799 0.13004 19.1068 0.129883 12.3555C0.129883 5.60398 5.60321 0.130111 12.3545 0.129883Z" fill="var(--fill-0, #FFF0AB)" stroke="var(--stroke-0, #292B2E)" stroke-width="0.260559"/>
<path id="Ellipse 16" d="M12.3548 1.50282C18.348 1.50297 23.2064 6.362 23.2064 12.3554C23.2064 18.3487 18.348 23.2077 12.3548 23.2079C6.36151 23.2079 1.5023 18.3488 1.50227 12.3554C1.50227 6.36191 6.3615 1.50282 12.3548 1.50282Z" fill="var(--fill-0, #FFF0AB)" stroke="var(--stroke-0, #292B2E)" stroke-width="0.260559"/>
<g id="Holafly">
<path id="Vector" fill-rule="evenodd" clip-rule="evenodd" d="M11.2888 11.2128C13.4253 11.6393 14.9621 11.4379 15.9508 10.6085V6.45806H17.7918V17.3444H15.9508V12.6791V12.5392C15.1909 12.8973 14.2989 13.0774 13.2667 13.0774C12.6567 13.0774 11.9975 13.0142 11.2888 12.8894V17.3444H9.44852V12.4584C9.20663 12.3891 8.96052 12.3148 8.709 12.2338C7.38913 11.8093 5.69566 12.0168 4.96571 12.3296L4.59651 10.7086C5.65358 10.3432 7.5364 10.1237 9.18708 10.6548C9.27516 10.6831 9.36199 10.7102 9.44852 10.737V6.45806H11.2888V10.9217V11.2128Z" fill="var(--fill-0, #292B2E)"/>
</g>
</g>
</svg>
