<svg preserveAspectRatio="none" width="100%" height="100%" overflow="visible" style="display: block;" viewBox="0 0 20 20" fill="none" xmlns="http://www.w3.org/2000/svg">
<g id="Frame">
<path id="Vector" d="M14.9965 7.99167C16.9402 8.67708 18.3333 10.53 18.3333 12.7083C18.3333 13.5425 18.1283 14.3485 17.7423 15.0685C17.7073 15.1337 17.6448 15.2429 17.5529 15.3998L17.8383 16.4458C17.9654 16.9125 17.5375 17.3406 17.0708 17.2133L16.0231 16.9275L15.9015 16.9992C15.1257 17.4644 14.2379 17.7096 13.3333 17.7083C11.81 17.7083 10.4458 17.0271 9.52855 15.9527C9.16279 16.0121 8.79284 16.0418 8.4223 16.0417C7.18521 16.0417 5.99521 15.7125 4.95605 15.0983C4.92021 15.0771 4.83084 15.0254 4.6898 14.9442L3.11667 15.3671C2.64959 15.4927 2.22292 15.0629 2.35209 14.5969L2.77771 13.0587C2.67125 12.8826 2.5677 12.7047 2.46709 12.5252C1.94065 11.5588 1.66542 10.4755 1.66667 9.375C1.66667 5.69104 4.69334 2.70833 8.4223 2.70833C11.5456 2.70833 14.2423 4.81792 14.9813 7.77271C14.9998 7.84625 15.0042 7.92021 14.9965 7.99146V7.99167ZM13.6663 7.71917C12.9469 5.50854 10.8433 3.95833 8.4223 3.95833C5.37959 3.95833 2.91667 6.38542 2.91667 9.375C2.91667 10.2787 3.14125 11.1492 3.565 11.9277C3.62125 12.031 3.76375 12.2735 3.9873 12.6454C4.03096 12.7181 4.05938 12.7988 4.07084 12.8828C4.0823 12.9668 4.07656 13.0523 4.05396 13.134L3.84855 13.876L4.6148 13.67C4.77449 13.6271 4.94469 13.6492 5.08813 13.7315C5.36688 13.8915 5.53292 13.9873 5.59209 14.0223C6.44933 14.5281 7.42694 14.7939 8.4223 14.7917C8.5425 14.7917 8.6623 14.7879 8.78146 14.7804C8.48515 14.1299 8.33231 13.4232 8.33334 12.7083C8.33334 9.94687 10.5719 7.70833 13.3333 7.70833C13.4452 7.70833 13.5563 7.71208 13.6663 7.71917ZM16.2777 15.4742C16.2557 15.3934 16.2501 15.309 16.2613 15.2261C16.2725 15.1431 16.3003 15.0633 16.3429 14.9912C16.4448 14.8216 16.544 14.6504 16.6406 14.4777C16.9323 13.9336 17.0844 13.3257 17.0833 12.7083C17.0833 10.6373 15.4044 8.95833 13.3333 8.95833C11.2623 8.95833 9.58334 10.6373 9.58334 12.7083C9.58334 14.7794 11.2623 16.4583 13.3333 16.4583C14.0114 16.4596 14.677 16.2759 15.2585 15.9271C15.3017 15.9012 15.4204 15.8319 15.6202 15.7154C15.6919 15.6737 15.7712 15.6467 15.8534 15.6359C15.9356 15.6252 16.0192 15.6309 16.0992 15.6527L16.3446 15.7196L16.2777 15.4742ZM6.45834 8.33333C6.23732 8.33333 6.02536 8.24554 5.86908 8.08926C5.7128 7.93298 5.625 7.72101 5.625 7.5C5.625 7.27899 5.7128 7.06702 5.86908 6.91074C6.02536 6.75446 6.23732 6.66667 6.45834 6.66667C6.67935 6.66667 6.89131 6.75446 7.04759 6.91074C7.20387 7.06702 7.29167 7.27899 7.29167 7.5C7.29167 7.72101 7.20387 7.93298 7.04759 8.08926C6.89131 8.24554 6.67935 8.33333 6.45834 8.33333ZM10.2083 8.33333C9.98732 8.33333 9.77536 8.24554 9.61908 8.08926C9.4628 7.93298 9.375 7.72101 9.375 7.5C9.375 7.27899 9.4628 7.06702 9.61908 6.91074C9.77536 6.75446 9.98732 6.66667 10.2083 6.66667C10.4294 6.66667 10.6413 6.75446 10.7976 6.91074C10.9539 7.06702 11.0417 7.27899 11.0417 7.5C11.0417 7.72101 10.9539 7.93298 10.7976 8.08926C10.6413 8.24554 10.4294 8.33333 10.2083 8.33333ZM11.875 12.2917C11.7092 12.2917 11.5503 12.2258 11.4331 12.1086C11.3159 11.9914 11.25 11.8324 11.25 11.6667C11.25 11.5009 11.3159 11.3419 11.4331 11.2247C11.5503 11.1075 11.7092 11.0417 11.875 11.0417C12.0408 11.0417 12.1997 11.1075 12.3169 11.2247C12.4342 11.3419 12.5 11.5009 12.5 11.6667C12.5 11.8324 12.4342 11.9914 12.3169 12.1086C12.1997 12.2258 12.0408 12.2917 11.875 12.2917ZM14.7917 12.2917C14.6259 12.2917 14.4669 12.2258 14.3497 12.1086C14.2325 11.9914 14.1667 11.8324 14.1667 11.6667C14.1667 11.5009 14.2325 11.3419 14.3497 11.2247C14.4669 11.1075 14.6259 11.0417 14.7917 11.0417C14.9574 11.0417 15.1164 11.1075 15.2336 11.2247C15.3508 11.3419 15.4167 11.5009 15.4167 11.6667C15.4167 11.8324 15.3508 11.9914 15.2336 12.1086C15.1164 12.2258 14.9574 12.2917 14.7917 12.2917Z" fill="var(--fill-0, white)"/>
</g>
</svg>
