<svg width="30" height="30" viewBox="0 0 30 30" fill="none" xmlns="http://www.w3.org/2000/svg">
<rect opacity="0.7" width="30" height="30" rx="15" fill="white"/>
<rect x="0.175" y="0.175" width="29.65" height="29.65" rx="14.825" stroke="#DEDEDE" stroke-width="0.35"/>
<path fill-rule="evenodd" clip-rule="evenodd" d="M14.6466 6.10355C14.8418 5.90829 15.1584 5.90829 15.3537 6.10355L23.4572 14.2071C23.7722 14.5221 23.5491 15.0607 23.1037 15.0607H22.2501V21.5607C22.2501 21.8368 22.0263 22.0607 21.7501 22.0607H8.25011C7.97397 22.0607 7.75011 21.8368 7.75011 21.5607V15.0607H6.89656C6.45111 15.0607 6.22802 14.5221 6.54301 14.2071L14.6466 6.10355ZM9.25011 13.6213V20.5607H14.2501V18.8107H15.7501V20.5607H20.7501V13.6213L15.0001 7.87132L9.25011 13.6213Z" fill="#191919"/>
</svg>
