<svg width="30" height="30" viewBox="0 0 30 30" fill="none" xmlns="http://www.w3.org/2000/svg">
<path d="M0 15C0 6.71573 6.71573 0 15 0V0C23.2843 0 30 6.71573 30 15V15C30 23.2843 23.2843 30 15 30V30C6.71573 30 0 23.2843 0 15V15Z" fill="white"/>
<path d="M6.05602 11.7257C5.76581 12.0097 5.75967 12.4819 6.04376 12.7721L6.05602 12.7843C6.35237 13.0746 6.83267 13.0746 7.12902 12.7843C11.4987 8.49851 18.4987 8.49851 22.8683 12.7843C23.1646 13.0746 23.6449 13.0746 23.9413 12.7843C24.2315 12.5003 24.2376 12.0281 23.9536 11.7379L23.9413 11.7257C18.9728 6.85734 11.0265 6.85734 6.05602 11.7257ZM20.6978 14.0719C17.4727 10.9102 12.308 10.9102 9.08289 14.0719C8.79267 14.356 8.78654 14.8281 9.07062 15.1184L9.08289 15.1306C9.37924 15.4208 9.85953 15.4208 10.1559 15.1306C12.7862 12.5514 17.0006 12.5514 19.633 15.1306C19.9293 15.4208 20.4096 15.4208 20.706 15.1306C20.9962 14.8465 21.0023 14.3744 20.7182 14.0842C20.7039 14.0781 20.7039 14.0719 20.6978 14.0719ZM18.002 16.3733C16.2382 14.6483 13.4198 14.6483 11.6601 16.3733C11.3699 16.6573 11.3638 17.1295 11.6479 17.4197L11.6601 17.4319C11.9565 17.7222 12.4368 17.7222 12.7331 17.4319C13.9022 16.2874 15.7722 16.2874 16.9413 17.4319C17.2376 17.7222 17.7179 17.7222 18.0143 17.4319C18.3045 17.1479 18.3106 16.6757 18.0265 16.3855C18.0143 16.3794 18.0081 16.3733 18.002 16.3733ZM16.4242 20.328C16.4365 19.4369 15.7191 18.6991 14.828 18.6868C13.9369 18.6746 13.1991 19.3919 13.1868 20.283C13.1746 21.1741 13.8919 21.9119 14.783 21.9242H14.8014C15.6946 21.9385 16.4242 21.2211 16.4242 20.328Z" fill="#1EA7E1"/>
</svg>
