<svg width="30" height="30" viewBox="0 0 30 30" fill="none" xmlns="http://www.w3.org/2000/svg">
<path d="M0 15C0 6.71573 6.71573 0 15 0C23.2843 0 30 6.71573 30 15C30 23.2843 23.2843 30 15 30C6.71573 30 0 23.2843 0 15Z" fill="white"/>
<path d="M6.05578 11.7257C5.76556 12.0097 5.75943 12.4819 6.04352 12.7721L6.05578 12.7843C6.35213 13.0746 6.83242 13.0746 7.12877 12.7843C11.4984 8.49851 18.4984 8.49851 22.8681 12.7843C23.1644 13.0746 23.6447 13.0746 23.941 12.7843C24.2313 12.5003 24.2374 12.0281 23.9533 11.7379L23.941 11.7257C18.9726 6.85734 11.0263 6.85734 6.05578 11.7257ZM20.6975 14.0719C17.4724 10.9102 12.3078 10.9102 9.08264 14.0719C8.79242 14.356 8.78629 14.8281 9.07038 15.1184L9.08264 15.1306C9.37899 15.4208 9.85929 15.4208 10.1556 15.1306C12.786 12.5514 17.0003 12.5514 19.6327 15.1306C19.9291 15.4208 20.4094 15.4208 20.7057 15.1306C20.9959 14.8465 21.0021 14.3744 20.718 14.0842C20.7037 14.0781 20.7037 14.0719 20.6975 14.0719ZM18.0018 16.3733C16.238 14.6483 13.4196 14.6483 11.6599 16.3733C11.3697 16.6573 11.3635 17.1295 11.6476 17.4197L11.6599 17.4319C11.9562 17.7222 12.4365 17.7222 12.7329 17.4319C13.9019 16.2874 15.772 16.2874 16.941 17.4319C17.2374 17.7222 17.7177 17.7222 18.014 17.4319C18.3043 17.1479 18.3104 16.6757 18.0263 16.3855C18.014 16.3794 18.0079 16.3733 18.0018 16.3733ZM16.424 20.328C16.4362 19.4369 15.7189 18.6991 14.8278 18.6868C13.9367 18.6746 13.1989 19.3919 13.1866 20.283C13.1743 21.1741 13.8917 21.9119 14.7828 21.9242H14.8012C15.6943 21.9385 16.424 21.2211 16.424 20.328Z" fill="#1EA7E1"/>
</svg>
