<svg preserveAspectRatio="none" width="100%" height="100%" overflow="visible" style="display: block;" viewBox="0 0 24 24" fill="none" xmlns="http://www.w3.org/2000/svg">
<g id="Frame">
<path id="Vector" d="M15 2.5H9C7.34315 2.5 6 3.84315 6 5.5V18.5C6 20.1569 7.34315 21.5 9 21.5H15C16.6569 21.5 18 20.1569 18 18.5V5.5C18 3.84315 16.6569 2.5 15 2.5Z" stroke="var(--stroke-0, #F0464E)" stroke-width="1.5" stroke-linecap="round" stroke-linejoin="round"/>
<path id="Vector_2" d="M10 5.5H14" stroke="var(--stroke-0, #F0464E)" stroke-width="1.5" stroke-linecap="round" stroke-linejoin="round"/>
<path id="Vector_3" d="M12 19.2C12.5523 19.2 13 18.7523 13 18.2C13 17.6477 12.5523 17.2 12 17.2C11.4477 17.2 11 17.6477 11 18.2C11 18.7523 11.4477 19.2 12 19.2Z" fill="var(--fill-0, #F0464E)"/>
</g>
</svg>
