<svg width="40" height="40" viewBox="0 0 40 40" fill="none" xmlns="http://www.w3.org/2000/svg">
<path d="M0 10C0 4.47715 4.47715 0 10 0H30C35.5228 0 40 4.47715 40 10V30C40 35.5228 35.5228 40 30 40H10C4.47715 40 0 35.5228 0 30V10Z" fill="white"/>
<path d="M16.7917 20.4578C18.3101 20.458 19.5414 21.6894 19.5417 23.2078V25.9578C19.5417 27.4764 18.3103 28.7075 16.7917 28.7078H14.0417C12.5231 28.7076 11.2917 27.4764 11.2917 25.9578V23.2078C11.2921 21.6894 12.5233 20.4579 14.0417 20.4578H16.7917ZM24.5837 20.7332C25.0898 20.7334 25.4998 21.144 25.4998 21.6501V23.6667H27.5164C28.0225 23.6668 28.4333 24.0775 28.4333 24.5837C28.4332 25.0898 28.0224 25.4997 27.5164 25.4998H25.4998V27.5164C25.4997 28.0225 25.0898 28.4331 24.5837 28.4333C24.0775 28.4333 23.6668 28.0226 23.6667 27.5164V25.4998H21.6501C21.144 25.4998 20.7333 25.0899 20.7332 24.5837C20.7332 24.0775 21.1439 23.6667 21.6501 23.6667H23.6667V21.6501C23.6667 21.1439 24.0775 20.7332 24.5837 20.7332ZM14.0417 22.2917C13.5358 22.2919 13.126 22.7019 13.1257 23.2078V25.9578C13.1257 26.4639 13.5356 26.8746 14.0417 26.8748H16.7917C17.2978 26.8745 17.7087 26.4639 17.7087 25.9578V23.2078C17.7084 22.7019 17.2976 22.292 16.7917 22.2917H14.0417ZM16.7917 11.2917C18.3102 11.292 19.5416 12.5233 19.5417 14.0417V16.7917C19.5416 18.3102 18.3102 19.5415 16.7917 19.5417H14.0417C12.5232 19.5416 11.2919 18.3103 11.2917 16.7917V14.0417C11.2919 12.5232 12.5232 11.2919 14.0417 11.2917H16.7917ZM25.9578 11.2917C27.4764 11.2917 28.7076 12.5231 28.7078 14.0417V16.7917C28.7076 18.3104 27.4764 19.5417 25.9578 19.5417H23.2078C21.6894 19.5414 20.458 18.3102 20.4578 16.7917V14.0417C20.4579 12.5233 21.6894 11.2921 23.2078 11.2917H25.9578ZM14.0417 13.1257C13.5357 13.1259 13.1259 13.5357 13.1257 14.0417V16.7917C13.1259 17.2977 13.5358 17.7086 14.0417 17.7087H16.7917C17.2977 17.7085 17.7086 17.2977 17.7087 16.7917V14.0417C17.7086 13.5358 17.2977 13.126 16.7917 13.1257H14.0417ZM23.2078 13.1257C22.7019 13.126 22.2919 13.5358 22.2917 14.0417V16.7917C22.2919 17.2977 22.7019 17.7084 23.2078 17.7087H25.9578C26.4639 17.7087 26.8746 17.2978 26.8748 16.7917V14.0417C26.8746 13.5356 26.4639 13.1257 25.9578 13.1257H23.2078Z" fill="#E6485C"/>
</svg>
