<svg width="16" height="16" viewBox="0 0 16 16" fill="none" xmlns="http://www.w3.org/2000/svg">
<g id="Frame">
<g id="Union">
<mask id="path-1-inside-1_0_120" fill="white">
<path d="M7.99722 6.59961C8.30269 6.60277 8.59851 6.70645 8.84 6.89355C9.08153 7.0807 9.25579 7.34165 9.33511 7.63672C9.41433 7.93166 9.39451 8.24445 9.27945 8.52734C9.16434 8.81028 8.96008 9.04821 8.69742 9.2041V15H7.29703V9.2041C7.03424 9.04821 6.83014 8.81036 6.715 8.52734C6.59988 8.24438 6.58007 7.93173 6.65933 7.63672C6.73861 7.3418 6.91213 7.08068 7.15347 6.89355C7.395 6.70641 7.69169 6.60273 7.99722 6.59961ZM7.99722 1C9.52093 1.01362 10.999 1.52434 12.2062 2.4541C13.4132 3.38382 14.2844 4.68185 14.6867 6.15137C15.089 7.62114 15.0002 9.18263 14.4347 10.5977C13.8692 12.0126 12.8573 13.2045 11.5529 13.9922L10.8527 12.7949C11.9038 12.1655 12.7197 11.2087 13.175 10.0713C13.6301 8.93396 13.6997 7.67878 13.3732 6.49805C13.0467 5.31729 12.3422 4.27608 11.3673 3.53418C10.3924 2.79227 9.20084 2.39062 7.97574 2.39062C6.75085 2.39069 5.55989 2.79245 4.58511 3.53418C3.6102 4.2761 2.90479 5.31725 2.57828 6.49805C2.25179 7.67881 2.32226 8.93394 2.7775 10.0713C3.23272 11.2086 4.04782 12.1655 5.09878 12.7949L4.39859 13.9922C3.09135 13.2026 2.07843 12.0069 1.51382 10.5879C0.949214 9.16878 0.864039 7.60375 1.27164 6.13184C1.67928 4.65988 2.5574 3.36109 3.77164 2.43457C4.98582 1.5082 6.47 1.00453 7.99722 1ZM8.02554 3.79395C8.76025 3.79893 9.48094 3.99664 10.1154 4.36719C10.7496 4.73768 11.2755 5.26799 11.6408 5.90527C12.0061 6.54279 12.1985 7.26525 12.1974 8C12.192 8.7291 11.9967 9.44439 11.631 10.0752C11.2653 10.7059 10.7414 11.2306 10.1115 11.5977L9.41128 10.3945C9.93753 10.0804 10.346 9.60191 10.5744 9.0332C10.8027 8.46444 10.8379 7.83597 10.675 7.24512C10.512 6.65447 10.1604 6.13298 9.673 5.76172C9.18541 5.39037 8.58864 5.18945 7.97574 5.18945C7.363 5.18952 6.76694 5.3905 6.27945 5.76172C5.79192 6.13301 5.43947 6.65436 5.27652 7.24512C5.1136 7.83597 5.1497 8.46444 5.37808 9.0332C5.60648 9.60185 6.01496 10.0805 6.54117 10.3945L5.84097 11.5977C5.21059 11.2205 4.68978 10.6851 4.33121 10.0439C3.97259 9.40264 3.78823 8.67807 3.79703 7.94336C3.80583 7.20869 4.00718 6.48895 4.38101 5.85645C4.75485 5.22397 5.28855 4.70083 5.92789 4.33887C6.56731 3.9769 7.29079 3.78898 8.02554 3.79395Z"/>
</mask>
<path d="M7.99722 6.59961C8.30269 6.60277 8.59851 6.70645 8.84 6.89355C9.08153 7.0807 9.25579 7.34165 9.33511 7.63672C9.41433 7.93166 9.39451 8.24445 9.27945 8.52734C9.16434 8.81028 8.96008 9.04821 8.69742 9.2041V15H7.29703V9.2041C7.03424 9.04821 6.83014 8.81036 6.715 8.52734C6.59988 8.24438 6.58007 7.93173 6.65933 7.63672C6.73861 7.3418 6.91213 7.08068 7.15347 6.89355C7.395 6.70641 7.69169 6.60273 7.99722 6.59961ZM7.99722 1C9.52093 1.01362 10.999 1.52434 12.2062 2.4541C13.4132 3.38382 14.2844 4.68185 14.6867 6.15137C15.089 7.62114 15.0002 9.18263 14.4347 10.5977C13.8692 12.0126 12.8573 13.2045 11.5529 13.9922L10.8527 12.7949C11.9038 12.1655 12.7197 11.2087 13.175 10.0713C13.6301 8.93396 13.6997 7.67878 13.3732 6.49805C13.0467 5.31729 12.3422 4.27608 11.3673 3.53418C10.3924 2.79227 9.20084 2.39062 7.97574 2.39062C6.75085 2.39069 5.55989 2.79245 4.58511 3.53418C3.6102 4.2761 2.90479 5.31725 2.57828 6.49805C2.25179 7.67881 2.32226 8.93394 2.7775 10.0713C3.23272 11.2086 4.04782 12.1655 5.09878 12.7949L4.39859 13.9922C3.09135 13.2026 2.07843 12.0069 1.51382 10.5879C0.949214 9.16878 0.864039 7.60375 1.27164 6.13184C1.67928 4.65988 2.5574 3.36109 3.77164 2.43457C4.98582 1.5082 6.47 1.00453 7.99722 1ZM8.02554 3.79395C8.76025 3.79893 9.48094 3.99664 10.1154 4.36719C10.7496 4.73768 11.2755 5.26799 11.6408 5.90527C12.0061 6.54279 12.1985 7.26525 12.1974 8C12.192 8.7291 11.9967 9.44439 11.631 10.0752C11.2653 10.7059 10.7414 11.2306 10.1115 11.5977L9.41128 10.3945C9.93753 10.0804 10.346 9.60191 10.5744 9.0332C10.8027 8.46444 10.8379 7.83597 10.675 7.24512C10.512 6.65447 10.1604 6.13298 9.673 5.76172C9.18541 5.39037 8.58864 5.18945 7.97574 5.18945C7.363 5.18952 6.76694 5.3905 6.27945 5.76172C5.79192 6.13301 5.43947 6.65436 5.27652 7.24512C5.1136 7.83597 5.1497 8.46444 5.37808 9.0332C5.60648 9.60185 6.01496 10.0805 6.54117 10.3945L5.84097 11.5977C5.21059 11.2205 4.68978 10.6851 4.33121 10.0439C3.97259 9.40264 3.78823 8.67807 3.79703 7.94336C3.80583 7.20869 4.00718 6.48895 4.38101 5.85645C4.75485 5.22397 5.28855 4.70083 5.92789 4.33887C6.56731 3.9769 7.29079 3.78898 8.02554 3.79395Z" fill="var(--fill-0, #292B2E)"/>
<path d="M7.99722 6.59961L7.99877 6.44959L7.99569 6.44962L7.99722 6.59961ZM8.84 6.89355L8.93187 6.77498V6.77498L8.84 6.89355ZM9.33511 7.63672L9.47998 7.59781L9.47997 7.59778L9.33511 7.63672ZM9.27945 8.52734L9.41839 8.58387L9.4184 8.58386L9.27945 8.52734ZM8.69742 9.2041L8.62086 9.07511L8.54742 9.1187V9.2041H8.69742ZM8.69742 15V15.15H8.84742V15H8.69742ZM7.29703 15H7.14703V15.15H7.29703V15ZM7.29703 9.2041H7.44703V9.11868L7.37356 9.07509L7.29703 9.2041ZM6.715 8.52734L6.57605 8.58387L6.57605 8.58387L6.715 8.52734ZM6.65933 7.63672L6.51447 7.59778L6.51447 7.5978L6.65933 7.63672ZM7.15347 6.89355L7.0616 6.77498L7.06156 6.77501L7.15347 6.89355ZM7.99722 1L7.99856 0.849995L7.99678 0.850001L7.99722 1ZM12.2062 2.4541L12.2977 2.33527L12.2977 2.33526L12.2062 2.4541ZM14.6867 6.15137L14.8314 6.11177L14.8314 6.11176L14.6867 6.15137ZM14.4347 10.5977L14.574 10.6533L14.574 10.6533L14.4347 10.5977ZM11.5529 13.9922L11.4234 14.0679L11.5002 14.1992L11.6304 14.1206L11.5529 13.9922ZM10.8527 12.7949L10.7756 12.6662L10.6483 12.7425L10.7232 12.8706L10.8527 12.7949ZM13.175 10.0713L13.3142 10.127L13.3142 10.127L13.175 10.0713ZM13.3732 6.49805L13.5178 6.45807V6.45807L13.3732 6.49805ZM11.3673 3.53418L11.4582 3.41481L11.4582 3.41481L11.3673 3.53418ZM7.97574 2.39062V2.24063H7.97573L7.97574 2.39062ZM4.58511 3.53418L4.49428 3.41481L4.49427 3.41481L4.58511 3.53418ZM2.57828 6.49805L2.4337 6.45807L2.4337 6.45807L2.57828 6.49805ZM2.7775 10.0713L2.63824 10.127L2.63824 10.127L2.7775 10.0713ZM5.09878 12.7949L5.22827 12.8706L5.30321 12.7425L5.17585 12.6662L5.09878 12.7949ZM4.39859 13.9922L4.32104 14.1206L4.45127 14.1992L4.52807 14.0679L4.39859 13.9922ZM1.51382 10.5879L1.37445 10.6433L1.37445 10.6433L1.51382 10.5879ZM1.27164 6.13184L1.12708 6.0918L1.12708 6.0918L1.27164 6.13184ZM3.77164 2.43457L3.68065 2.31532L3.68064 2.31532L3.77164 2.43457ZM8.02554 3.79395L8.02656 3.64395H8.02656L8.02554 3.79395ZM10.1154 4.36719L10.191 4.23767L10.191 4.23766L10.1154 4.36719ZM11.6408 5.90527L11.7709 5.8307L11.7709 5.83068L11.6408 5.90527ZM12.1974 8L12.3474 8.00112L12.3474 8.00023L12.1974 8ZM11.631 10.0752L11.7608 10.1504L11.7608 10.1504L11.631 10.0752ZM10.1115 11.5977L9.98184 11.6731L10.0573 11.8028L10.187 11.7273L10.1115 11.5977ZM9.41128 10.3945L9.33441 10.2657L9.20702 10.3418L9.28164 10.47L9.41128 10.3945ZM10.5744 9.0332L10.7136 9.0891L10.7136 9.0891L10.5744 9.0332ZM10.675 7.24512L10.8196 7.20525L10.8196 7.20522L10.675 7.24512ZM9.673 5.76172L9.76389 5.64239L9.76389 5.64239L9.673 5.76172ZM7.97574 5.18945V5.03945H7.97572L7.97574 5.18945ZM6.27945 5.76172L6.18857 5.64238L6.18857 5.64239L6.27945 5.76172ZM5.27652 7.24512L5.13192 7.20523L5.13192 7.20525L5.27652 7.24512ZM5.37808 9.0332L5.23888 9.0891L5.23889 9.08911L5.37808 9.0332ZM6.54117 10.3945L6.67081 10.47L6.74543 10.3418L6.61804 10.2657L6.54117 10.3945ZM5.84097 11.5977L5.76396 11.7264L5.89425 11.8043L5.97061 11.6731L5.84097 11.5977ZM4.33121 10.0439L4.20029 10.1172L4.20029 10.1172L4.33121 10.0439ZM3.79703 7.94336L3.64704 7.94156L3.64704 7.94156L3.79703 7.94336ZM4.38101 5.85645L4.25188 5.78012L4.25188 5.78012L4.38101 5.85645ZM5.92789 4.33887L5.85399 4.20833L5.85398 4.20833L5.92789 4.33887ZM7.99722 6.59961L7.99567 6.7496C8.26815 6.75242 8.53231 6.84491 8.74812 7.01213L8.84 6.89355L8.93187 6.77498C8.66472 6.56799 8.33722 6.45312 7.99877 6.44962L7.99722 6.59961ZM8.84 6.89355L8.74812 7.01213C8.96392 7.17933 9.11948 7.41238 9.19026 7.67566L9.33511 7.63672L9.47997 7.59778C9.3921 7.27091 9.19913 6.98206 8.93187 6.77498L8.84 6.89355ZM9.33511 7.63672L9.19025 7.67563C9.26094 7.93883 9.24329 8.21811 9.1405 8.47083L9.27945 8.52734L9.4184 8.58386C9.54573 8.27079 9.56772 7.9245 9.47998 7.59781L9.33511 7.63672ZM9.27945 8.52734L9.14051 8.47082C9.03768 8.72358 8.85525 8.936 8.62086 9.07511L8.69742 9.2041L8.77397 9.33309C9.06491 9.16042 9.29101 8.89698 9.41839 8.58387L9.27945 8.52734ZM8.69742 9.2041H8.54742V15H8.69742H8.84742V9.2041H8.69742ZM8.69742 15V14.85H7.29703V15V15.15H8.69742V15ZM7.29703 15H7.44703V9.2041H7.29703H7.14703V15H7.29703ZM7.29703 9.2041L7.37356 9.07509C7.13909 8.936 6.95681 8.72368 6.85394 8.47082L6.715 8.52734L6.57605 8.58387C6.70346 8.89704 6.9294 9.16042 7.2205 9.33311L7.29703 9.2041ZM6.715 8.52734L6.85394 8.47082C6.7511 8.21804 6.73346 7.93891 6.80419 7.67564L6.65933 7.63672L6.51447 7.5978C6.42668 7.92456 6.44866 8.27073 6.57605 8.58387L6.715 8.52734ZM6.65933 7.63672L6.80419 7.67566C6.87499 7.41229 7.02994 7.17914 7.24538 7.0121L7.15347 6.89355L7.06156 6.77501C6.79433 6.98221 6.60224 7.2713 6.51447 7.59778L6.65933 7.63672ZM7.15347 6.89355L7.24534 7.01213C7.46113 6.84493 7.72612 6.75238 7.99875 6.7496L7.99722 6.59961L7.99569 6.44962C7.65726 6.45307 7.32888 6.56789 7.0616 6.77498L7.15347 6.89355ZM7.99722 1L7.99588 1.14999C9.48693 1.16332 10.9333 1.6631 12.1147 2.57294L12.2062 2.4541L12.2977 2.33526C11.0646 1.38559 9.55493 0.863916 7.99856 0.850006L7.99722 1ZM12.2062 2.4541L12.1147 2.57294C13.2959 3.48275 14.1483 4.75297 14.542 6.19097L14.6867 6.15137L14.8314 6.11176C14.4204 4.61073 13.5306 3.28489 12.2977 2.33527L12.2062 2.4541ZM14.6867 6.15137L14.542 6.19097C14.9357 7.62922 14.8488 9.15726 14.2954 10.542L14.4347 10.5977L14.574 10.6533C15.1516 9.208 15.2423 7.61307 14.8314 6.11177L14.6867 6.15137ZM14.4347 10.5977L14.2954 10.542C13.742 11.9266 12.7518 13.093 11.4753 13.8638L11.5529 13.9922L11.6304 14.1206C12.9628 13.3161 13.9964 12.0986 14.574 10.6533L14.4347 10.5977ZM11.5529 13.9922L11.6824 13.9165L10.9822 12.7192L10.8527 12.7949L10.7232 12.8706L11.4234 14.0679L11.5529 13.9922ZM10.8527 12.7949L10.9298 12.9236C12.009 12.2774 12.8468 11.2949 13.3142 10.127L13.175 10.0713L13.0357 10.0155C12.5926 11.1225 11.7986 12.0537 10.7756 12.6662L10.8527 12.7949ZM13.175 10.0713L13.3142 10.127C13.7816 8.95922 13.853 7.67042 13.5178 6.45807L13.3732 6.49805L13.2286 6.53802C13.5464 7.68715 13.4787 8.9087 13.0357 10.0156L13.175 10.0713ZM13.3732 6.49805L13.5178 6.45807C13.1825 5.2457 12.4592 4.1766 11.4582 3.41481L11.3673 3.53418L11.2765 3.65355C12.2253 4.37556 12.9108 5.38887 13.2286 6.53803L13.3732 6.49805ZM11.3673 3.53418L11.4582 3.41481C10.4571 2.65302 9.23363 2.24063 7.97574 2.24063V2.39062V2.54062C9.16804 2.54062 10.3277 2.93152 11.2765 3.65355L11.3673 3.53418ZM7.97574 2.39062L7.97573 2.24063C6.71802 2.24069 5.49516 2.65322 4.49428 3.41481L4.58511 3.53418L4.67594 3.65355C5.62462 2.93168 6.78367 2.54069 7.97575 2.54062L7.97574 2.39062ZM4.58511 3.53418L4.49427 3.41481C3.49329 4.17657 2.76897 5.2456 2.4337 6.45807L2.57828 6.49805L2.72285 6.53802C3.0406 5.38891 3.72712 4.37562 4.67595 3.65355L4.58511 3.53418ZM2.57828 6.49805L2.4337 6.45807C2.09846 7.67052 2.17084 8.95928 2.63824 10.127L2.7775 10.0713L2.91675 10.0155C2.47369 8.90861 2.40513 7.68709 2.72285 6.53802L2.57828 6.49805ZM2.7775 10.0713L2.63824 10.127C3.10563 11.2947 3.94256 12.2773 5.02172 12.9236L5.09878 12.7949L5.17585 12.6662C4.15308 12.0537 3.3598 11.1224 2.91675 10.0155L2.7775 10.0713ZM5.09878 12.7949L4.9693 12.7192L4.26911 13.9165L4.39859 13.9922L4.52807 14.0679L5.22827 12.8706L5.09878 12.7949ZM4.39859 13.9922L4.47614 13.8638C3.19694 13.0912 2.20572 11.921 1.6532 10.5324L1.51382 10.5879L1.37445 10.6433C1.95115 12.0927 2.98576 13.3141 4.32104 14.1206L4.39859 13.9922ZM1.51382 10.5879L1.6532 10.5324C1.10068 9.14372 1.01734 7.61222 1.4162 6.17187L1.27164 6.13184L1.12708 6.0918C0.710741 7.59527 0.797746 9.19383 1.37445 10.6433L1.51382 10.5879ZM1.27164 6.13184L1.41619 6.17187C1.8151 4.73145 2.67442 3.46048 3.86263 2.55382L3.77164 2.43457L3.68064 2.31532C2.44038 3.2617 1.54345 4.58832 1.12708 6.0918L1.27164 6.13184ZM3.77164 2.43457L3.86262 2.55382C5.05077 1.64732 6.50315 1.15444 7.99767 1.15L7.99722 1L7.99678 0.850001C6.43685 0.854631 4.92087 1.36908 3.68065 2.31532L3.77164 2.43457ZM8.02554 3.79395L8.02452 3.94394C8.73299 3.94875 9.42795 4.1394 10.0397 4.49671L10.1154 4.36719L10.191 4.23766C9.53394 3.85389 8.78751 3.64911 8.02656 3.64395L8.02554 3.79395ZM10.1154 4.36719L10.0397 4.49671C10.6513 4.85396 11.1584 5.36534 11.5106 5.97986L11.6408 5.90527L11.7709 5.83068C11.3926 5.17065 10.848 4.62139 10.191 4.23767L10.1154 4.36719ZM11.6408 5.90527L11.5106 5.97985C11.8629 6.59468 12.0485 7.29136 12.0474 7.99977L12.1974 8L12.3474 8.00023C12.3486 7.23913 12.1492 6.49089 11.7709 5.8307L11.6408 5.90527ZM12.1974 8L12.0474 7.99888C12.0422 8.70193 11.8538 9.39168 11.5012 9.99997L11.631 10.0752L11.7608 10.1504C12.1395 9.4971 12.3418 8.75628 12.3474 8.00112L12.1974 8ZM11.631 10.0752L11.5012 9.99996C11.1487 10.6081 10.6434 11.1141 10.036 11.4681L10.1115 11.5977L10.187 11.7273C10.8394 11.3472 11.382 10.8037 11.7608 10.1504L11.631 10.0752ZM10.1115 11.5977L10.2411 11.5222L9.54093 10.3191L9.41128 10.3945L9.28164 10.47L9.98184 11.6731L10.1115 11.5977ZM9.41128 10.3945L9.48816 10.5233C10.0427 10.1924 10.473 9.6882 10.7136 9.0891L10.5744 9.0332L10.4352 8.9773C10.219 9.51562 9.83239 9.96851 9.33441 10.2657L9.41128 10.3945ZM10.5744 9.0332L10.7136 9.0891C10.9542 8.48981 10.9912 7.82769 10.8196 7.20525L10.675 7.24512L10.5304 7.28499C10.6846 7.84425 10.6513 8.43907 10.4352 8.97731L10.5744 9.0332ZM10.675 7.24512L10.8196 7.20522C10.6479 6.58308 10.2776 6.03363 9.76389 5.64239L9.673 5.76172L9.58212 5.88105C10.0433 6.23233 10.3761 6.72586 10.5304 7.28501L10.675 7.24512ZM9.673 5.76172L9.76389 5.64239C9.25011 5.2511 8.6214 5.03945 7.97574 5.03945V5.18945V5.33945C8.55588 5.33945 9.1207 5.52964 9.58212 5.88105L9.673 5.76172ZM7.97574 5.18945L7.97572 5.03945C7.33019 5.03952 6.7022 5.25126 6.18857 5.64238L6.27945 5.76172L6.37032 5.88106C6.83168 5.52974 7.39582 5.33952 7.97575 5.33945L7.97574 5.18945ZM6.27945 5.76172L6.18857 5.64239C5.67491 6.03358 5.30359 6.58284 5.13192 7.20523L5.27652 7.24512L5.42112 7.285C5.57534 6.72589 5.90892 6.23245 6.37033 5.88105L6.27945 5.76172ZM5.27652 7.24512L5.13192 7.20525C4.96024 7.82786 4.99831 8.48996 5.23888 9.0891L5.37808 9.0332L5.51728 8.97731C5.3011 8.43892 5.26696 7.84408 5.42112 7.28499L5.27652 7.24512ZM5.37808 9.0332L5.23889 9.08911C5.47949 9.68814 5.90982 10.1924 6.46429 10.5233L6.54117 10.3945L6.61804 10.2657C6.1201 9.96854 5.73347 9.51556 5.51727 8.9773L5.37808 9.0332ZM6.54117 10.3945L6.41152 10.3191L5.71133 11.5222L5.84097 11.5977L5.97061 11.6731L6.67081 10.47L6.54117 10.3945ZM5.84097 11.5977L5.91798 11.4689C5.31005 11.1052 4.80785 10.5889 4.46212 9.97073L4.33121 10.0439L4.20029 10.1172C4.5717 10.7812 5.11114 11.3358 5.76396 11.7264L5.84097 11.5977ZM4.33121 10.0439L4.46213 9.97074C4.11631 9.35231 3.93853 8.6536 3.94702 7.94516L3.79703 7.94336L3.64704 7.94156C3.63792 8.70253 3.82887 9.45297 4.20029 10.1172L4.33121 10.0439ZM3.79703 7.94336L3.94702 7.94516C3.9555 7.23671 4.14967 6.54267 4.51014 5.93277L4.38101 5.85645L4.25188 5.78012C3.86469 6.43523 3.65615 7.18066 3.64704 7.94156L3.79703 7.94336ZM4.38101 5.85645L4.51014 5.93277C4.8706 5.32295 5.38522 4.81847 6.00179 4.4694L5.92789 4.33887L5.85398 4.20833C5.19187 4.58319 4.63911 5.125 4.25188 5.78012L4.38101 5.85645ZM5.92789 4.33887L6.00178 4.4694C6.61837 4.12037 7.31601 3.93916 8.02453 3.94394L8.02554 3.79395L8.02656 3.64395C7.26556 3.63881 6.51626 3.83343 5.85399 4.20833L5.92789 4.33887Z" fill="var(--stroke-0, #F8F8FB)" mask="url(#path-1-inside-1_0_120)"/>
</g>
</g>
</svg>
