<svg preserveAspectRatio="none" width="100%" height="100%" overflow="visible" style="display: block;" viewBox="0 0 20 20" fill="none" xmlns="http://www.w3.org/2000/svg">
<g id="Frame">
<path id="Vector" d="M16.6667 16.2857V3.71431C16.6667 2.76753 15.8992 2.00002 14.9524 2.00002H5.04762C4.10084 2.00002 3.33333 2.76753 3.33333 3.71431V16.2857C3.33333 17.2325 4.10084 18 5.04762 18H14.9524C15.8992 18 16.6667 17.2325 16.6667 16.2857Z" stroke="var(--stroke-0, #292B2E)" stroke-width="1.08333"/>
<path id="Vector_2" d="M14.0476 12.0476V5.57144C14.0476 5.12435 13.6852 4.76191 13.2381 4.76191H6.76188C6.3148 4.76191 5.95236 5.12435 5.95236 5.57144V12.0476C5.95236 12.4947 6.3148 12.8571 6.76188 12.8571H13.2381C13.6852 12.8571 14.0476 12.4947 14.0476 12.0476Z" stroke="var(--stroke-0, #292B2E)" stroke-width="1.08333"/>
<path id="Vector_3" d="M11.8214 7.19048V10.8333M9.99996 7.19048V9.61905M8.17853 7.19048V10.8333" stroke="var(--stroke-0, #292B2E)" stroke-width="1.08333" stroke-linecap="round"/>
</g>
</svg>
