<svg width="20" height="20" viewBox="0 0 24 24" fill="none" xmlns="http://www.w3.org/2000/svg">
<path d="M20 19.5429V4.45716C20 3.32103 19.079 2.40002 17.9429 2.40002H6.05714C4.92101 2.40002 4 3.32103 4 4.45716V19.5429C4 20.679 4.92101 21.6 6.05714 21.6H17.9429C19.079 21.6 20 20.679 20 19.5429Z" stroke="#292B2E" stroke-width="1.3"/>
<path d="M16.8571 14.4572V6.68572C16.8571 6.14922 16.4222 5.71429 15.8857 5.71429H8.11426C7.57775 5.71429 7.14283 6.14922 7.14283 6.68572V14.4572C7.14283 14.9937 7.57775 15.4286 8.11426 15.4286H15.8857C16.4222 15.4286 16.8571 14.9937 16.8571 14.4572Z" stroke="#292B2E" stroke-width="1.3"/>
<path d="M14.1857 8.62857V13M12 8.62857V11.5429M9.81424 8.62857V13" stroke="#292B2E" stroke-width="1.3" stroke-linecap="round"/>
</svg>
