<svg width="32" height="32" viewBox="0 0 32 32" fill="none" xmlns="http://www.w3.org/2000/svg">
<g id="Frame">
<g id="Vector">
<mask id="path-1-inside-1_0_83" fill="white">
<path d="M16 3.33338C20.414 3.33338 24.122 6.35605 25.1673 10.4441C26.2763 10.5292 27.3149 11.0206 28.0839 11.8242C28.853 12.6278 29.2984 13.6869 29.3347 14.7986C29.371 15.9103 28.9958 16.9963 28.2809 17.8483C27.566 18.7004 26.5617 19.2587 25.4607 19.416L25.462 19.2474C25.462 23.8547 22.1687 27.6927 17.8087 28.5367C17.4737 28.7899 17.0652 28.9266 16.6453 28.926H15.3547C14.8413 28.926 14.3489 28.7221 13.9859 28.3591C13.6229 27.9961 13.419 27.5038 13.419 26.9904C13.419 26.477 13.6229 25.9847 13.9859 25.6217C14.3489 25.2587 14.8413 25.0547 15.3547 25.0547H16.6453C17.4173 25.0547 18.0833 25.506 18.3947 26.16C21.2 25.1887 23.2307 22.5567 23.3113 19.4394L23.3133 19.2474V12.7954C23.3133 8.75605 20.0393 5.48205 16 5.48205C12.0247 5.48205 8.79065 8.65338 8.68865 12.6034L8.68665 12.7954V19.3087L7.74532 19.4267C6.56687 19.5236 5.39744 19.1543 4.48831 18.3982C3.57919 17.6422 3.00291 16.5597 2.8833 15.3833C2.76369 14.2069 3.1103 13.0306 3.84864 12.107C4.58699 11.1835 5.65816 10.5864 6.83199 10.4441C7.87799 6.35605 11.5853 3.33338 16 3.33338ZM17.2667 12.0001C17.4299 12.0001 17.5875 12.06 17.7096 12.1685C17.8316 12.277 17.9095 12.4265 17.9287 12.5887L17.9327 12.6667V14.7174H19.3713V12.7661C19.3713 12.5892 19.4416 12.4197 19.5666 12.2946C19.6916 12.1696 19.8612 12.0994 20.038 12.0994H20.7047C20.7922 12.0994 20.8789 12.1166 20.9598 12.1501C21.0407 12.1836 21.1142 12.2327 21.1761 12.2946C21.238 12.3566 21.2871 12.43 21.3206 12.5109C21.3541 12.5918 21.3713 12.6785 21.3713 12.7661V19.0001C21.3713 19.0876 21.3541 19.1743 21.3206 19.2552C21.2871 19.3361 21.238 19.4095 21.1761 19.4715C21.1142 19.5334 21.0407 19.5825 20.9598 19.616C20.8789 19.6495 20.7922 19.6667 20.7047 19.6667H20.038C19.8612 19.6667 19.6916 19.5965 19.5666 19.4715C19.4416 19.3464 19.3713 19.1769 19.3713 19.0001V16.7174H16.6C16.5124 16.7174 16.4257 16.7001 16.3449 16.6666C16.264 16.6331 16.1905 16.584 16.1286 16.5221C16.0667 16.4602 16.0176 16.3867 15.9841 16.3058C15.9506 16.225 15.9333 16.1383 15.9333 16.0507V12.6667C15.9333 12.4899 16.0036 12.3203 16.1286 12.1953C16.2536 12.0703 16.4232 12.0001 16.6 12.0001H17.2667ZM14.2813 12.1667C14.3689 12.1667 14.4556 12.184 14.5364 12.2175C14.6173 12.251 14.6908 12.3001 14.7527 12.362C14.8146 12.4239 14.8637 12.4974 14.8972 12.5783C14.9307 12.6591 14.948 12.7458 14.948 12.8334V16.2501C14.9479 16.4134 14.8879 16.5711 14.7793 16.6932C14.6706 16.8152 14.5209 16.8931 14.3587 16.9121L14.2813 16.9167L11.9993 16.9161V17.6661H14.2813C14.3689 17.6661 14.4557 17.6833 14.5366 17.7169C14.6175 17.7504 14.691 17.7996 14.753 17.8615C14.8149 17.9235 14.864 17.9971 14.8974 18.0781C14.9309 18.159 14.9481 18.2458 14.948 18.3334V19.0001C14.948 19.1769 14.8777 19.3464 14.7527 19.4715C14.6277 19.5965 14.4581 19.6667 14.2813 19.6667H10.6667C10.4898 19.6667 10.3203 19.5965 10.1952 19.4715C10.0702 19.3464 9.99999 19.1769 9.99999 19.0001V15.5834C9.99999 15.4958 10.0172 15.4091 10.0507 15.3283C10.0842 15.2474 10.1333 15.1739 10.1952 15.112C10.2572 15.0501 10.3306 15.001 10.4115 14.9675C10.4924 14.934 10.5791 14.9167 10.6667 14.9167L12.9473 14.9161V14.1661H10.6673C10.5039 14.1662 10.3462 14.1063 10.224 13.9978C10.1018 13.8893 10.0238 13.7397 10.0047 13.5774L9.99999 13.5001V12.8334C9.99999 12.7458 10.0172 12.6591 10.0507 12.5783C10.0842 12.4974 10.1333 12.4239 10.1952 12.362C10.2572 12.3001 10.3306 12.251 10.4115 12.2175C10.4924 12.184 10.5791 12.1667 10.6667 12.1667H14.2813ZM25.462 12.6681V17.2227L25.5433 17.2001C25.9776 17.0598 26.3622 16.797 26.6508 16.4434C26.9394 16.0898 27.1196 15.6604 27.17 15.2067L27.1813 15.072L27.1847 14.9461C27.1847 13.9361 26.5513 13.0734 25.6607 12.7341L25.5433 12.6927L25.462 12.6681ZM6.53799 12.6681L6.45665 12.6927C5.97991 12.8464 5.56418 13.1474 5.26926 13.5523C4.97434 13.9572 4.81541 14.4451 4.81532 14.9461L4.81865 15.072C4.84421 15.5509 5.01448 16.0106 5.30695 16.3906C5.59942 16.7706 6.00032 17.0528 6.45665 17.2001L6.53799 17.2227V12.6681Z"/>
</mask>
<path d="M16 3.33338C20.414 3.33338 24.122 6.35605 25.1673 10.4441C26.2763 10.5292 27.3149 11.0206 28.0839 11.8242C28.853 12.6278 29.2984 13.6869 29.3347 14.7986C29.371 15.9103 28.9958 16.9963 28.2809 17.8483C27.566 18.7004 26.5617 19.2587 25.4607 19.416L25.462 19.2474C25.462 23.8547 22.1687 27.6927 17.8087 28.5367C17.4737 28.7899 17.0652 28.9266 16.6453 28.926H15.3547C14.8413 28.926 14.3489 28.7221 13.9859 28.3591C13.6229 27.9961 13.419 27.5038 13.419 26.9904C13.419 26.477 13.6229 25.9847 13.9859 25.6217C14.3489 25.2587 14.8413 25.0547 15.3547 25.0547H16.6453C17.4173 25.0547 18.0833 25.506 18.3947 26.16C21.2 25.1887 23.2307 22.5567 23.3113 19.4394L23.3133 19.2474V12.7954C23.3133 8.75605 20.0393 5.48205 16 5.48205C12.0247 5.48205 8.79065 8.65338 8.68865 12.6034L8.68665 12.7954V19.3087L7.74532 19.4267C6.56687 19.5236 5.39744 19.1543 4.48831 18.3982C3.57919 17.6422 3.00291 16.5597 2.8833 15.3833C2.76369 14.2069 3.1103 13.0306 3.84864 12.107C4.58699 11.1835 5.65816 10.5864 6.83199 10.4441C7.87799 6.35605 11.5853 3.33338 16 3.33338ZM17.2667 12.0001C17.4299 12.0001 17.5875 12.06 17.7096 12.1685C17.8316 12.277 17.9095 12.4265 17.9287 12.5887L17.9327 12.6667V14.7174H19.3713V12.7661C19.3713 12.5892 19.4416 12.4197 19.5666 12.2946C19.6916 12.1696 19.8612 12.0994 20.038 12.0994H20.7047C20.7922 12.0994 20.8789 12.1166 20.9598 12.1501C21.0407 12.1836 21.1142 12.2327 21.1761 12.2946C21.238 12.3566 21.2871 12.43 21.3206 12.5109C21.3541 12.5918 21.3713 12.6785 21.3713 12.7661V19.0001C21.3713 19.0876 21.3541 19.1743 21.3206 19.2552C21.2871 19.3361 21.238 19.4095 21.1761 19.4715C21.1142 19.5334 21.0407 19.5825 20.9598 19.616C20.8789 19.6495 20.7922 19.6667 20.7047 19.6667H20.038C19.8612 19.6667 19.6916 19.5965 19.5666 19.4715C19.4416 19.3464 19.3713 19.1769 19.3713 19.0001V16.7174H16.6C16.5124 16.7174 16.4257 16.7001 16.3449 16.6666C16.264 16.6331 16.1905 16.584 16.1286 16.5221C16.0667 16.4602 16.0176 16.3867 15.9841 16.3058C15.9506 16.225 15.9333 16.1383 15.9333 16.0507V12.6667C15.9333 12.4899 16.0036 12.3203 16.1286 12.1953C16.2536 12.0703 16.4232 12.0001 16.6 12.0001H17.2667ZM14.2813 12.1667C14.3689 12.1667 14.4556 12.184 14.5364 12.2175C14.6173 12.251 14.6908 12.3001 14.7527 12.362C14.8146 12.4239 14.8637 12.4974 14.8972 12.5783C14.9307 12.6591 14.948 12.7458 14.948 12.8334V16.2501C14.9479 16.4134 14.8879 16.5711 14.7793 16.6932C14.6706 16.8152 14.5209 16.8931 14.3587 16.9121L14.2813 16.9167L11.9993 16.9161V17.6661H14.2813C14.3689 17.6661 14.4557 17.6833 14.5366 17.7169C14.6175 17.7504 14.691 17.7996 14.753 17.8615C14.8149 17.9235 14.864 17.9971 14.8974 18.0781C14.9309 18.159 14.9481 18.2458 14.948 18.3334V19.0001C14.948 19.1769 14.8777 19.3464 14.7527 19.4715C14.6277 19.5965 14.4581 19.6667 14.2813 19.6667H10.6667C10.4898 19.6667 10.3203 19.5965 10.1952 19.4715C10.0702 19.3464 9.99999 19.1769 9.99999 19.0001V15.5834C9.99999 15.4958 10.0172 15.4091 10.0507 15.3283C10.0842 15.2474 10.1333 15.1739 10.1952 15.112C10.2572 15.0501 10.3306 15.001 10.4115 14.9675C10.4924 14.934 10.5791 14.9167 10.6667 14.9167L12.9473 14.9161V14.1661H10.6673C10.5039 14.1662 10.3462 14.1063 10.224 13.9978C10.1018 13.8893 10.0238 13.7397 10.0047 13.5774L9.99999 13.5001V12.8334C9.99999 12.7458 10.0172 12.6591 10.0507 12.5783C10.0842 12.4974 10.1333 12.4239 10.1952 12.362C10.2572 12.3001 10.3306 12.251 10.4115 12.2175C10.4924 12.184 10.5791 12.1667 10.6667 12.1667H14.2813ZM25.462 12.6681V17.2227L25.5433 17.2001C25.9776 17.0598 26.3622 16.797 26.6508 16.4434C26.9394 16.0898 27.1196 15.6604 27.17 15.2067L27.1813 15.072L27.1847 14.9461C27.1847 13.9361 26.5513 13.0734 25.6607 12.7341L25.5433 12.6927L25.462 12.6681ZM6.53799 12.6681L6.45665 12.6927C5.97991 12.8464 5.56418 13.1474 5.26926 13.5523C4.97434 13.9572 4.81541 14.4451 4.81532 14.9461L4.81865 15.072C4.84421 15.5509 5.01448 16.0106 5.30695 16.3906C5.59942 16.7706 6.00032 17.0528 6.45665 17.2001L6.53799 17.2227V12.6681Z" fill="var(--fill-0, black)" stroke="var(--stroke-0, white)" stroke-width="0.6" mask="url(#path-1-inside-1_0_83)"/>
</g>
</g>
</svg>
