<svg width="32" height="32" viewBox="0 0 32 32" fill="none" xmlns="http://www.w3.org/2000/svg">
<g id="Frame">
<g id="Vector">
<mask id="path-1-inside-1_0_85" fill="white">
<path d="M21.1422 11.0564C20.9534 10.8674 20.7022 10.7634 20.4349 10.7634C20.1677 10.7634 19.9163 10.8674 19.7275 11.0564L17.0941 13.6898L14.4614 11.0571C14.2722 10.8681 14.0211 10.7641 13.7539 10.7641C13.4867 10.7641 13.2354 10.8681 13.0465 11.0571C12.6564 11.4472 12.6564 12.0818 13.0465 12.4719L14.6783 14.1039H13.086C12.9789 14.1039 12.8923 14.1907 12.8923 14.2974V15.9111C12.8923 16.018 12.9789 16.1048 13.086 16.1048H16.094V17.4443H13.086C12.9789 17.4443 12.8923 17.5311 12.8923 17.638V19.2517C12.8923 19.3586 12.9789 19.4454 13.086 19.4454H16.094V22.4535C16.094 23.0051 16.5428 23.4539 17.0944 23.4539C17.6461 23.4539 18.0949 23.0051 18.0949 22.4535V19.4454H21.103C21.2098 19.4454 21.2967 19.3586 21.2967 19.2517V17.638C21.2967 17.5311 21.2098 17.4443 21.103 17.4443H18.0949V16.1048H21.103C21.2098 16.1048 21.2967 16.018 21.2967 15.9111V14.2974C21.2967 14.1905 21.2098 14.1038 21.103 14.1038H19.5098L21.1423 12.4713C21.5324 12.0812 21.5324 11.4464 21.1422 11.0564ZM29.3301 10.8402C28.6614 9.25926 27.7044 7.83959 26.4855 6.6207C25.2665 5.40175 23.8469 4.44481 22.266 3.7762C20.6289 3.08373 18.8902 2.73255 17.0983 2.73255C15.3066 2.73255 13.568 3.08373 11.931 3.7762C10.35 4.44475 8.9306 5.40192 7.71177 6.6207C6.49282 7.83965 5.53582 9.25926 4.86715 10.8402C4.59284 11.4886 4.37034 12.1598 4.2032 12.8418L3.54161 11.3529C3.38114 10.992 3.02214 10.7585 2.6268 10.7585C2.48657 10.7585 2.35002 10.7876 2.22106 10.8449C1.97688 10.9533 1.78951 11.1504 1.6936 11.4C1.5977 11.6494 1.60449 11.9212 1.71298 12.1655L3.76411 16.7818C3.77452 16.8059 3.7863 16.8307 3.79959 16.8554C3.80102 16.8581 3.80246 16.8608 3.8039 16.8635C3.81586 16.8853 3.82741 16.9049 3.8392 16.9236C3.84006 16.9249 3.84133 16.9268 3.84248 16.9286C3.85231 16.9436 3.86317 16.9592 3.87467 16.9749C3.8791 16.9812 3.88462 16.9884 3.8902 16.9957C3.8979 17.0055 3.90543 17.0151 3.91343 17.0245C3.92423 17.0378 3.93637 17.0515 3.94861 17.0646L3.95189 17.0683C3.95787 17.0747 3.96402 17.0813 3.97012 17.0875C3.97655 17.094 3.98334 17.1005 3.99007 17.1069L3.9926 17.1095C4.00105 17.1173 4.00956 17.1253 4.01812 17.133C4.02554 17.1396 4.03232 17.1455 4.03922 17.1512C4.0509 17.1611 4.06372 17.1714 4.07683 17.1813C4.08079 17.1845 4.08407 17.1871 4.08723 17.1893C4.10477 17.2023 4.12305 17.2148 4.14295 17.2277C4.1441 17.2285 4.14553 17.2294 4.14668 17.2301C4.16433 17.2413 4.18302 17.2522 4.20216 17.2625L4.20837 17.266C4.24914 17.2879 4.29134 17.3071 4.33394 17.3229C4.33492 17.3233 4.33596 17.3236 4.33693 17.324C4.35516 17.3307 4.37425 17.3369 4.39506 17.3432L4.40121 17.3451L4.40662 17.3466C4.42571 17.352 4.44341 17.3566 4.46049 17.3605L4.46118 17.3606L4.46946 17.3626C4.47061 17.3629 4.47187 17.3632 4.47314 17.3635C4.49211 17.3674 4.51224 17.3711 4.5327 17.3741C4.53955 17.3751 4.54667 17.3761 4.5538 17.377L4.55754 17.3774C4.56967 17.3789 4.58163 17.3802 4.59359 17.3814L4.59773 17.3818C4.6063 17.3825 4.61469 17.3832 4.62326 17.3836C4.63539 17.3844 4.64758 17.3848 4.66 17.3851L4.66276 17.3852C4.66943 17.3855 4.67615 17.3858 4.68282 17.3858C4.70921 17.3858 4.73658 17.3846 4.76648 17.3821L4.76832 17.3819C4.76958 17.3817 4.77079 17.3817 4.77205 17.3817C4.79925 17.3791 4.8265 17.3754 4.85312 17.3708C4.85766 17.3699 4.86157 17.3693 4.86525 17.3687C4.89245 17.3635 4.91729 17.358 4.9408 17.3517C4.94465 17.3507 4.94851 17.3496 4.95247 17.3483C4.95322 17.3482 4.95362 17.348 4.95431 17.3479C4.9738 17.3422 4.9941 17.3357 5.01428 17.3286L5.01802 17.3273C5.024 17.3254 5.02998 17.3232 5.03596 17.3209C5.05389 17.3142 5.07143 17.307 5.08828 17.2996C5.08897 17.2993 5.08983 17.299 5.09052 17.2985C5.09351 17.2973 5.09621 17.2958 5.09909 17.2944C5.10759 17.2905 5.11472 17.2872 5.12197 17.2836C5.14566 17.2719 5.16647 17.2608 5.18625 17.2493C5.18924 17.2475 5.1924 17.2457 5.1955 17.2437L5.19792 17.2423C5.25237 17.2095 5.30279 17.1723 5.34902 17.1312L9.1492 13.8018C9.56408 13.4382 9.606 12.8049 9.2424 12.3899C9.05244 12.1731 8.77807 12.0487 8.48962 12.0487C8.24705 12.0487 8.01304 12.1368 7.83061 12.2967L6.02631 13.8773C7.03574 8.62814 11.7029 4.73343 17.0983 4.73343C23.315 4.73343 28.3726 9.79109 28.3726 16.0078C28.3726 22.2242 23.315 27.2817 17.0983 27.2817C14.4083 27.2817 11.8035 26.3187 9.76365 24.5702C9.58237 24.4149 9.35118 24.3294 9.11275 24.3294C8.82004 24.3294 8.54315 24.4568 8.35284 24.6788C7.99384 25.0977 8.04242 25.7305 8.46133 26.0895C10.8637 28.1487 13.931 29.2826 17.0983 29.2826C18.89 29.2826 20.6287 28.9315 22.2659 28.239C23.8469 27.5704 25.2665 26.6133 26.4852 25.3946C27.7042 24.1757 28.6612 22.7561 29.3299 21.1752C30.0226 19.5381 30.3737 17.7996 30.3737 16.0078C30.3737 14.2161 30.0224 12.4774 29.3301 10.8402Z"/>
</mask>
<path d="M21.1422 11.0564C20.9534 10.8674 20.7022 10.7634 20.4349 10.7634C20.1677 10.7634 19.9163 10.8674 19.7275 11.0564L17.0941 13.6898L14.4614 11.0571C14.2722 10.8681 14.0211 10.7641 13.7539 10.7641C13.4867 10.7641 13.2354 10.8681 13.0465 11.0571C12.6564 11.4472 12.6564 12.0818 13.0465 12.4719L14.6783 14.1039H13.086C12.9789 14.1039 12.8923 14.1907 12.8923 14.2974V15.9111C12.8923 16.018 12.9789 16.1048 13.086 16.1048H16.094V17.4443H13.086C12.9789 17.4443 12.8923 17.5311 12.8923 17.638V19.2517C12.8923 19.3586 12.9789 19.4454 13.086 19.4454H16.094V22.4535C16.094 23.0051 16.5428 23.4539 17.0944 23.4539C17.6461 23.4539 18.0949 23.0051 18.0949 22.4535V19.4454H21.103C21.2098 19.4454 21.2967 19.3586 21.2967 19.2517V17.638C21.2967 17.5311 21.2098 17.4443 21.103 17.4443H18.0949V16.1048H21.103C21.2098 16.1048 21.2967 16.018 21.2967 15.9111V14.2974C21.2967 14.1905 21.2098 14.1038 21.103 14.1038H19.5098L21.1423 12.4713C21.5324 12.0812 21.5324 11.4464 21.1422 11.0564ZM29.3301 10.8402C28.6614 9.25926 27.7044 7.83959 26.4855 6.6207C25.2665 5.40175 23.8469 4.44481 22.266 3.7762C20.6289 3.08373 18.8902 2.73255 17.0983 2.73255C15.3066 2.73255 13.568 3.08373 11.931 3.7762C10.35 4.44475 8.9306 5.40192 7.71177 6.6207C6.49282 7.83965 5.53582 9.25926 4.86715 10.8402C4.59284 11.4886 4.37034 12.1598 4.2032 12.8418L3.54161 11.3529C3.38114 10.992 3.02214 10.7585 2.6268 10.7585C2.48657 10.7585 2.35002 10.7876 2.22106 10.8449C1.97688 10.9533 1.78951 11.1504 1.6936 11.4C1.5977 11.6494 1.60449 11.9212 1.71298 12.1655L3.76411 16.7818C3.77452 16.8059 3.7863 16.8307 3.79959 16.8554C3.80102 16.8581 3.80246 16.8608 3.8039 16.8635C3.81586 16.8853 3.82741 16.9049 3.8392 16.9236C3.84006 16.9249 3.84133 16.9268 3.84248 16.9286C3.85231 16.9436 3.86317 16.9592 3.87467 16.9749C3.8791 16.9812 3.88462 16.9884 3.8902 16.9957C3.8979 17.0055 3.90543 17.0151 3.91343 17.0245C3.92423 17.0378 3.93637 17.0515 3.94861 17.0646L3.95189 17.0683C3.95787 17.0747 3.96402 17.0813 3.97012 17.0875C3.97655 17.094 3.98334 17.1005 3.99007 17.1069L3.9926 17.1095C4.00105 17.1173 4.00956 17.1253 4.01812 17.133C4.02554 17.1396 4.03232 17.1455 4.03922 17.1512C4.0509 17.1611 4.06372 17.1714 4.07683 17.1813C4.08079 17.1845 4.08407 17.1871 4.08723 17.1893C4.10477 17.2023 4.12305 17.2148 4.14295 17.2277C4.1441 17.2285 4.14553 17.2294 4.14668 17.2301C4.16433 17.2413 4.18302 17.2522 4.20216 17.2625L4.20837 17.266C4.24914 17.2879 4.29134 17.3071 4.33394 17.3229C4.33492 17.3233 4.33596 17.3236 4.33693 17.324C4.35516 17.3307 4.37425 17.3369 4.39506 17.3432L4.40121 17.3451L4.40662 17.3466C4.42571 17.352 4.44341 17.3566 4.46049 17.3605L4.46118 17.3606L4.46946 17.3626C4.47061 17.3629 4.47187 17.3632 4.47314 17.3635C4.49211 17.3674 4.51224 17.3711 4.5327 17.3741C4.53955 17.3751 4.54667 17.3761 4.5538 17.377L4.55754 17.3774C4.56967 17.3789 4.58163 17.3802 4.59359 17.3814L4.59773 17.3818C4.6063 17.3825 4.61469 17.3832 4.62326 17.3836C4.63539 17.3844 4.64758 17.3848 4.66 17.3851L4.66276 17.3852C4.66943 17.3855 4.67615 17.3858 4.68282 17.3858C4.70921 17.3858 4.73658 17.3846 4.76648 17.3821L4.76832 17.3819C4.76958 17.3817 4.77079 17.3817 4.77205 17.3817C4.79925 17.3791 4.8265 17.3754 4.85312 17.3708C4.85766 17.3699 4.86157 17.3693 4.86525 17.3687C4.89245 17.3635 4.91729 17.358 4.9408 17.3517C4.94465 17.3507 4.94851 17.3496 4.95247 17.3483C4.95322 17.3482 4.95362 17.348 4.95431 17.3479C4.9738 17.3422 4.9941 17.3357 5.01428 17.3286L5.01802 17.3273C5.024 17.3254 5.02998 17.3232 5.03596 17.3209C5.05389 17.3142 5.07143 17.307 5.08828 17.2996C5.08897 17.2993 5.08983 17.299 5.09052 17.2985C5.09351 17.2973 5.09621 17.2958 5.09909 17.2944C5.10759 17.2905 5.11472 17.2872 5.12197 17.2836C5.14566 17.2719 5.16647 17.2608 5.18625 17.2493C5.18924 17.2475 5.1924 17.2457 5.1955 17.2437L5.19792 17.2423C5.25237 17.2095 5.30279 17.1723 5.34902 17.1312L9.1492 13.8018C9.56408 13.4382 9.606 12.8049 9.2424 12.3899C9.05244 12.1731 8.77807 12.0487 8.48962 12.0487C8.24705 12.0487 8.01304 12.1368 7.83061 12.2967L6.02631 13.8773C7.03574 8.62814 11.7029 4.73343 17.0983 4.73343C23.315 4.73343 28.3726 9.79109 28.3726 16.0078C28.3726 22.2242 23.315 27.2817 17.0983 27.2817C14.4083 27.2817 11.8035 26.3187 9.76365 24.5702C9.58237 24.4149 9.35118 24.3294 9.11275 24.3294C8.82004 24.3294 8.54315 24.4568 8.35284 24.6788C7.99384 25.0977 8.04242 25.7305 8.46133 26.0895C10.8637 28.1487 13.931 29.2826 17.0983 29.2826C18.89 29.2826 20.6287 28.9315 22.2659 28.239C23.8469 27.5704 25.2665 26.6133 26.4852 25.3946C27.7042 24.1757 28.6612 22.7561 29.3299 21.1752C30.0226 19.5381 30.3737 17.7996 30.3737 16.0078C30.3737 14.2161 30.0224 12.4774 29.3301 10.8402Z" fill="var(--fill-0, #272729)" stroke="var(--stroke-0, white)" stroke-width="0.4" mask="url(#path-1-inside-1_0_85)"/>
</g>
</g>
</svg>
