<svg width="12" height="12" viewBox="0 0 12 12" fill="none" xmlns="http://www.w3.org/2000/svg">
<g id="Frame">
<path id="Vector" d="M3.41753 3.57886C4.17762 3.57886 4.76955 3.93227 5.30694 4.61167C5.33193 4.64536 5.34283 4.68744 5.33733 4.72902C5.33182 4.7706 5.31034 4.8084 5.27745 4.83442C5.24455 4.86044 5.20281 4.87262 5.16109 4.8684C5.11936 4.86417 5.08091 4.84387 5.0539 4.81178C4.58042 4.21355 4.08354 3.91162 3.44948 3.90193C3.43901 3.9044 3.42828 3.9056 3.41753 3.90548C2.8659 3.90476 2.33622 4.12152 1.94337 4.50877C1.55052 4.89602 1.32616 5.42252 1.31896 5.9741C1.31177 6.52568 1.5223 7.05787 1.90491 7.45524C2.28752 7.85261 2.81136 8.08312 3.36282 8.09679L3.41753 8.09744C3.96944 8.09744 4.41872 7.87748 4.83394 7.44208L4.86057 7.41368L4.91302 7.35671L4.96401 7.29878L4.98919 7.26941L5.03905 7.20921L5.08844 7.14708L5.13782 7.08221L5.16251 7.04864L5.21253 6.97909L5.23787 6.94278L5.31549 6.82772L5.36923 6.74509L5.42491 6.65714L5.483 6.56338L5.54368 6.46332L5.67472 6.24224L5.86014 5.92093L5.97779 5.71647L6.08591 5.53104L6.15337 5.41727L6.24858 5.25961L6.33782 5.11646L6.42239 4.98575L6.47677 4.9049C6.48581 4.89166 6.49452 4.87875 6.50356 4.86617L6.55633 4.79129C6.57392 4.76708 6.59135 4.74336 6.60878 4.72028L6.6609 4.65202L6.71319 4.58634L6.76612 4.52259L6.82018 4.4603L6.84762 4.42964L6.90378 4.36848L6.9325 4.33798C7.3892 3.85901 7.90012 3.60032 8.51772 3.58354L8.58533 3.58273L8.63827 3.58337C9.27478 3.59808 9.87983 3.86317 10.3221 4.32113C10.7645 4.77909 11.0084 5.39298 11.001 6.02962C10.9935 6.66627 10.7354 7.27431 10.2825 7.72185C9.82969 8.16938 9.21863 8.42031 8.58194 8.42019C8.56952 8.42019 8.55741 8.41874 8.54596 8.41616L8.58194 8.41648C7.82508 8.41648 7.23525 8.06597 6.69947 7.39205C6.68616 7.37547 6.67625 7.35643 6.67033 7.33601C6.6644 7.31559 6.66257 7.2942 6.66493 7.27307C6.6673 7.25193 6.67382 7.23148 6.68411 7.21287C6.69441 7.19427 6.70828 7.17789 6.72493 7.16466C6.74158 7.15143 6.76068 7.14163 6.78113 7.13581C6.80158 7.12999 6.82298 7.12826 6.8441 7.13074C6.86522 7.13322 6.88564 7.13984 6.90419 7.15023C6.92274 7.16063 6.93905 7.17458 6.95219 7.1913C7.43148 7.79437 7.93546 8.09373 8.58194 8.09373C8.5926 8.09373 8.60308 8.09469 8.61325 8.09679L8.58194 8.09744C9.13357 8.09817 9.66325 7.8814 10.0561 7.49415C10.449 7.10691 10.6733 6.5804 10.6805 6.02882C10.6877 5.47724 10.4772 4.94505 10.0946 4.54768C9.71195 4.15032 9.18811 3.9198 8.63665 3.90613L8.57968 3.90532L8.5232 3.90629C7.99824 3.92146 7.56623 4.14093 7.16601 4.56068L7.13939 4.58908L7.08694 4.64605L7.03594 4.70398L6.98592 4.76321L6.93637 4.82421L6.88699 4.88779C6.87871 4.89867 6.87048 4.90959 6.8623 4.92055L6.8126 4.98833L6.78758 5.02367L6.73659 5.0971L6.68446 5.17488L6.63089 5.25751L6.57521 5.34546L6.4871 5.48844L6.39269 5.64627L6.32556 5.76052L6.21743 5.94659L5.98537 6.34988L5.88016 6.52933L5.81431 6.63955L5.7212 6.79221L5.6623 6.88613L5.60549 6.97457L5.5503 7.05784L5.49656 7.13659L5.44363 7.21131L5.39134 7.28248L5.33922 7.35074L5.28677 7.41642L5.23384 7.48017L5.17994 7.54246L5.1525 7.57312L5.09618 7.63428L5.06746 7.66478C4.61076 8.14391 4.09951 8.4026 3.48176 8.41939L3.41753 8.42019C2.77966 8.41958 2.16785 8.16702 1.7153 7.71749C1.26275 7.26797 1.00609 6.65787 1.00119 6.02002C0.9963 5.38217 1.24357 4.76821 1.68917 4.31179C2.13477 3.85537 2.74263 3.59345 3.38041 3.58305C3.39235 3.58031 3.40462 3.57886 3.41753 3.57886Z" fill="var(--fill-0, #E6485C)" stroke="var(--stroke-0, #E6485C)" stroke-width="0.5"/>
</g>
</svg>
