<svg preserveAspectRatio="none" width="100%" height="100%" overflow="visible" style="display: block;" viewBox="0 0 14 14" fill="none" xmlns="http://www.w3.org/2000/svg">
<g id="Frame">
<path id="Vector" d="M7.43461 2.0545C8.05936 1.35158 9.20678 1.96525 8.96936 2.87525L8.19645 5.83625L9.4757 6.34783C9.60917 6.40108 9.72785 6.4857 9.82171 6.59452C9.91557 6.70334 9.98184 6.83316 10.0149 6.97301C10.048 7.11286 10.0469 7.25861 10.0117 7.39795C9.97655 7.53728 9.90834 7.6661 9.81286 7.7735L6.10403 11.9455C5.47986 12.6484 4.33245 12.0347 4.56986 11.1247L5.3422 8.16375L4.06295 7.65216C3.92952 7.59885 3.81089 7.51419 3.7171 7.40534C3.6233 7.29649 3.5571 7.16666 3.52408 7.02682C3.49107 6.88698 3.49221 6.74124 3.52742 6.60194C3.56263 6.46263 3.63087 6.33386 3.72636 6.2265L7.43461 2.0545ZM8.10311 2.6495L4.39486 6.82091L6.40736 7.62591L5.43553 11.3505L9.14378 7.17908L7.13186 6.37408L8.10311 2.6495Z" fill="var(--fill-0, #E6485C)"/>
</g>
</svg>
