<svg width="24" height="24" viewBox="0 0 24 24" fill="none" xmlns="http://www.w3.org/2000/svg">
<g clip-path="url(#clip0_usage_pay)">
<path d="M8.63477 2.14453C12.8394 2.14453 16.5647 4.76934 17.3125 8.24023V8.32422C19.09 8.47946 20.7688 9.19927 22.0244 10.3701C23.2941 11.5552 23.9999 13.0791 24 14.6592C24 16.3664 22.9979 18.1023 21.2061 19.5273L21.7422 21.291C21.7845 21.4602 21.7424 21.6293 21.6016 21.7422C21.531 21.8127 21.4318 21.8408 21.333 21.8408C21.2626 21.8407 21.1921 21.8133 21.1357 21.7852L19.0332 20.6416C18.229 20.8391 17.4248 21.0234 16.6348 21.0234C13.5027 21.0234 10.7092 19.3158 9.66504 16.7764C9.45339 16.8751 8.80407 16.9316 8.63477 16.9316C7.73184 16.9316 6.99788 16.7757 6.15137 16.6064H6.1377L5.81348 16.5361L3.07617 17.9053C2.93515 17.9758 2.73734 17.9613 2.61035 17.8486C2.48337 17.7358 2.42696 17.5658 2.4834 17.3965L3.20312 15.2236C1.10088 13.6857 4.54039e-05 11.7109 0 9.53809C0 5.46053 3.86588 2.1446 8.63477 2.14453ZM16.6064 9.4248C13.178 9.42492 10.3848 11.7815 10.3848 14.6738C10.3848 17.5661 13.178 19.9227 16.6064 19.9229C17.3541 19.9229 18.116 19.7244 18.8496 19.541C18.8778 19.5269 18.921 19.5273 18.9492 19.5273C19.0196 19.5274 19.0901 19.5558 19.1465 19.584L20.416 20.2754L20.1201 19.2734C20.0637 19.1183 20.1198 18.9347 20.2607 18.8359C21.9256 17.5943 22.8285 16.113 22.8145 14.6738C22.8145 11.8237 19.9786 9.4248 16.6064 9.4248ZM8.62109 3.23145C4.48717 3.23145 1.1291 6.06689 1.12891 9.55176C1.12891 11.4847 2.13028 13.1642 4.10547 14.5469C4.26067 14.6597 4.31718 14.8434 4.26074 15.0127L3.78125 16.4512L5.6582 15.5059C5.74269 15.4778 5.84131 15.4635 5.92578 15.4775L6.37695 15.5625C7.12475 15.7177 7.81686 15.8594 8.62109 15.8594C8.86081 15.8594 9.10055 15.8452 9.32617 15.8311H9.38281C9.25583 15.3796 9.19922 14.9276 9.19922 14.4902C9.19928 11.1747 12.3173 8.43736 16.1689 8.35254C15.4633 5.43213 12.2328 3.23156 8.62109 3.23145ZM14.3633 11.9502C15.0263 11.9502 15.4355 12.402 15.4355 12.8252C15.4355 13.2485 15.0264 13.7002 14.3633 13.7002C13.9259 13.7002 13.4883 13.2626 13.4883 12.8252C13.4884 12.3879 13.9259 11.9502 14.3633 11.9502ZM18.8643 11.9502C19.5273 11.9502 19.9364 12.402 19.9365 12.8252C19.9365 13.2485 19.5274 13.7002 18.8643 13.7002C18.4269 13.7002 18.0039 13.2626 18.0039 12.8252C18.004 12.3879 18.4269 11.9502 18.8643 11.9502ZM11.6963 6.01074C12.3312 6.01074 12.7686 6.44809 12.7686 7.08301C12.7685 7.71789 12.3453 8.15527 11.6963 8.15527C11.0756 8.15511 10.4131 7.73187 10.4131 7.08301C10.4131 6.41999 11.0756 6.0109 11.6963 6.01074ZM5.9541 5.99609C6.58889 5.99609 7.02618 6.43366 7.02637 7.06836C7.02637 7.71739 6.60313 8.15473 5.9541 8.14062C5.3333 8.1406 4.66992 7.73148 4.66992 7.06836C4.6702 6.40548 5.33343 5.99611 5.9541 5.99609Z" fill="#E6485C"/>
</g>
<defs>
<clipPath id="clip0_usage_pay">
<rect width="24" height="24" fill="white"/>
</clipPath>
</defs>
</svg>
