<svg preserveAspectRatio="none" width="100%" height="100%" overflow="visible" style="display: block;" viewBox="0 0 24 24" fill="none" xmlns="http://www.w3.org/2000/svg">
<g id="Frame" clip-path="url(#clip0_0_23)">
<g id="Union">
<path d="M8.63477 2.14453C12.8394 2.14453 16.5647 4.76934 17.3125 8.24023V8.32422C19.09 8.47946 20.7688 9.19927 22.0244 10.3701C23.2941 11.5552 23.9999 13.0791 24 14.6592C24 16.3664 22.9979 18.1023 21.2061 19.5273L21.7422 21.291C21.7845 21.4602 21.7424 21.6293 21.6016 21.7422C21.531 21.8127 21.4318 21.8408 21.333 21.8408C21.2626 21.8407 21.1921 21.8133 21.1357 21.7852L19.0332 20.6416C18.229 20.8391 17.4248 21.0234 16.6348 21.0234C13.5027 21.0234 10.7092 19.3158 9.66504 16.7764C9.45339 16.8751 8.80407 16.9316 8.63477 16.9316C7.73184 16.9316 6.99788 16.7757 6.15137 16.6064H6.1377L5.81348 16.5361L3.07617 17.9053C2.93515 17.9758 2.73734 17.9613 2.61035 17.8486C2.48337 17.7358 2.42696 17.5658 2.4834 17.3965L3.20312 15.2236C1.10088 13.6857 4.54039e-05 11.7109 0 9.53809C0 5.46053 3.86588 2.1446 8.63477 2.14453ZM16.6064 9.4248C13.178 9.42492 10.3848 11.7815 10.3848 14.6738C10.3848 17.5661 13.178 19.9227 16.6064 19.9229C17.3541 19.9229 18.116 19.7244 18.8496 19.541C18.8778 19.5269 18.921 19.5273 18.9492 19.5273C19.0196 19.5274 19.0901 19.5558 19.1465 19.584L20.416 20.2754L20.1201 19.2734C20.0637 19.1183 20.1198 18.9347 20.2607 18.8359C21.9256 17.5943 22.8285 16.113 22.8145 14.6738C22.8145 11.8237 19.9786 9.4248 16.6064 9.4248ZM8.62109 3.23145C4.48717 3.23145 1.1291 6.06689 1.12891 9.55176C1.12891 11.4847 2.13028 13.1642 4.10547 14.5469C4.26067 14.6597 4.31718 14.8434 4.26074 15.0127L3.78125 16.4512L5.6582 15.5059C5.74269 15.4778 5.84131 15.4635 5.92578 15.4775L6.37695 15.5625C7.12475 15.7177 7.81686 15.8594 8.62109 15.8594C8.86081 15.8594 9.10055 15.8452 9.32617 15.8311H9.38281C9.25583 15.3796 9.19922 14.9276 9.19922 14.4902C9.19928 11.1747 12.3173 8.43736 16.1689 8.35254C15.4633 5.43213 12.2328 3.23156 8.62109 3.23145ZM14.3633 11.9502C15.0263 11.9502 15.4355 12.402 15.4355 12.8252C15.4355 13.2485 15.0264 13.7002 14.3633 13.7002C13.9259 13.7002 13.4883 13.2626 13.4883 12.8252C13.4884 12.3879 13.9259 11.9502 14.3633 11.9502ZM18.8643 11.9502C19.5273 11.9502 19.9364 12.402 19.9365 12.8252C19.9365 13.2485 19.5274 13.7002 18.8643 13.7002C18.4269 13.7002 18.0039 13.2626 18.0039 12.8252C18.004 12.3879 18.4269 11.9502 18.8643 11.9502ZM11.6963 6.01074C12.3312 6.01074 12.7686 6.44809 12.7686 7.08301C12.7685 7.71789 12.3453 8.15527 11.6963 8.15527C11.0756 8.15511 10.4131 7.73187 10.4131 7.08301C10.4131 6.41999 11.0756 6.0109 11.6963 6.01074ZM5.9541 5.99609C6.58889 5.99609 7.02618 6.43366 7.02637 7.06836C7.02637 7.71739 6.60313 8.15473 5.9541 8.14062C5.3333 8.1406 4.66992 7.73148 4.66992 7.06836C4.6702 6.40548 5.33343 5.99611 5.9541 5.99609Z" fill="var(--fill-0, #E6485C)"/>
<path d="M8.63477 2.14453V2.09453H8.63476L8.63477 2.14453ZM17.3125 8.24023H17.3636L17.3614 8.2297L17.3125 8.24023ZM17.3125 8.32422H17.2625V8.37004L17.3081 8.37403L17.3125 8.32422ZM22.0244 10.3701L22.0585 10.3336L22.0585 10.3335L22.0244 10.3701ZM24 14.6592H24.05V14.6592L24 14.6592ZM21.2061 19.5273L21.1749 19.4882L21.1483 19.5094L21.1582 19.5419L21.2061 19.5273ZM21.7422 21.291L21.7908 21.2789L21.79 21.2765L21.7422 21.291ZM21.6016 21.7422L21.5701 21.7029L21.5662 21.7068L21.6016 21.7422ZM21.333 21.8408L21.3329 21.8908H21.333V21.8408ZM21.1357 21.7852L21.1118 21.8291L21.1134 21.8299L21.1357 21.7852ZM19.0332 20.6416L19.0571 20.5977L19.0401 20.5884L19.0213 20.593L19.0332 20.6416ZM16.6348 21.0234V21.0734V21.0734V21.0234ZM9.66504 16.7764L9.71128 16.7574L9.69136 16.7089L9.6439 16.7311L9.66504 16.7764ZM8.63477 16.9316L8.63476 16.9816H8.63477V16.9316ZM6.15137 16.6064L6.16137 16.5564H6.15137V16.6064ZM6.1377 16.6064L6.12685 16.6564H6.1377V16.6064ZM5.81348 16.5361L5.82407 16.4873L5.80686 16.4835L5.79111 16.4914L5.81348 16.5361ZM3.07617 17.9053L3.09853 17.95L3.09854 17.95L3.07617 17.9053ZM2.61035 17.8486L2.57713 17.886L2.57716 17.886L2.61035 17.8486ZM2.4834 17.3965L2.53083 17.4123L2.53086 17.4122L2.4834 17.3965ZM3.20312 15.2236L3.25059 15.2394L3.26204 15.2048L3.23265 15.1833L3.20312 15.2236ZM0 9.53809H-0.05V9.53809L0 9.53809ZM16.6064 9.4248V9.3748H16.6064L16.6064 9.4248ZM10.3848 14.6738H10.3348V14.6738L10.3848 14.6738ZM16.6064 19.9229L16.6064 19.9729H16.6064V19.9229ZM18.8496 19.541L18.862 19.5907L18.872 19.5857L18.8496 19.541ZM18.9492 19.5273L18.9493 19.4773H18.9492V19.5273ZM19.1465 19.584L19.1704 19.54L19.1688 19.5393L19.1465 19.584ZM20.416 20.2754L20.3921 20.3193L20.4982 20.3771L20.464 20.2612L20.416 20.2754ZM20.1201 19.2734L20.1682 19.2592L20.1671 19.2563L20.1201 19.2734ZM20.2607 18.8359L20.2894 18.8769L20.2906 18.876L20.2607 18.8359ZM22.8145 14.6738H22.7645L22.7645 14.6743L22.8145 14.6738ZM8.62109 3.23145L8.6211 3.18145H8.62109V3.23145ZM1.12891 9.55176L1.07891 9.55175V9.55176H1.12891ZM4.10547 14.5469L4.13488 14.5064L4.13414 14.5059L4.10547 14.5469ZM4.26074 15.0127L4.30818 15.0285V15.0285L4.26074 15.0127ZM3.78125 16.4512L3.73382 16.4354L3.69549 16.5503L3.80374 16.4958L3.78125 16.4512ZM5.6582 15.5059L5.64225 15.4579L5.63571 15.4612L5.6582 15.5059ZM5.92578 15.4775L5.93504 15.4284L5.93397 15.4282L5.92578 15.4775ZM6.37695 15.5625L6.38712 15.5135L6.38621 15.5134L6.37695 15.5625ZM8.62109 15.8594V15.9094H8.6211L8.62109 15.8594ZM9.32617 15.8311V15.781L9.32305 15.7812L9.32617 15.8311ZM9.38281 15.8311V15.8811H9.44882L9.43095 15.8175L9.38281 15.8311ZM9.19922 14.4902L9.14922 14.4902V14.4902H9.19922ZM16.1689 8.35254L16.17 8.40253L16.2321 8.40116L16.2175 8.3408L16.1689 8.35254ZM14.3633 11.9502V11.9002H14.3633L14.3633 11.9502ZM15.4355 12.8252H15.4855V12.8252L15.4355 12.8252ZM14.3633 13.7002L14.3633 13.7502H14.3633V13.7002ZM13.4883 12.8252L13.4383 12.8252V12.8252H13.4883ZM18.8643 11.9502L18.8643 11.9002H18.8643V11.9502ZM19.9365 12.8252H19.9865V12.8252L19.9365 12.8252ZM18.8643 13.7002V13.7502H18.8643L18.8643 13.7002ZM18.0039 12.8252L17.9539 12.8252V12.8252H18.0039ZM11.6963 6.01074V5.96074H11.6963L11.6963 6.01074ZM12.7686 7.08301L12.8186 7.08301V7.08301H12.7686ZM11.6963 8.15527L11.6963 8.20527H11.6963V8.15527ZM10.4131 7.08301H10.3631V7.08301L10.4131 7.08301ZM5.9541 5.99609V5.94609H5.9541L5.9541 5.99609ZM7.02637 7.06836H7.07637V7.06834L7.02637 7.06836ZM5.9541 8.14062L5.95519 8.09062H5.9541L5.9541 8.14062ZM4.66992 7.06836L4.61992 7.06834V7.06836H4.66992ZM8.63477 2.14453V2.19453C12.8217 2.19453 16.5219 4.80823 17.2636 8.25077L17.3125 8.24023L17.3614 8.2297C16.6075 4.73044 12.857 2.09453 8.63477 2.09453V2.14453ZM17.3125 8.24023H17.2625V8.32422H17.3125H17.3625V8.24023H17.3125ZM17.3125 8.32422L17.3081 8.37403C19.0753 8.52837 20.7434 9.24394 21.9903 10.4067L22.0244 10.3701L22.0585 10.3335C20.7942 9.1546 19.1048 8.43056 17.3169 8.27441L17.3125 8.32422ZM22.0244 10.3701L21.9903 10.4067C23.2511 11.5834 23.9499 13.0945 23.95 14.6592L24 14.6592L24.05 14.6592C24.0499 13.0637 23.3372 11.527 22.0585 10.3336L22.0244 10.3701ZM24 14.6592H23.95C23.95 16.3462 22.9594 18.0691 21.1749 19.4882L21.2061 19.5273L21.2372 19.5665C23.0365 18.1355 24.05 16.3866 24.05 14.6592H24ZM21.2061 19.5273L21.1582 19.5419L21.6943 21.3056L21.7422 21.291L21.79 21.2765L21.2539 19.5128L21.2061 19.5273ZM21.7422 21.291L21.6937 21.3031C21.732 21.4565 21.6936 21.6044 21.5703 21.7032L21.6016 21.7422L21.6328 21.7812C21.7913 21.6543 21.837 21.464 21.7907 21.2789L21.7422 21.291ZM21.6016 21.7422L21.5662 21.7068C21.5079 21.7651 21.4232 21.7908 21.333 21.7908V21.8408V21.8908C21.4403 21.8908 21.5541 21.8603 21.6369 21.7775L21.6016 21.7422ZM21.333 21.8408L21.3331 21.7908C21.2744 21.7907 21.2123 21.7675 21.1581 21.7404L21.1357 21.7852L21.1134 21.8299C21.1719 21.8591 21.2508 21.8907 21.3329 21.8908L21.333 21.8408ZM21.1357 21.7852L21.1596 21.7412L19.0571 20.5977L19.0332 20.6416L19.0093 20.6855L21.1119 21.8291L21.1357 21.7852ZM19.0332 20.6416L19.0213 20.593C18.2167 20.7907 17.418 20.9734 16.6348 20.9734V21.0234V21.0734C17.4317 21.0734 18.2414 20.8876 19.0451 20.6902L19.0332 20.6416ZM16.6348 21.0234V20.9734C13.5194 20.9734 10.7465 19.275 9.71128 16.7574L9.66504 16.7764L9.6188 16.7954C10.6719 19.3567 13.4859 21.0734 16.6348 21.0734V21.0234ZM9.66504 16.7764L9.6439 16.7311C9.59655 16.7531 9.52108 16.7743 9.4285 16.7933C9.33691 16.8122 9.23197 16.8283 9.12777 16.8414C8.91879 16.8678 8.71645 16.8816 8.63477 16.8816V16.9316V16.9816C8.72239 16.9816 8.92936 16.9672 9.14028 16.9406C9.24602 16.9273 9.35368 16.9108 9.44865 16.8913C9.54264 16.8719 9.6277 16.849 9.68618 16.8217L9.66504 16.7764ZM8.63477 16.9316L8.63477 16.8816C7.73763 16.8816 7.00854 16.7269 6.16117 16.5574L6.15137 16.6064L6.14156 16.6555C6.98722 16.8246 7.72605 16.9816 8.63476 16.9816L8.63477 16.9316ZM6.15137 16.6064V16.5564H6.1377V16.6064V16.6564H6.15137V16.6064ZM6.1377 16.6064L6.14829 16.5576L5.82407 16.4873L5.81348 16.5361L5.80288 16.585L6.1271 16.6553L6.1377 16.6064ZM5.81348 16.5361L5.79111 16.4914L3.0538 17.8606L3.07617 17.9053L3.09854 17.95L5.83584 16.5809L5.81348 16.5361ZM3.07617 17.9053L3.05381 17.8606C2.92928 17.9228 2.75381 17.9091 2.64354 17.8112L2.61035 17.8486L2.57716 17.886C2.72088 18.0136 2.94103 18.0287 3.09853 17.95L3.07617 17.9053ZM2.61035 17.8486L2.64357 17.8113C2.52999 17.7103 2.48135 17.5607 2.53083 17.4123L2.4834 17.3965L2.43596 17.3807C2.37257 17.5708 2.43675 17.7612 2.57713 17.886L2.61035 17.8486ZM2.4834 17.3965L2.53086 17.4122L3.25059 15.2394L3.20312 15.2236L3.15566 15.2079L2.43593 17.3808L2.4834 17.3965ZM3.20312 15.2236L3.23265 15.1833C1.14061 13.6529 0.050045 11.6919 0.05 9.53808L0 9.53809L-0.05 9.53809C-0.0499542 11.7298 1.06114 13.7186 3.1736 15.264L3.20312 15.2236ZM0 9.53809H0.05C0.05 5.49512 3.88596 2.1946 8.63477 2.19453L8.63477 2.14453L8.63476 2.09453C3.8458 2.0946 -0.05 5.42594 -0.05 9.53809H0ZM16.6064 9.4248L16.6064 9.3748C13.1587 9.37492 10.3348 11.7462 10.3348 14.6738H10.3848H10.4348C10.4348 11.8167 13.1973 9.47492 16.6064 9.4748L16.6064 9.4248ZM10.3848 14.6738L10.3348 14.6738C10.3348 17.6014 13.1587 19.9727 16.6064 19.9729L16.6064 19.9229L16.6064 19.8729C13.1973 19.8727 10.4348 17.5309 10.4348 14.6738L10.3848 14.6738ZM16.6064 19.9229V19.9729C17.3615 19.9729 18.1299 19.7725 18.8617 19.5895L18.8496 19.541L18.8375 19.4925C18.1022 19.6763 17.3467 19.8729 16.6064 19.8729V19.9229ZM18.8496 19.541L18.872 19.5857C18.8778 19.5828 18.8883 19.5801 18.904 19.5787C18.9191 19.5773 18.9345 19.5773 18.9492 19.5773V19.5273V19.4773C18.9357 19.4773 18.9154 19.4772 18.8948 19.4791C18.8748 19.481 18.8496 19.4851 18.8272 19.4963L18.8496 19.541ZM18.9492 19.5273L18.9492 19.5773C19.0075 19.5774 19.0694 19.6013 19.1241 19.6287L19.1465 19.584L19.1688 19.5393C19.1109 19.5103 19.0318 19.4775 18.9493 19.4773L18.9492 19.5273ZM19.1465 19.584L19.1226 19.6279L20.3921 20.3193L20.416 20.2754L20.4399 20.2315L19.1704 19.5401L19.1465 19.584ZM20.416 20.2754L20.464 20.2612L20.1681 19.2593L20.1201 19.2734L20.0722 19.2876L20.3681 20.2896L20.416 20.2754ZM20.1201 19.2734L20.1671 19.2563C20.1185 19.1226 20.1669 18.9628 20.2894 18.8769L20.2607 18.8359L20.232 18.795C20.0726 18.9067 20.0089 19.114 20.0731 19.2905L20.1201 19.2734ZM20.2607 18.8359L20.2906 18.876C21.9625 17.6292 22.8787 16.1345 22.8645 14.6733L22.8145 14.6738L22.7645 14.6743C22.7783 16.0914 21.8888 17.5594 20.2309 18.7959L20.2607 18.8359ZM22.8145 14.6738H22.8645C22.8645 11.7886 19.998 9.3748 16.6064 9.3748V9.4248V9.4748C19.9592 9.4748 22.7645 11.8589 22.7645 14.6738H22.8145ZM8.62109 3.23145V3.18145C4.46785 3.18145 1.0791 6.03165 1.07891 9.55175L1.12891 9.55176L1.17891 9.55176C1.1791 6.10212 4.5065 3.28145 8.62109 3.28145V3.23145ZM1.12891 9.55176H1.07891C1.07891 11.5051 2.09197 13.1984 4.07679 14.5878L4.10547 14.5469L4.13414 14.5059C2.16859 13.13 1.17891 11.4643 1.17891 9.55176H1.12891ZM4.10547 14.5469L4.07606 14.5873C4.21398 14.6876 4.26272 14.8486 4.21331 14.9969L4.26074 15.0127L4.30818 15.0285C4.37164 14.8381 4.30736 14.6319 4.13488 14.5064L4.10547 14.5469ZM4.26074 15.0127L4.21331 14.9969L3.73382 16.4354L3.78125 16.4512L3.82868 16.467L4.30818 15.0285L4.26074 15.0127ZM3.78125 16.4512L3.80374 16.4958L5.68069 15.5505L5.6582 15.5059L5.63571 15.4612L3.75876 16.4065L3.78125 16.4512ZM5.6582 15.5059L5.67398 15.5533C5.75338 15.5269 5.84349 15.5146 5.91759 15.5269L5.92578 15.4775L5.93397 15.4282C5.83913 15.4125 5.73201 15.4286 5.64242 15.4584L5.6582 15.5059ZM5.92578 15.4775L5.91653 15.5267L6.3677 15.6116L6.37695 15.5625L6.38621 15.5134L5.93503 15.4284L5.92578 15.4775ZM6.37695 15.5625L6.36679 15.6115C7.11424 15.7666 7.81106 15.9094 8.62109 15.9094V15.8594V15.8094C7.82266 15.8094 7.13525 15.6688 6.38711 15.5135L6.37695 15.5625ZM8.62109 15.8594L8.6211 15.9094C8.86257 15.9094 9.10375 15.8951 9.32929 15.881L9.32617 15.8311L9.32305 15.7812C9.09735 15.7953 8.85906 15.8094 8.62109 15.8094L8.62109 15.8594ZM9.32617 15.8311V15.8811H9.38281V15.8311V15.7811H9.32617V15.8311ZM9.38281 15.8311L9.43095 15.8175C9.30527 15.3707 9.24922 14.9233 9.24922 14.4902H9.19922H9.14922C9.14922 14.9319 9.20639 15.3884 9.33468 15.8446L9.38281 15.8311ZM9.19922 14.4902L9.24922 14.4902C9.24928 11.2086 12.3383 8.48691 16.17 8.40253L16.1689 8.35254L16.1678 8.30255C12.2963 8.38781 9.14928 11.1408 9.14922 14.4902L9.19922 14.4902ZM16.1689 8.35254L16.2175 8.3408C15.5052 5.39242 12.2497 3.18156 8.6211 3.18145L8.62109 3.23145L8.62109 3.28145C12.216 3.28156 15.4215 5.47184 16.1203 8.36428L16.1689 8.35254ZM14.3633 11.9502V12.0002C15.004 12.0002 15.3855 12.4346 15.3855 12.8252L15.4355 12.8252L15.4855 12.8252C15.4854 12.3693 15.0486 11.9002 14.3633 11.9002V11.9502ZM15.4355 12.8252H15.3855C15.3855 13.2158 15.0041 13.6502 14.3633 13.6502V13.7002V13.7502C15.0487 13.7502 15.4855 13.2811 15.4855 12.8252H15.4355ZM14.3633 13.7002L14.3633 13.6502C14.1609 13.6502 13.9542 13.5484 13.7971 13.3914C13.6401 13.2343 13.5383 13.0276 13.5383 12.8252H13.4883H13.4383C13.4383 13.0602 13.5553 13.291 13.7264 13.4621C13.8975 13.6332 14.1283 13.7502 14.3633 13.7502L14.3633 13.7002ZM13.4883 12.8252L13.5383 12.8252C13.5383 12.6228 13.6401 12.4161 13.7972 12.2591C13.9542 12.102 14.1609 12.0002 14.3633 12.0002L14.3633 11.9502L14.3633 11.9002C14.1283 11.9002 13.8975 12.0173 13.7265 12.1883C13.5554 12.3594 13.4383 12.5903 13.4383 12.8252L13.4883 12.8252ZM18.8643 11.9502L18.8643 12.0002C19.505 12.0002 19.8864 12.4346 19.8865 12.8252L19.9365 12.8252L19.9865 12.8252C19.9864 12.3693 19.5496 11.9002 18.8643 11.9002L18.8643 11.9502ZM19.9365 12.8252H19.8865C19.8865 13.2158 19.5051 13.6502 18.8643 13.6502L18.8643 13.7002L18.8643 13.7502C19.5497 13.7502 19.9865 13.2811 19.9865 12.8252H19.9365ZM18.8643 13.7002V13.6502C18.662 13.6502 18.4591 13.5486 18.3058 13.3918C18.1525 13.2349 18.0539 13.0282 18.0539 12.8252H18.0039H17.9539C17.9539 13.0596 18.0668 13.2903 18.2343 13.4617C18.4018 13.633 18.6291 13.7502 18.8643 13.7502V13.7002ZM18.0039 12.8252L18.0539 12.8252C18.0539 12.6222 18.1526 12.4155 18.3059 12.2586C18.4592 12.1018 18.662 12.0002 18.8643 12.0002V11.9502V11.9002C18.6291 11.9002 18.4019 12.0174 18.2344 12.1887C18.0669 12.3601 17.954 12.5908 17.9539 12.8252L18.0039 12.8252ZM11.6963 6.01074V6.06074C12.002 6.06074 12.2568 6.16581 12.4352 6.34414C12.6135 6.52246 12.7186 6.77732 12.7186 7.08301H12.7686H12.8186C12.8186 6.75377 12.705 6.4725 12.5059 6.27342C12.3068 6.07435 12.0255 5.96074 11.6963 5.96074V6.01074ZM12.7686 7.08301L12.7186 7.083C12.7185 7.38913 12.6167 7.64393 12.4403 7.82203C12.2639 8.00006 12.0092 8.10527 11.6963 8.10527V8.15527V8.20527C12.0323 8.20527 12.3138 8.0918 12.5113 7.89241C12.7088 7.69309 12.8185 7.41176 12.8186 7.08301L12.7686 7.08301ZM11.6963 8.15527L11.6963 8.10527C11.3966 8.1052 11.0866 8.00274 10.8524 7.82276C10.6188 7.64321 10.4631 7.38879 10.4631 7.083L10.4131 7.08301L10.3631 7.08301C10.3631 7.42609 10.5387 7.70772 10.7915 7.90205C11.0437 8.09595 11.3753 8.20519 11.6963 8.20527L11.6963 8.15527ZM10.4131 7.08301H10.4631C10.4631 6.76993 10.619 6.51565 10.8522 6.33808C11.0862 6.15997 11.3962 6.06082 11.6963 6.06074L11.6963 6.01074L11.6963 5.96074C11.3757 5.96082 11.0441 6.0663 10.7916 6.25852C10.5384 6.4513 10.3631 6.73307 10.3631 7.08301H10.4131ZM5.9541 5.99609V6.04609C6.25971 6.04609 6.51453 6.15121 6.69285 6.32957C6.87117 6.50792 6.97628 6.7628 6.97637 7.06837L7.02637 7.06836L7.07637 7.06834C7.07627 6.73922 6.96263 6.45796 6.76357 6.25886C6.5645 6.05976 6.28328 5.94609 5.9541 5.94609V5.99609ZM7.02637 7.06836H6.97637C6.97637 7.3819 6.87431 7.6401 6.6981 7.81798C6.52206 7.99568 6.26786 8.09743 5.95519 8.09064L5.9541 8.14062L5.95301 8.19061C6.28938 8.19793 6.57131 8.08806 6.76914 7.88836C6.9668 7.68883 7.07637 7.40384 7.07637 7.06836H7.02637ZM5.9541 8.14062L5.9541 8.09062C5.65392 8.09062 5.34367 7.99149 5.10948 7.81336C4.87602 7.63578 4.71992 7.38147 4.71992 7.06836H4.66992H4.61992C4.61992 7.41838 4.79551 7.70018 5.04894 7.89295C5.30165 8.08517 5.63349 8.19061 5.9541 8.19063L5.9541 8.14062ZM4.66992 7.06836L4.71992 7.06838C4.72005 6.75539 4.87619 6.50106 5.10964 6.32345C5.34381 6.14528 5.65399 6.0461 5.9541 6.04609L5.9541 5.99609L5.9541 5.94609C5.63354 5.9461 5.30177 6.05162 5.04909 6.24386C4.79568 6.43666 4.62007 6.71845 4.61992 7.06834L4.66992 7.06836Z" fill="var(--stroke-0, #E6485C)"/>
</g>
</g>
<defs>
<clipPath id="clip0_0_23">
<rect width="24" height="24" fill="white"/>
</clipPath>
</defs>
</svg>
