<svg preserveAspectRatio="none" width="100%" height="100%" overflow="visible" style="display: block;" viewBox="0 0 24 24" fill="none" xmlns="http://www.w3.org/2000/svg">
<g id="Frame">
<path id="Vector" d="M6.5 3H14L19 8V18C19 18.3283 18.9353 18.6534 18.8097 18.9567C18.6841 19.26 18.4999 19.5356 18.2678 19.7678C18.0356 19.9999 17.76 20.1841 17.4567 20.3097C17.1534 20.4353 16.8283 20.5 16.5 20.5H6.5C6.1717 20.5 5.84661 20.4353 5.54329 20.3097C5.23998 20.1841 4.96438 19.9999 4.73223 19.7678C4.50009 19.5356 4.31594 19.26 4.1903 18.9567C4.06466 18.6534 4 18.3283 4 18V5.5C4 4.83696 4.26339 4.20107 4.73223 3.73223C5.20107 3.26339 5.83696 3 6.5 3Z" stroke="var(--stroke-0, #F0464E)" stroke-width="1.5" stroke-linecap="round" stroke-linejoin="round"/>
<path id="Vector_2" d="M13.9 8.6H9.1C8.21634 8.6 7.5 9.31634 7.5 10.2V14C7.5 14.8837 8.21634 15.6 9.1 15.6H13.9C14.7837 15.6 15.5 14.8837 15.5 14V10.2C15.5 9.31634 14.7837 8.6 13.9 8.6Z" stroke="var(--stroke-0, #F0464E)" stroke-width="1.5" stroke-linecap="round" stroke-linejoin="round"/>
<path id="Vector_3" d="M11.5 8.6V15.6M7.5 12.1H15.5" stroke="var(--stroke-0, #F0464E)" stroke-width="1.5" stroke-linecap="round" stroke-linejoin="round"/>
</g>
</svg>
