<svg preserveAspectRatio="none" width="100%" height="100%" overflow="visible" style="display: block;" viewBox="0 0 32 32" fill="none" xmlns="http://www.w3.org/2000/svg">
<g id="Frame">
<path id="Vector" d="M13.164 8.14258C14.4559 8.14267 15.5038 9.19929 15.5038 10.5039V15.0654C15.5038 15.0918 15.5123 15.1187 15.5234 15.1416C15.5348 15.1652 15.5508 15.1887 15.5683 15.21C15.6014 15.25 15.6502 15.2907 15.7011 15.3018V15.3027L22.9257 16.9248C24.1277 17.1954 25.0691 18.3764 25.0693 19.6152V24.9785C25.0691 27.1739 23.3076 28.9502 21.1327 28.9502H14.7626C14.2098 28.9501 13.5885 28.7835 13.0175 28.5068C12.4463 28.23 11.9291 27.8441 11.5839 27.4102L11.582 27.4092L7.10052 22.2891C6.36848 21.3658 6.44474 19.9748 7.27532 19.1367L7.37591 19.0352C8.22787 18.176 9.60534 18.1731 10.457 19.0352L10.7411 19.3232L10.8271 19.4092V10.46H10.8261C10.8524 9.1753 11.8913 8.14258 13.164 8.14258ZM13.164 9.65039C12.6957 9.65039 12.3174 10.0359 12.3173 10.5068V23.0459L9.39739 20.0996C9.12743 19.8273 8.69906 19.8311 8.42962 20.0996H8.42864L8.32806 20.2012C8.0372 20.4947 8.00693 21.0229 8.26458 21.3447L8.26556 21.3457L12.7519 26.4668C12.9567 26.7268 13.2968 26.9705 13.664 27.1484C14.0317 27.3266 14.4334 27.4423 14.7626 27.4424H21.1327C22.4835 27.4424 23.5759 26.3404 23.5761 24.9814V19.6152C23.576 19.3477 23.4609 19.0723 23.2841 18.8506C23.1073 18.6289 22.8646 18.4557 22.6025 18.3975L15.3779 16.7783L15.2353 16.7393C14.5346 16.5131 14.0107 15.8136 14.0107 15.0684V10.5039C14.0106 10.0328 13.6319 9.65048 13.164 9.65039ZM13.164 3.0498C16.6576 3.04989 19.4899 5.86373 19.4902 9.1543C19.4902 11.6205 18.2364 13.6016 16.4033 14.7051V12.7656C17.3447 11.9347 17.9537 10.6947 17.997 9.15625V9.1543C17.9534 6.66567 15.7963 4.52663 13.165 4.49121H13.163C10.4834 4.52935 8.32546 6.66733 8.33099 9.1543C8.32234 10.7223 8.95659 11.9806 9.92474 12.7666V14.7061C8.09413 13.6108 6.83782 11.6237 6.83782 9.1543C6.83805 5.86368 9.6703 3.0498 13.164 3.0498Z" fill="var(--fill-0, #272729)" stroke="var(--stroke-0, white)" stroke-width="0.1"/>
</g>
</svg>
