<svg preserveAspectRatio="none" width="100%" height="100%" overflow="visible" style="display: block;" viewBox="0 0 32 32" fill="none" xmlns="http://www.w3.org/2000/svg">
<g id="Frame">
<path id="Vector" d="M8.0498 25.0508H15.1504V15.752H8.0498V25.0508ZM16.8496 25.0508H23.9502V15.752H16.8496V25.0508ZM6.9502 14.0527H25.0498V11.3535H6.9502V14.0527ZM6.34961 15.752H6.09961C5.98811 15.7519 5.87742 15.7302 5.77441 15.6875C5.67139 15.6448 5.57788 15.5818 5.49902 15.5029C5.42017 15.4241 5.35714 15.3306 5.31445 15.2275C5.27179 15.1245 5.25 15.0139 5.25 14.9023V10.5029C5.25012 10.2777 5.33973 10.0616 5.49902 9.90234C5.65832 9.74314 5.87436 9.65342 6.09961 9.65332H13.9541L13.5254 9.22656L10.9951 6.70801H10.9961C10.8359 6.54785 10.7452 6.33097 10.7451 6.10449C10.7451 5.87794 10.8358 5.66021 10.9961 5.5C11.1562 5.34006 11.3732 5.2501 11.5996 5.25C11.7979 5.25 11.9896 5.31882 12.1416 5.44336L12.2041 5.5L15.8232 9.12891L16 9.30664L16.1768 9.12891L19.7949 5.50098C19.955 5.34207 20.1719 5.25312 20.3975 5.25391C20.623 5.2547 20.8391 5.34493 20.998 5.50488C21.157 5.66493 21.2459 5.8819 21.2451 6.10742C21.2443 6.33289 21.1542 6.54912 20.9941 6.70801H20.9932L18.4746 9.22656L18.0469 9.65332H25.9004C26.1256 9.65342 26.3417 9.74314 26.501 9.90234C26.6603 10.0616 26.7499 10.2777 26.75 10.5029V14.9023C26.75 15.0139 26.7282 15.1245 26.6855 15.2275C26.6429 15.3306 26.5798 15.4241 26.501 15.5029C26.4221 15.5818 26.3286 15.6448 26.2256 15.6875C26.1226 15.7302 26.0119 15.7519 25.9004 15.752H25.6504V25.9004C25.6504 26.0119 25.6277 26.1225 25.585 26.2256C25.5423 26.3285 25.4801 26.4222 25.4014 26.501C25.3224 26.5799 25.2281 26.6428 25.125 26.6855C25.022 26.7282 24.9113 26.75 24.7998 26.75H7.2002C6.97475 26.75 6.75804 26.6603 6.59863 26.501C6.4394 26.3417 6.34965 26.1256 6.34961 25.9004V15.752Z" fill="var(--fill-0, #272729)" stroke="var(--stroke-0, #F8F8FB)" stroke-width="0.5"/>
</g>
</svg>
