<svg preserveAspectRatio="xMidYMid meet" width="24" height="24" overflow="visible" style="display: block;" viewBox="0 0 12.6316 16" fill="none" xmlns="http://www.w3.org/2000/svg">
<path id="vector" d="M1.51579 16C1.09474 16 0.736842 15.8526 0.442105 15.5579C0.147369 15.2632 0 14.9053 0 14.4842V4.88421C0 4.46316 0.147369 4.10526 0.442105 3.81053C0.736842 3.51579 1.09474 3.36842 1.51579 3.36842H3.15789V3.1579C3.15789 2.28772 3.46667 1.54386 4.08421 0.926316C4.70176 0.308772 5.44561 0 6.31579 0C7.18597 0 7.92982 0.308772 8.54737 0.926316C9.16491 1.54386 9.47368 2.28772 9.47368 3.1579V3.36842H11.1158C11.5368 3.36842 11.8947 3.51579 12.1895 3.81053C12.4842 4.10526 12.6316 4.46316 12.6316 4.88421V14.4842C12.6316 14.9053 12.4842 15.2632 12.1895 15.5579C11.8947 15.8526 11.5368 16 11.1158 16H1.51579ZM1.51579 14.7368H11.1158C11.1719 14.7368 11.2281 14.7088 11.2842 14.6526C11.3404 14.5965 11.3684 14.5404 11.3684 14.4842V4.88421C11.3684 4.82807 11.3404 4.77193 11.2842 4.71579C11.2281 4.65965 11.1719 4.63158 11.1158 4.63158H9.47368V6.52632C9.47368 6.70877 9.41418 6.85951 9.29516 6.97853C9.17558 7.09811 9.02456 7.1579 8.84211 7.1579C8.65965 7.1579 8.50891 7.09811 8.3899 6.97853C8.27032 6.85951 8.21053 6.70877 8.21053 6.52632V4.63158H4.42105V6.52632C4.42105 6.70877 4.36154 6.85951 4.24253 6.97853C4.12295 7.09811 3.97193 7.1579 3.78947 7.1579C3.60702 7.1579 3.45628 7.09811 3.33726 6.97853C3.21768 6.85951 3.15789 6.70877 3.15789 6.52632V4.63158H1.51579C1.45965 4.63158 1.40351 4.65965 1.34737 4.71579C1.29123 4.77193 1.26316 4.82807 1.26316 4.88421V14.4842C1.26316 14.5404 1.29123 14.5965 1.34737 14.6526C1.40351 14.7088 1.45965 14.7368 1.51579 14.7368ZM4.42105 3.36842H8.21053V3.1579C8.21053 2.62456 8.02807 2.17544 7.66316 1.81053C7.29825 1.44561 6.84912 1.26316 6.31579 1.26316C5.78246 1.26316 5.33333 1.44561 4.96842 1.81053C4.60351 2.17544 4.42105 2.62456 4.42105 3.1579V3.36842Z" fill="var(--fill-0, #292B2E)"/>
</svg>
