<svg width="24" height="24" viewBox="4 4.5 16 16" fill="none" xmlns="http://www.w3.org/2000/svg">
<path d="M11.98 4.74371C15.0063 4.74376 17.658 6.78516 18.438 9.71246C19.2745 9.9708 19.8843 10.7508 19.8843 11.6705V13.9273C19.8843 15.0063 19.0444 15.8924 17.9849 15.9703C17.9813 15.9756 17.9777 15.9827 17.9741 15.9898C17.4381 16.9131 16.0251 18.5351 14.0513 18.9703C13.862 19.591 13.2836 20.0434 12.6011 20.0435H11.3589C10.5241 20.0434 9.8453 19.3646 9.84521 18.5298V18.4517C9.84529 17.617 10.5241 16.9381 11.3589 16.938H12.6021C13.1998 16.938 13.7165 17.2826 13.9624 17.7847C15.2448 17.4416 16.237 16.4385 16.7446 15.731C16.1028 15.3843 15.6646 14.7052 15.6646 13.9254V11.6705C15.6646 10.7136 16.3225 9.90878 17.2104 9.68414C16.4623 7.44672 14.3644 5.91474 11.9819 5.91461C9.60115 5.91461 7.50338 7.44663 6.75342 9.68414C7.64118 9.9089 8.29932 10.7137 8.29932 11.6705V13.9254C8.29932 15.0538 7.38074 15.9742 6.25049 15.9742H6.12842C5.00007 15.974 4.08057 15.0555 4.08057 13.9254V11.6705C4.08057 10.7525 4.68716 9.97251 5.52197 9.71246C6.30201 6.78512 8.95359 4.74371 11.98 4.74371ZM11.3628 18.1109C11.1771 18.1109 11.019 18.2662 11.019 18.4537V18.5318C11.0192 18.7174 11.1754 18.8746 11.3628 18.8746H12.606C12.7916 18.8746 12.9485 18.7191 12.9487 18.5318V18.4537C12.9487 18.268 12.7934 18.1109 12.606 18.1109H11.3628ZM14.5317 14.9097C13.7718 15.3805 12.8924 15.6299 11.9956 15.6285C11.0987 15.6302 10.2201 15.3806 9.46045 14.9097L10.0942 13.9078C10.6638 14.2599 11.3229 14.4458 11.9956 14.4459C12.6683 14.4467 13.3274 14.2598 13.897 13.9078L14.5317 14.9097ZM6.12842 10.7916C5.64391 10.7917 5.24951 11.1859 5.24951 11.6705V13.9254C5.24951 14.4099 5.64391 14.8041 6.12842 14.8043H6.25049C6.73514 14.8043 7.12939 14.41 7.12939 13.9254V11.6705C7.12939 11.1858 6.73514 10.7933 6.25049 10.7916H6.12842ZM17.7124 10.7916C17.2278 10.7916 16.8335 11.1859 16.8335 11.6705V13.9254C16.8335 14.41 17.2278 14.8042 17.7124 14.8043H17.8345C18.3191 14.8043 18.7134 14.41 18.7134 13.9254V11.6705C18.7134 11.1858 18.3191 10.7916 17.8345 10.7916H17.7124Z" fill="#292B2E"/>
</svg>
